<?xml version="1.0" standalone="no"?>
<!DOCTYPE svg PUBLIC "-//W3C//DTD SVG 1.1//EN" "http://www.w3.org/Graphics/SVG/1.1/DTD/svg11.dtd" >
<svg xmlns="http://www.w3.org/2000/svg" xmlns:xlink="http://www.w3.org/1999/xlink" version="1.1">
<metadata>
Created by FontForge 20170924 at Fri Dec  3 05:51:27 2010
 By www-data
Copyright (c) 2008 by Silas Dilworth. All rights reserved.
</metadata>
<defs>
<font id="HeroicCondensed-Regular" horiz-adv-x="328" >
  <font-face 
    font-family="Heroic Condensed Regular"
    font-weight="400"
    font-stretch="normal"
    units-per-em="1000"
    panose-1="2 0 5 6 4 0 0 2 0 4"
    ascent="750"
    descent="-250"
    x-height="500"
    cap-height="700"
    bbox="-36 -210 597 885"
    underline-thickness="50"
    underline-position="-100"
    unicode-range="U+0020-2265"
  />
<missing-glyph horiz-adv-x="450" 
d="M50 700h350v-700h-350v700zM70 20l144 330l-144 330v-660zM380 680l-145 -330l145 -330v660zM91 20h267l-133 306zM225 374l133 306h-267z" />
    <glyph glyph-name=".notdef" horiz-adv-x="450" 
d="M50 700h350v-700h-350v700zM70 20l144 330l-144 330v-660zM380 680l-145 -330l145 -330v660zM91 20h267l-133 306zM225 374l133 306h-267z" />
    <glyph glyph-name=".null" horiz-adv-x="0" 
 />
    <glyph glyph-name="nonmarkingreturn" horiz-adv-x="0" 
 />
    <glyph glyph-name="space" unicode=" " horiz-adv-x="175" 
 />
    <glyph glyph-name="nonbreakingspace" unicode="&#xa0;" horiz-adv-x="85" 
 />
    <glyph glyph-name="A" unicode="A" horiz-adv-x="324" 
d="M296 0h-64l-19 160h-103l-19 -160h-64l96 700h78zM116 218h90l-44 386z" />
    <glyph glyph-name="B" unicode="B" horiz-adv-x="353" 
d="M62 700h114q36 0 59 -7t36.5 -20.5t18.5 -34t5 -47.5v-147q0 -35 -12.5 -57t-41.5 -33q32 -11 45.5 -34t13.5 -58v-146q0 -27 -5 -48.5t-18 -36.5t-36 -23t-59 -8h-120v700zM178 60q35 0 47 14.5t12 43.5v146q0 27 -12.5 43.5t-46.5 16.5h-53v-264h53zM125 639v-257h49
q34 0 46.5 16.5t12.5 43.5v140q0 29 -12.5 43t-45.5 14h-50z" />
    <glyph glyph-name="C" unicode="C" horiz-adv-x="329" 
d="M226 200h61v-88q0 -54 -25.5 -88t-91.5 -34q-35 0 -57.5 9t-36 25t-19 38.5t-5.5 49.5v475q0 27 5.5 49.5t19 39t36 25.5t57.5 9q66 0 91.5 -34.5t25.5 -88.5v-77h-61v77q0 27 -13 46.5t-43 19.5q-32 0 -43.5 -18.5t-11.5 -47.5v-475q0 -27 12 -46.5t43 -19.5q32 0 44 19
t12 47v88z" />
    <glyph glyph-name="D" unicode="D" horiz-adv-x="358" 
d="M177 60q35 0 47.5 16t12.5 45v458q0 29 -12.5 44.5t-47.5 15.5h-52v-579h52zM62 700h116q36 0 59.5 -9t37.5 -24.5t19.5 -38t5.5 -49.5v-458q0 -27 -5.5 -49.5t-19 -38t-36.5 -24.5t-59 -9h-118v700z" />
    <glyph glyph-name="E" unicode="E" horiz-adv-x="301" 
d="M125 60h136v-60h-199v700h199v-61h-136v-257h117v-58h-117v-264z" />
    <glyph glyph-name="F" unicode="F" horiz-adv-x="288" 
d="M62 0v700h193v-61h-130v-257h112v-58h-112v-324h-63z" />
    <glyph glyph-name="G" unicode="G" horiz-adv-x="346" 
d="M175 382h118v-270q0 -27 -5.5 -49.5t-19 -38.5t-36.5 -25t-57 -9q-35 0 -57.5 9t-36 25t-19 38.5t-5.5 49.5v476q0 27 5.5 49.5t19 38.5t36 25t57.5 9q34 0 56.5 -9t36 -25t19 -38.5t5.5 -49.5v-78h-62v78q0 26 -12 45.5t-43 19.5q-32 0 -43.5 -18t-11.5 -47v-476
q0 -27 12 -46.5t43 -19.5q32 0 43.5 18.5t11.5 47.5v212h-55v58z" />
    <glyph glyph-name="H" unicode="H" horiz-adv-x="364" 
d="M125 0h-63v700h63v-318h113v318h63v-700h-63v324h-113v-324z" />
    <glyph glyph-name="I" unicode="I" horiz-adv-x="188" 
d="M62 700h63v-700h-63v700z" />
    <glyph glyph-name="J" unicode="J" horiz-adv-x="322" 
d="M95 111q0 -27 10.5 -46t40.5 -19q31 0 40.5 18t9.5 47v589h63v-589q0 -27 -5 -49.5t-18 -38.5t-34.5 -24.5t-55.5 -8.5q-65 0 -89.5 33.5t-24.5 87.5v89h63v-89z" />
    <glyph glyph-name="K" unicode="K" horiz-adv-x="335" 
d="M125 380l116 320h70l-135 -347l141 -353h-69l-123 326v-326h-63v700h63v-320z" />
    <glyph glyph-name="L" unicode="L" horiz-adv-x="258" 
d="M62 700h63v-640h110v-60h-173v700z" />
    <glyph glyph-name="M" unicode="M" horiz-adv-x="480" 
d="M142 700l97 -595l98 595h80v-700h-60v239q0 27 1 71.5t2.5 95t2.5 99t2 83.5l-95 -588h-61l-95 588q1 -35 2 -83.5t2.5 -98.5t2.5 -95t1 -72v-239h-60v700h80z" />
    <glyph glyph-name="N" unicode="N" horiz-adv-x="386" 
d="M117 546q2 -81 4 -158t2 -162v-226h-61v700h62l147 -547q-2 83 -4 160t-2 160v227h61v-700h-62l-147 546v0z" />
    <glyph glyph-name="O" unicode="O" horiz-adv-x="341" 
d="M170 46q32 0 43.5 18.5t11.5 47.5v475q0 29 -11.5 47.5t-43.5 18.5t-43.5 -18.5t-11.5 -47.5v-475q0 -29 11.5 -47.5t43.5 -18.5zM170 710q34 0 57 -9t36.5 -25.5t19 -39t5.5 -49.5v-475q0 -27 -5.5 -49.5t-19 -38.5t-36.5 -25t-57 -9q-35 0 -57.5 9t-36 25t-19 38.5
t-5.5 49.5v475q0 27 5.5 49.5t19 39t36 25.5t57.5 9z" />
    <glyph glyph-name="P" unicode="P" horiz-adv-x="334" 
d="M62 700h114q36 0 59 -9t36.5 -24.5t19 -38t5.5 -49.5v-158q0 -52 -27.5 -85.5t-94.5 -33.5h-49v-302h-63v700zM173 360q35 0 47.5 16t12.5 45v158q0 29 -13.5 44.5t-46.5 15.5h-48v-279h48z" />
    <glyph glyph-name="Q" unicode="Q" horiz-adv-x="341" 
d="M245 -91q-53 0 -76.5 21t-25.5 62q-53 6 -72 38.5t-19 81.5v475q0 27 5.5 49.5t19 39t36 25.5t57.5 9q34 0 57 -9t36.5 -25.5t19 -39t5.5 -49.5v-475q0 -49 -19.5 -81.5t-71.5 -38.5q1 -23 11.5 -33t36.5 -10h22l-10 -40h-12zM170 46q32 0 43.5 18.5t11.5 47.5v475
q0 29 -11.5 47.5t-43.5 18.5t-43.5 -18.5t-11.5 -47.5v-475q0 -29 11.5 -47.5t43.5 -18.5z" />
    <glyph glyph-name="R" unicode="R" horiz-adv-x="348" 
d="M62 700h115q36 0 59 -9t36.5 -24.5t18.5 -38t5 -49.5v-158q0 -45 -17.5 -75.5t-61.5 -39.5l113 -306h-70l-103 302h-32v-302h-63v700zM173 360q35 0 47.5 16t12.5 45v158q0 29 -13.5 44.5t-46.5 15.5h-48v-279h48z" />
    <glyph glyph-name="S" unicode="S" horiz-adv-x="329" 
d="M218 198q0 51 -12.5 81t-31.5 49.5t-41.5 33.5t-41.5 33.5t-31.5 49.5t-12.5 82v60q0 27 5 49.5t18 39t36 25.5t58 9t58 -9t36 -25.5t18 -39t5 -49.5v-77h-63v77q0 27 -11 46.5t-43 19.5q-33 0 -43.5 -18.5t-10.5 -47.5v-59q0 -43 12.5 -68t31.5 -41.5t41.5 -31t41.5 -37
t31.5 -57.5t12.5 -94v-86q0 -27 -5 -49.5t-18 -39t-36 -25.5t-58 -9t-58 9t-36 25.5t-18 39t-5 49.5v87h63v-87q0 -28 11.5 -47.5t42.5 -19.5q33 0 43.5 19t10.5 48v85z" />
    <glyph glyph-name="T" unicode="T" horiz-adv-x="275" 
d="M169 0h-63v639h-84v61h230v-61h-83v-639z" />
    <glyph glyph-name="U" unicode="U" horiz-adv-x="350" 
d="M120 113q0 -29 11 -48t44 -19t43.5 19t10.5 48v587h63v-587q0 -26 -5.5 -48.5t-19 -39t-36 -26t-56.5 -9.5q-35 0 -58 9t-36.5 25.5t-18.5 39t-5 49.5v587h63v-587z" />
    <glyph glyph-name="V" unicode="V" horiz-adv-x="324" 
d="M198 0h-73l-98 700h65l70 -580l69 580h65z" />
    <glyph glyph-name="W" unicode="W" horiz-adv-x="536" 
d="M267 574l-73 -574h-73l-89 700h64l62 -579l76 579h66l76 -579l62 579h64l-89 -700h-72z" />
    <glyph glyph-name="X" unicode="X" horiz-adv-x="318" 
d="M159 444l62 256h67l-97 -337l104 -363h-67l-69 281l-69 -281h-67l103 363l-96 337h67z" />
    <glyph glyph-name="Y" unicode="Y" horiz-adv-x="302" 
d="M119 0v291l-97 409h66l62 -318l63 318h66l-97 -409v-291h-63z" />
    <glyph glyph-name="Z" unicode="Z" horiz-adv-x="277" 
d="M32 0v40l141 599h-141v61h209v-40l-141 -600h144v-60h-212z" />
    <glyph glyph-name="a" unicode="a" horiz-adv-x="313" 
d="M42 168q0 29 7.5 51.5t26.5 40.5t50.5 33.5t78.5 29.5v73q0 28 -11.5 45t-37.5 17q-30 0 -40 -17t-10 -46v-23h-59v24q0 25 5 46t17.5 36t33.5 23.5t53 8.5t53 -8.5t33.5 -23.5t17.5 -36t5 -46v-396h-35l-16 30q-10 -20 -26.5 -30t-44.5 -10q-54 0 -77.5 28.5t-23.5 85.5
v64zM205 278q-32 -10 -52 -21t-31.5 -24t-15.5 -29t-4 -35v-65q0 -29 11.5 -45.5t40.5 -16.5q28 0 39.5 17.5t11.5 44.5v174z" />
    <glyph glyph-name="b" unicode="b" horiz-adv-x="323" 
d="M52 0v710h60v-236q10 16 27.5 26t40.5 10q53 0 74 -28.5t21 -87.5v-289q0 -58 -21.5 -86.5t-75.5 -28.5q-52 0 -74 41l-16 -31h-36zM112 106q0 -29 12 -46.5t41 -17.5q28 0 39 17.5t11 46.5v288q0 29 -11 46.5t-39 17.5q-29 0 -41 -18.5t-12 -47.5v-286z" />
    <glyph glyph-name="c" unicode="c" horiz-adv-x="312" 
d="M269 172v-66q0 -53 -22.5 -84.5t-87.5 -31.5q-33 0 -54.5 8.5t-34.5 23.5t-18 36.5t-5 47.5v287q0 26 5.5 47.5t18.5 37t34.5 24t53.5 8.5q33 0 54 -8.5t33.5 -24t17.5 -37t5 -47.5v-55h-59v55q0 32 -11 48.5t-40 16.5t-40.5 -16.5t-11.5 -48.5v-287q0 -31 11.5 -47.5
t40.5 -16.5t40 16.5t11 47.5v66h59z" />
    <glyph glyph-name="d" unicode="d" 
d="M239 0l-16 31q-22 -41 -74 -41q-54 0 -75.5 28.5t-21.5 86.5v289q0 59 21 87.5t74 28.5q23 0 40.5 -10t27.5 -26v236h60v-710h-36zM215 392q0 29 -12 47.5t-41 18.5q-28 0 -39 -17.5t-11 -46.5v-288q0 -29 11 -46.5t39 -17.5q29 0 41 17.5t12 46.5v286z" />
    <glyph glyph-name="e" unicode="e" horiz-adv-x="317" 
d="M269 172v-66q0 -53 -22.5 -84.5t-87.5 -31.5q-33 0 -54.5 8.5t-34.5 23.5t-18 36.5t-5 47.5v287q0 26 5.5 47.5t18 37t34 24t54.5 8.5t54 -8.5t33.5 -24t17.5 -37t5 -47.5v-145h-162v-142q0 -64 52 -64q29 0 40 16.5t11 47.5v66h59zM210 392q0 32 -11 49t-40 17
t-40.5 -16.5t-11.5 -48.5v-98h103v97z" />
    <glyph glyph-name="f" unicode="f" horiz-adv-x="231" 
d="M174 720q22 0 39 -6v-53q-14 7 -37 7q-28 0 -38 -13.5t-10 -46.5v-108h73v-53h-73v-447h-60v447h-46v53h46v108q0 55 21.5 83.5t84.5 28.5z" />
    <glyph glyph-name="g" unicode="g" horiz-adv-x="324" 
d="M155 113q-41 0 -41 -28t41 -28q70 0 97.5 -30t27.5 -80v-9q0 -46 -27.5 -77t-96.5 -31q-68 0 -96 30t-28 78v9q0 35 14 61t49 39q-26 12 -26 38t28 38q-31 13 -42 40.5t-11 66.5v162q0 26 5 48t18 37.5t34 24t54 8.5q14 0 25.5 -2t21.5 -5q10 29 28 43.5t42 14.5
q17 0 29 -4v-47q-8 2 -14.5 3.5t-17.5 1.5q-28 0 -41 -24q22 -15 30.5 -40.5t8.5 -58.5v-162q0 -53 -23.5 -85t-88.5 -32zM155 458q-31 0 -41 -17.5t-10 -52.5v-160q0 -32 11 -49t40 -17t40.5 16t11.5 54v160q0 31 -11.5 48.5t-40.5 17.5zM156 14q-35 0 -50 -16t-15 -46v-9
q0 -61 65 -61q35 0 50 15.5t15 45.5v9q0 31 -15 46.5t-50 15.5z" />
    <glyph glyph-name="h" unicode="h" 
d="M52 0v710h60v-237q10 17 27.5 27t39.5 10q53 0 74.5 -28.5t21.5 -86.5v-395h-60v395q0 29 -11 46t-39 17q-29 0 -41 -17.5t-12 -46.5v-394h-60z" />
    <glyph glyph-name="i" unicode="i" horiz-adv-x="163" 
d="M111 500v-500h-60v500h60zM111 659v-74h-61v74h61z" />
    <glyph glyph-name="j" unicode="j" horiz-adv-x="161" 
d="M49 500h60v-558q0 -55 -22 -83.5t-85 -28.5q-9 0 -19.5 1.5t-18.5 4.5v53q14 -7 36 -7q28 0 38.5 14t10.5 46v558zM109 659v-74h-61v74h61z" />
    <glyph glyph-name="k" unicode="k" horiz-adv-x="298" 
d="M112 282l97 218h66l-113 -241l123 -259h-67l-106 234v-234h-60v710h60v-428z" />
    <glyph glyph-name="l" unicode="l" horiz-adv-x="165" 
d="M112 710v-710h-60v710h60z" />
    <glyph glyph-name="m" unicode="m" horiz-adv-x="487" 
d="M214 395q0 26 -10 44.5t-39 18.5q-28 0 -40.5 -17t-12.5 -46v-395h-60v500h36l16 -32q25 42 76 42q31 0 50 -11t29 -31q11 18 32 30t51 12q52 0 73 -29t21 -83v-398h-60v395q0 27 -10 45t-39 18q-27 0 -40 -16.5t-13 -45.5v-396h-60v395z" />
    <glyph glyph-name="n" unicode="n" 
d="M52 0v500h36l16 -32q11 20 29.5 31t44.5 11q54 0 75.5 -28.5t21.5 -86.5v-395h-60v395q0 29 -11 46t-39 17q-29 0 -41 -17t-12 -47v-394h-60z" />
    <glyph glyph-name="o" unicode="o" horiz-adv-x="318" 
d="M159 510q32 0 53.5 -8.5t34 -24t18 -37t5.5 -47.5v-287q0 -53 -23 -84.5t-88 -31.5q-33 0 -54.5 8.5t-34.5 23.5t-18 36.5t-5 47.5v287q0 26 5.5 47.5t18.5 37t34.5 24t53.5 8.5zM159 42q29 0 40 16.5t11 47.5v287q0 32 -11 48.5t-40 16.5t-40.5 -16.5t-11.5 -48.5v-287
q0 -31 11.5 -47.5t40.5 -16.5z" />
    <glyph glyph-name="p" unicode="p" 
d="M88 500l16 -32q22 42 74 42q54 0 75.5 -29.5t21.5 -85.5v-289q0 -59 -21.5 -87.5t-73.5 -28.5q-23 0 -40.5 10t-27.5 26v-186h-60v660h36zM112 132q0 -19 2 -35.5t7.5 -28.5t16 -19t27.5 -7q28 0 39 17.5t11 46.5v288q0 29 -11 46.5t-39 17.5q-29 0 -41 -17.5t-12 -47.5
v-261z" />
    <glyph glyph-name="q" unicode="q" 
d="M275 500v-660h-60v186q-10 -16 -27.5 -26t-40.5 -10q-53 0 -74 28.5t-21 87.5v289q0 58 21.5 86.5t75.5 28.5q52 0 74 -42l16 32h36zM215 393q0 30 -12 47.5t-41 17.5q-28 0 -39 -17.5t-11 -46.5v-288q0 -29 11 -46.5t39 -17.5q29 0 41 18t12 48v285z" />
    <glyph glyph-name="r" unicode="r" horiz-adv-x="212" 
d="M189 451q-42 4 -59.5 -17.5t-17.5 -61.5v-372h-60v500h42l15 -31q11 20 29.5 32t50.5 12v-62z" />
    <glyph glyph-name="s" unicode="s" horiz-adv-x="301" 
d="M42 395q0 26 5 47.5t17.5 36.5t33.5 23t52 8q63 0 85.5 -31t22.5 -84v-57h-59v57q0 34 -11.5 48.5t-37.5 14.5t-37.5 -15t-11.5 -48v-19q0 -31 11.5 -50t29 -32.5t38 -24.5t38 -26t29 -38.5t11.5 -60.5v-40q0 -26 -5 -47t-17 -36t-33 -23t-53 -8t-53 8t-33 23t-17 36
t-5 47v68h59v-68q0 -34 11.5 -48t37.5 -14t37.5 14.5t11.5 47.5v38q0 30 -11.5 48.5t-29 31.5t-38 24t-38 27t-29 40t-11.5 63v19z" />
    <glyph glyph-name="t" unicode="t" horiz-adv-x="242" 
d="M22 500h49v131q16 5 30.5 8t29.5 8v-147h79v-53h-79v-346q0 -31 10 -45t36 -14q11 0 19 1.5t18 5.5v-51q-7 -3 -19 -5.5t-21 -2.5q-60 0 -81.5 28t-21.5 83v346h-49v53z" />
    <glyph glyph-name="u" unicode="u" 
d="M275 500v-500h-35l-16 32q-22 -42 -75 -42t-75 28.5t-22 86.5v395h60v-395q0 -29 11 -46t40 -17t40.5 17t11.5 46v395h60z" />
    <glyph glyph-name="v" unicode="v" horiz-adv-x="293" 
d="M178 0h-64l-92 500h62l62 -408l62 408h62z" />
    <glyph glyph-name="w" unicode="w" horiz-adv-x="469" 
d="M235 400l-61 -400h-68l-80 500h62l54 -413q15 103 30.5 206t31.5 207h62q15 -104 30.5 -207t31.5 -206l54 413h61l-79 -500h-69z" />
    <glyph glyph-name="x" unicode="x" horiz-adv-x="289" 
d="M173 252l98 -252h-63l-64 188l-64 -188h-63l97 252l-92 248h63l59 -185l59 185h63z" />
    <glyph glyph-name="y" unicode="y" horiz-adv-x="301" 
d="M56 -170q-9 0 -20.5 1.5t-18.5 3.5v54q17 -7 39 -7q44 0 56 58l11 59l-98 501h62l65 -391l64 391h62l-108 -562q-11 -57 -35.5 -82.5t-78.5 -25.5z" />
    <glyph glyph-name="z" unicode="z" horiz-adv-x="262" 
d="M32 0v37l128 410h-123v53h187v-38l-127 -409h132v-53h-197z" />
    <glyph glyph-name="one" unicode="1" horiz-adv-x="262" 
d="M163 60h61v-60h-185v60h61v530h-63v43q42 0 58.5 19t16.5 48h51v-640z" />
    <glyph glyph-name="two" unicode="2" horiz-adv-x="320" 
d="M110 60h172v-60h-235v100q0 59 12.5 101t31.5 73.5t40.5 56.5t40.5 51t31.5 57t12.5 75v76q0 26 -11.5 44.5t-41.5 18.5q-31 0 -42 -18t-11 -45v-80h-63v80q0 26 5.5 48t18.5 38t35.5 25t56.5 9t56.5 -9t35.5 -25t18.5 -38t5.5 -48v-75q0 -52 -12.5 -88t-31.5 -64.5
t-40.5 -53t-40.5 -53t-31.5 -65t-12.5 -88.5v-43z" />
    <glyph glyph-name="three" unicode="3" horiz-adv-x="337" 
d="M128 382h34q30 0 40.5 16.5t10.5 42.5v150q0 22 -12 42t-40 20q-29 0 -40 -17.5t-11 -44.5v-81h-61v81q0 26 5 48t18 37.5t34.5 24.5t54.5 9t55 -9t35 -24.5t18.5 -37.5t5.5 -48v-144q0 -35 -12 -58.5t-41 -34.5q30 -11 43.5 -34.5t13.5 -58.5v-149q0 -27 -5.5 -49.5
t-18.5 -38.5t-36 -25t-57 -9q-35 0 -57 9t-35 25.5t-18 38.5t-5 49v88h62v-88q0 -24 12 -45t41 -21q32 0 43 18.5t11 47.5v151q0 23 -12.5 42t-41.5 19h-34v58z" />
    <glyph glyph-name="four" unicode="4" horiz-adv-x="325" 
d="M189 154h-162v65l141 481h84v-488h45v-58h-45v-154h-63v154zM189 212v133q0 70 1 133.5t-1 138.5l-110 -405h110z" />
    <glyph glyph-name="five" unicode="5" horiz-adv-x="341" 
d="M173 369q-40 0 -63 -35h-51l18 366h201v-61h-145l-11 -241q14 11 30 18t36 7q55 0 77.5 -28t22.5 -87v-196q0 -27 -5.5 -49.5t-19 -38.5t-36.5 -25t-57 -9q-35 0 -57.5 9t-36 25t-19 38.5t-5.5 49.5v88h63v-88q0 -29 11.5 -47.5t43.5 -18.5t43.5 18.5t11.5 47.5v196
q0 28 -11 44.5t-41 16.5z" />
    <glyph glyph-name="six" unicode="6" horiz-adv-x="346" 
d="M175 653q-30 0 -42.5 -17t-12.5 -49v-209q14 14 32.5 22.5t39.5 8.5q56 0 78.5 -30t22.5 -87v-180q0 -56 -25.5 -89t-92.5 -33t-92.5 33t-25.5 89v475q0 28 6 50.5t19.5 38.5t36.5 25t56 9t56 -9t36.5 -25t19.5 -38.5t6 -50.5v-77h-63v77q0 32 -12.5 49t-42.5 17z
M176 354q-20 0 -34 -9.5t-22 -22.5v-210q0 -30 11.5 -48t43.5 -18t43.5 18t11.5 48v180q0 29 -12.5 45.5t-41.5 16.5z" />
    <glyph glyph-name="seven" unicode="7" horiz-adv-x="274" 
d="M92 0q0 91 4.5 172t16 158.5t30.5 153t48 155.5h-169v61h229v-50q-19 -60 -33 -109.5t-24 -96t-16.5 -93t-10 -98.5t-5 -114t-1.5 -139h-69z" />
    <glyph glyph-name="eight" unicode="8" horiz-adv-x="341" 
d="M170 710q33 0 55 -9t35 -24.5t18.5 -37.5t5.5 -48v-144q0 -35 -12.5 -58.5t-41.5 -34.5q33 -12 45.5 -38t12.5 -65v-139q0 -27 -5.5 -49.5t-19 -38.5t-36.5 -25t-57 -9q-35 0 -57.5 9t-36 25t-19 38.5t-5.5 49.5v139q0 39 12.5 65t45.5 38q-29 11 -41 34.5t-12 58.5v144
q0 26 5.5 48t18 37.5t34.5 24.5t55 9zM170 46q34 0 44.5 21t10.5 52v137q0 15 -2 27.5t-7.5 22.5t-16.5 15.5t-29 5.5t-28.5 -5.5t-16.5 -15.5t-8 -22.5t-2 -27.5v-137q0 -15 2 -28.5t8 -23.5t17 -15.5t28 -5.5zM170 653q-32 0 -41.5 -19.5t-9.5 -48.5v-139q0 -28 9.5 -47
t41.5 -19q33 0 42.5 19t9.5 47v139q0 29 -10 48.5t-42 19.5z" />
    <glyph glyph-name="nine" unicode="9" horiz-adv-x="341" 
d="M170 47q30 0 42.5 17t12.5 49v219q-14 -14 -32.5 -22.5t-39.5 -8.5q-56 0 -78.5 30t-22.5 87v170q0 56 25.5 89t92.5 33t92.5 -33t25.5 -89v-475q0 -28 -6 -50.5t-19.5 -38.5t-36.5 -25t-56 -9t-56 9t-36.5 25t-19.5 38.5t-6 50.5v87h63v-87q0 -32 12.5 -49t42.5 -17z
M169 356q20 0 34 9.5t22 22.5v200q0 30 -11.5 48t-43.5 18t-43.5 -18t-11.5 -48v-170q0 -29 12.5 -45.5t41.5 -16.5z" />
    <glyph glyph-name="zero" unicode="0" horiz-adv-x="341" 
d="M170 46q32 0 43.5 18.5t11.5 47.5v475q0 29 -11.5 47.5t-43.5 18.5t-43.5 -18.5t-11.5 -47.5v-475q0 -29 11.5 -47.5t43.5 -18.5zM170 710q34 0 57 -9t36.5 -25.5t19 -39t5.5 -49.5v-475q0 -27 -5.5 -49.5t-19 -38.5t-36.5 -25t-57 -9q-35 0 -57.5 9t-36 25t-19 38.5
t-5.5 49.5v475q0 27 5.5 49.5t19 39t36 25.5t57.5 9z" />
    <glyph glyph-name="exclam" unicode="!" horiz-adv-x="179" 
d="M125 77v-77h-72v77h72zM127 700l-16 -470h-44l-17 470h77z" />
    <glyph glyph-name="exclamdown" unicode="&#xa1;" horiz-adv-x="179" 
d="M53 423v77h72v-77h-72zM50 -200l17 470h44l16 -470h-77z" />
    <glyph glyph-name="question" unicode="?" horiz-adv-x="329" 
d="M141 230v20q0 51 5.5 81.5t13.5 49.5t18 30.5t18 25t13.5 33t5.5 53.5v64q0 26 -11 46t-40 20q-33 0 -42.5 -18.5t-9.5 -47.5v-72h-63v72q0 27 4.5 49.5t17.5 39t35.5 25.5t57.5 9t57 -9t35 -25.5t17.5 -39t4.5 -49.5v-62q0 -44 -6.5 -70t-16 -42.5t-21 -29t-22 -30.5
t-18 -46.5t-8.5 -76.5h-45zM199 77v-77h-72v77h72z" />
    <glyph glyph-name="questiondown" unicode="&#xbf;" horiz-adv-x="329" 
d="M186 270v-20q0 -51 -5.5 -82t-13.5 -50t-18 -30.5t-18 -25t-13.5 -32.5t-5.5 -53v-64q0 -26 11.5 -46t40.5 -20q33 0 42 18.5t9 47.5v72h63v-72q0 -27 -4.5 -49.5t-17 -39t-35 -25.5t-57.5 -9t-57.5 9t-35.5 25.5t-17.5 39t-4.5 49.5v62q0 44 6.5 69.5t16.5 42.5
t21.5 29.5t22 30.5t17.5 46.5t9 76.5h44zM128 423v77h72v-77h-72z" />
    <glyph glyph-name="period" unicode="." horiz-adv-x="147" 
d="M106 77v-77h-67v77h67z" />
    <glyph glyph-name="ellipsis" unicode="&#x2026;" horiz-adv-x="445" 
d="M116 77v-77h-67v77h67zM255 77v-77h-67v77h67zM394 77v-77h-67v77h67z" />
    <glyph glyph-name="comma" unicode="," horiz-adv-x="145" 
d="M109 77l-32 -165h-38v165h70z" />
    <glyph glyph-name="colon" unicode=":" horiz-adv-x="167" 
d="M116 392v-77h-67v77h67zM116 77v-77h-67v77h67z" />
    <glyph glyph-name="semicolon" unicode=";" horiz-adv-x="165" 
d="M116 392v-77h-67v77h67zM119 77l-32 -165h-38v165h70z" />
    <glyph glyph-name="hyphen" unicode="-" horiz-adv-x="250" 
d="M39 303h170v-46h-170v46z" />
    <glyph glyph-name="uni00AD" unicode="&#xad;" horiz-adv-x="250" 
d="M39 303h170v-46h-170v46z" />
    <glyph glyph-name="endash" unicode="&#x2013;" horiz-adv-x="350" 
d="M39 303h270v-46h-270v46z" />
    <glyph glyph-name="emdash" unicode="&#x2014;" horiz-adv-x="510" 
d="M39 297h430v-34h-430v34z" />
    <glyph glyph-name="periodcentered" unicode="&#xb7;" horiz-adv-x="167" 
d="M116 318v-77h-67v77h67z" />
    <glyph glyph-name="underscore" unicode="_" horiz-adv-x="370" 
d="M49 53h270v-53h-270v53z" />
    <glyph glyph-name="quotesingle" unicode="'" horiz-adv-x="142" 
d="M106 710l-16 -203h-39l-17 203h72z" />
    <glyph glyph-name="quotedbl" unicode="&#x22;" horiz-adv-x="265" 
d="M111 710l-16 -203h-39l-17 203h72zM225 710l-17 -203h-39l-16 203h72z" />
    <glyph glyph-name="quoteleft" unicode="&#x2018;" horiz-adv-x="148" 
d="M108 710v-203h-36l-35 203h71z" />
    <glyph glyph-name="quoteright" unicode="&#x2019;" horiz-adv-x="145" 
d="M110 710l-35 -203h-36v203h71z" />
    <glyph glyph-name="quotesinglbase" unicode="&#x201a;" horiz-adv-x="168" 
d="M120 106l-35 -203h-36v203h71z" />
    <glyph glyph-name="quotedblleft" unicode="&#x201c;" horiz-adv-x="260" 
d="M110 710v-203h-36l-35 203h71zM219 710v-203h-36l-34 203h70z" />
    <glyph glyph-name="quotedblright" unicode="&#x201d;" horiz-adv-x="260" 
d="M219 710l-34 -203h-36v203h70zM110 710l-35 -203h-36v203h71z" />
    <glyph glyph-name="quotedblbase" unicode="&#x201e;" horiz-adv-x="276" 
d="M227 106l-34 -203h-36v203h70zM118 106l-35 -203h-36v203h71z" />
    <glyph glyph-name="guillemotleft" unicode="&#xab;" horiz-adv-x="389" 
d="M145 435h61l-105 -185l105 -185h-61l-106 185zM288 435h60l-104 -185l104 -185h-60l-106 185z" />
    <glyph glyph-name="guillemotright" unicode="&#xbb;" horiz-adv-x="389" 
d="M348 250l-106 -185h-60l104 185l-104 185h60zM206 250l-106 -185h-61l105 185l-105 185h61z" />
    <glyph glyph-name="guilsinglleft" unicode="&#x2039;" horiz-adv-x="246" 
d="M145 435h61l-105 -185l105 -185h-61l-106 185z" />
    <glyph glyph-name="guilsinglright" unicode="&#x203a;" horiz-adv-x="246" 
d="M206 250l-106 -185h-61l105 185l-105 185h61z" />
    <glyph glyph-name="ampersand" unicode="&#x26;" horiz-adv-x="392" 
d="M352 325h-57v-214q0 -25 15 -39t41 -14v-58q-64 0 -86 40q-11 -24 -32.5 -37t-58.5 -13q-66 0 -90.5 31.5t-24.5 87.5v143q0 38 12 64t44 38q-32 12 -44 37.5t-12 63.5v132q0 27 5.5 49.5t19 39t36 25.5t57.5 9q66 0 91.5 -34.5t25.5 -88.5v-77h-62v77q0 27 -12.5 46.5
t-42.5 19.5q-32 0 -43.5 -18.5t-11.5 -47.5v-143q0 -27 13 -44.5t45 -17.5h172v-57zM177 46q18 0 29 6.5t17 17.5t7.5 25.5t1.5 31.5v198h-52q-21 0 -32.5 -6t-17 -17t-7 -26t-1.5 -32v-119q0 -16 1.5 -30t7.5 -25t17 -17.5t29 -6.5z" />
    <glyph glyph-name="at" unicode="@" horiz-adv-x="523" 
d="M261 -110q-62 0 -103 18.5t-65 50.5t-34 74.5t-10 90.5v251q0 49 10 91.5t34.5 74.5t65.5 50.5t102 18.5t101.5 -18.5t65 -50.5t34.5 -74.5t10 -91.5v-251q0 -48 -10 -90.5t-34 -74.5t-64.5 -50.5t-102.5 -18.5zM261 -69q51 0 83.5 15.5t51 42t26 61.5t7.5 74v251
q0 39 -7.5 74t-26.5 62t-51.5 42.5t-82.5 15.5q-51 0 -83.5 -15.5t-51 -42.5t-26 -62t-7.5 -74v-251q0 -39 7 -74t26 -61.5t51.5 -42t83.5 -15.5zM168 191q0 24 6.5 42t21.5 32.5t41 26t65 22.5v57q0 23 -10.5 36.5t-30.5 13.5q-24 0 -33 -13.5t-9 -36.5v-22h-47v23
q0 41 19 65.5t70 24.5q26 0 43 -6.5t27 -18.5t14 -29t4 -37v-324h-34q-2 7 -5.5 12.5t-5.5 12.5q-16 -34 -58 -34q-44 0 -61 23.5t-17 67.5v62zM302 278q-28 -9 -45 -18t-26.5 -20.5t-12.5 -26t-3 -33.5v-51q0 -23 10.5 -37t34.5 -14q23 0 32.5 15.5t9.5 36.5v148z" />
    <glyph glyph-name="at.case" horiz-adv-x="523" 
d="M261 -20q-62 0 -103 18.5t-65 50.5t-34 74.5t-10 90.5v271q0 49 10 91.5t34.5 74.5t65.5 50.5t102 18.5t101.5 -18.5t65 -50.5t34.5 -74.5t10 -91.5v-271q0 -48 -10 -90.5t-34 -74.5t-64.5 -50.5t-102.5 -18.5zM261 21q51 0 83.5 15.5t51 42t26 61.5t7.5 74v271
q0 39 -7.5 74t-26.5 62t-51.5 42.5t-82.5 15.5q-51 0 -83.5 -15.5t-51 -42.5t-26 -62t-7.5 -74v-271q0 -39 7 -74t26 -61.5t51.5 -42t83.5 -15.5zM168 291q0 24 6.5 42t21.5 32.5t41 26t65 22.5v57q0 23 -10.5 36.5t-30.5 13.5q-24 0 -33 -13.5t-9 -36.5v-22h-47v23
q0 41 19 65.5t70 24.5q26 0 43 -6.5t27 -18.5t14 -29t4 -37v-324h-34q-2 7 -5.5 12.5t-5.5 12.5q-16 -34 -58 -34q-44 0 -61 23.5t-17 67.5v62zM302 378q-28 -9 -45 -18t-26.5 -20.5t-12.5 -26t-3 -33.5v-51q0 -23 10.5 -37t34.5 -14q23 0 32.5 15.5t9.5 36.5v148z" />
    <glyph glyph-name="mu" unicode="&#xb5;" horiz-adv-x="323" 
d="M109 500v-395q0 -29 12 -46t41 -17q28 0 39 17t11 46v395h60v-395q0 -58 -21.5 -86.5t-74.5 -28.5q-22 0 -39.5 9.5t-27.5 26.5v-186h-60v660h60z" />
    <glyph glyph-name="mu" unicode="&#x3bc;" horiz-adv-x="323" 
d="M109 500v-395q0 -29 12 -46t41 -17q28 0 39 17t11 46v395h60v-395q0 -58 -21.5 -86.5t-74.5 -28.5q-22 0 -39.5 9.5t-27.5 26.5v-186h-60v660h60z" />
    <glyph glyph-name="section" unicode="&#xa7;" horiz-adv-x="329" 
d="M279 259q0 -22 -1.5 -43.5t-7.5 -40.5t-17 -34t-30 -24q23 -17 39 -46.5t16 -87.5v-30q0 -27 -5.5 -49.5t-18.5 -39t-35 -25.5t-55 -9q-34 0 -56 9t-35 25.5t-18.5 39t-5.5 49.5v67h63v-67q0 -32 10.5 -49t41.5 -17q32 0 41.5 17t9.5 49v32q0 41 -12.5 63t-30.5 36
t-40 25t-40 31t-30.5 54t-12.5 94q0 21 2 41t8 38t16.5 32t28.5 23q-23 16 -39 46t-16 89v30q0 27 5.5 49.5t18.5 39t35 25.5t56 9t56 -9t35 -25.5t18 -39t5 -49.5v-67h-63v67q0 29 -9.5 47.5t-41.5 18.5t-42 -18.5t-10 -47.5v-32q0 -42 12.5 -64t31 -36t40 -24.5t40 -29.5
t31 -51.5t12.5 -90.5zM215 238q0 37 -4 62t-12 41.5t-19 27.5t-26 20q-15 -5 -23.5 -16t-12.5 -24.5t-5 -29t-1 -28.5q0 -34 4.5 -57.5t12.5 -39.5t19 -26.5t25 -19.5q14 4 22 14t12.5 22.5t6 26.5t1.5 27z" />
    <glyph glyph-name="paragraph" unicode="&#xb6;" horiz-adv-x="363" 
d="M303 -160h-63v350h-69q-36 0 -59.5 8.5t-37.5 24t-19.5 37.5t-5.5 49v270q0 27 5 49.5t18.5 38t37 24.5t59.5 9h134v-860z" />
    <glyph glyph-name="bullet" unicode="&#x2022;" horiz-adv-x="250" 
d="M39 283q0 35 25 60t60 25t60 -25t25 -60t-25 -60t-60 -25t-60 25t-25 60z" />
    <glyph glyph-name="copyright" unicode="&#xa9;" horiz-adv-x="529" 
d="M264 178q24 0 33 13.5t9 36.5v63h46v-64q0 -41 -18 -65.5t-70 -24.5t-70 25t-18 66v243q0 41 18 66t70 25t70 -24.5t18 -65.5v-53h-46v52q0 23 -9 36.5t-33 13.5q-25 0 -33 -13.5t-8 -36.5v-243q0 -23 8 -36.5t33 -13.5zM264 -10q-63 0 -104.5 18.5t-66 50.5t-34.5 74.5
t-10 90.5v251q0 49 10.5 91.5t35 74.5t66 50.5t103.5 18.5t103 -18.5t66 -50.5t35 -74.5t10 -91.5v-251q0 -48 -10 -90.5t-34 -74.5t-65.5 -50.5t-104.5 -18.5zM264 30q51 0 84.5 15.5t52.5 42.5t26.5 62t7.5 74v251q0 39 -7.5 74t-27 62t-52.5 42.5t-84 15.5t-84.5 -15.5
t-52.5 -42.5t-26.5 -62t-7.5 -74v-251q0 -39 7.5 -74t26.5 -62t52 -42.5t85 -15.5z" />
    <glyph glyph-name="registered" unicode="&#xae;" horiz-adv-x="529" 
d="M264 -10q-63 0 -104.5 18.5t-66 50.5t-34.5 74.5t-10 90.5v251q0 49 10.5 91.5t35 74.5t66 50.5t103.5 18.5t103 -18.5t66 -50.5t35 -74.5t10 -91.5v-251q0 -48 -10 -90.5t-34 -74.5t-65.5 -50.5t-104.5 -18.5zM264 30q51 0 84.5 15.5t52.5 42.5t26.5 62t7.5 74v251
q0 39 -7.5 74t-27 62t-52.5 42.5t-84 15.5t-84.5 -15.5t-52.5 -42.5t-26.5 -62t-7.5 -74v-251q0 -39 7.5 -74t26.5 -62t52 -42.5t85 -15.5zM178 556h85q54 0 72 -25t18 -65v-65q0 -71 -58 -83l76 -172h-49l-71 168h-27v-168h-46v410zM262 357q27 0 36 11.5t9 32.5v65
q0 20 -10 32.5t-35 12.5h-38v-154h38z" />
    <glyph glyph-name="trademark" unicode="&#x2122;" horiz-adv-x="344" 
d="M101 500h-24v177h-38v23h99v-23h-37v-177zM223 544l-33 100v-144h-24v200h25l39 -116l39 116h25v-200h-23v144l-33 -100h-15z" />
    <glyph glyph-name="asterisk" unicode="*" horiz-adv-x="344" 
d="M139 710h64l-22 -127l113 60l19 -60l-127 -18l93 -89l-52 -38l-28 58l-28 58l-28 -58l-28 -58l-52 38l93 89l-127 18l19 60l114 -60z" />
    <glyph glyph-name="dagger" unicode="&#x2020;" horiz-adv-x="238" 
d="M39 612h62v98h34v-98h62v-32h-62v-232h-34v232h-62v32z" />
    <glyph glyph-name="daggerdbl" unicode="&#x2021;" horiz-adv-x="238" 
d="M39 477h62v104h-62v31h62v98h34v-98h62v-31h-62v-104h62v-32h-62v-97h-34v97h-62v32z" />
    <glyph glyph-name="asciicircum" unicode="^" horiz-adv-x="236" 
d="M195 510h-40l-38 143l-37 -143h-41l58 200h40z" />
    <glyph glyph-name="asciitilde" unicode="~" horiz-adv-x="313" 
d="M194 621q-20 0 -31.5 7t-20.5 16t-18 16t-22 7q-17 0 -21.5 -10t-4.5 -26h-35q0 40 13 59.5t46 19.5q19 0 31 -7t21 -16t18 -16t23 -7q16 0 21 10t5 26h34q0 -41 -13 -60t-46 -19z" />
    <glyph glyph-name="ordfeminine" unicode="&#xaa;" horiz-adv-x="279" 
d="M49 440q0 24 6 42t21.5 32.5t41 26t64.5 22.5v56q0 22 -9 36t-32 14q-24 0 -33 -13t-9 -36v-22h-46v22q0 41 18 65.5t70 24.5q27 0 44 -6.5t27 -18.5t13.5 -29t3.5 -37v-323h-34q-2 6 -5.5 12t-5.5 12q-8 -16 -22 -25t-36 -9q-44 0 -60.5 23.5t-16.5 68.5v62zM182 526
q-27 -8 -44 -17.5t-26.5 -20.5t-12.5 -25.5t-3 -33.5v-51q0 -23 10 -37.5t34 -14.5q23 0 32.5 15.5t9.5 36.5v148zM54 195v39h175v-39h-175z" />
    <glyph glyph-name="ordmasculine" unicode="&#xba;" horiz-adv-x="276" 
d="M137 710q27 0 44 -7t27 -19t13.5 -29t3.5 -37v-241q0 -20 -3.5 -37t-13.5 -29t-27 -19t-44 -7t-44 7t-27 19t-13.5 29t-3.5 37v241q0 20 3.5 37t13.5 29t27 19t44 7zM137 326q25 0 33.5 14t8.5 37v241q0 23 -8.5 37t-33.5 14t-33 -14t-8 -37v-241q0 -23 8 -37t33 -14z
M49 195v39h176v-39h-176z" />
    <glyph glyph-name="slash" unicode="/" horiz-adv-x="268" 
d="M189 730h48l-160 -760h-48z" />
    <glyph glyph-name="backslash" unicode="\" horiz-adv-x="268" 
d="M237 -30h-48l-160 760h48z" />
    <glyph glyph-name="bar" unicode="|" horiz-adv-x="188" 
d="M69 730h48v-850h-48v850z" />
    <glyph glyph-name="brokenbar" unicode="&#xa6;" horiz-adv-x="188" 
d="M69 258h48v-378h-48v378zM69 730h48v-378h-48v378z" />
    <glyph glyph-name="parenleft" unicode="(" horiz-adv-x="240" 
d="M144 -30q-45 92 -70 186.5t-25 192.5q0 100 25.5 195t69.5 186h46q-40 -95 -63.5 -189.5t-23.5 -191.5q0 -94 23 -188.5t64 -190.5h-46z" />
    <glyph glyph-name="parenright" unicode=")" horiz-adv-x="240" 
d="M49 -30q41 96 64 190.5t23 188.5q0 97 -23.5 191.5t-63.5 189.5h46q44 -91 69.5 -186t25.5 -195q0 -98 -25 -192.5t-70 -186.5h-46z" />
    <glyph glyph-name="bracketleft" unicode="[" horiz-adv-x="246" 
d="M69 730h126v-46h-73v-758h73v-46h-126v850z" />
    <glyph glyph-name="bracketright" unicode="]" horiz-adv-x="246" 
d="M175 -120h-126v46h74v758h-74v46h126v-850z" />
    <glyph glyph-name="braceleft" unicode="{" horiz-adv-x="274" 
d="M130 238q0 22 -10.5 33t-36.5 11h-34v46h34q26 0 36.5 11t10.5 32q0 40 -8 73t-17.5 63t-17.5 60.5t-8 67.5q0 51 29.5 73t92.5 22h23v-46h-23q-38 0 -53 -13.5t-15 -46.5q0 -32 6.5 -62t14.5 -60.5t14.5 -62t6.5 -65.5q0 -55 -37 -69q37 -17 37 -70q0 -35 -6.5 -66
t-14.5 -61.5t-14.5 -60.5t-6.5 -62q0 -33 15 -46t53 -13h23v-46h-23q-63 0 -92.5 22t-29.5 73q0 37 8 67.5t17.5 60.5t17.5 62t8 73z" />
    <glyph glyph-name="braceright" unicode="}" horiz-adv-x="274" 
d="M143 238q0 -41 8 -73t17.5 -62t17.5 -60.5t8 -67.5q0 -51 -29.5 -73t-92.5 -22h-23v46h23q38 0 53 13t15 46q0 32 -6.5 62t-14.5 60.5t-14.5 61.5t-6.5 66q0 53 37 70q-37 14 -37 69q0 34 6.5 65.5t14.5 62t14.5 60.5t6.5 62q0 33 -15 46.5t-53 13.5h-23v46h23
q63 0 92.5 -22t29.5 -73q0 -37 -8 -67.5t-17.5 -60.5t-17.5 -63t-8 -73q0 -21 10.5 -32t36.5 -11h34v-46h-34q-26 0 -36.5 -11t-10.5 -33z" />
    <glyph glyph-name="less" unicode="&#x3c;" horiz-adv-x="291" 
d="M39 350l160 380h51l-160 -380l160 -380h-51z" />
    <glyph glyph-name="greater" unicode="&#x3e;" horiz-adv-x="291" 
d="M90 -30h-51l160 380l-160 380h51l160 -380z" />
    <glyph glyph-name="dollar" unicode="$" horiz-adv-x="335" 
d="M59 504q0 48 19 79t69 36v81h41v-81q50 -5 68 -36t18 -79v-51h-58v52q0 34 -12.5 48.5t-36.5 14.5q-26 0 -37.5 -15t-11.5 -48v-20q0 -31 11.5 -49.5t29 -31t37.5 -23t37.5 -25.5t29 -38t11.5 -60v-42q0 -48 -18 -79t-68 -36v-101h-41v101q-52 5 -70 35.5t-18 79.5v62h59
v-53q0 -40 9 -56.5t40 -16.5q26 0 37.5 15t11.5 48v41q0 30 -11.5 48t-29 30.5t-38 23t-38 26t-29 39t-11.5 62.5v19z" />
    <glyph glyph-name="cent" unicode="&#xa2;" horiz-adv-x="341" 
d="M281 282v-66q0 -49 -19 -80t-71 -36v-100h-41v100q-53 5 -72 36t-19 80v287q0 48 19 79.5t72 36.5v81h41v-81q52 -5 71 -36.5t19 -79.5v-55h-59v55q0 32 -11 48.5t-40 16.5t-40.5 -16.5t-11.5 -48.5v-287q0 -31 11.5 -47.5t40.5 -16.5t40 16.5t11 47.5v66h59z" />
    <glyph glyph-name="sterling" unicode="&#xa3;" horiz-adv-x="382" 
d="M40 372h58v215q0 27 5 49.5t18.5 39t36.5 25.5t58 9q33 0 55.5 -9t35.5 -25.5t18.5 -39t5.5 -49.5v-77h-61v77q0 29 -10.5 47.5t-43.5 18.5t-44 -18.5t-11 -47.5v-215h77v-37h-77v-213q0 -29 12.5 -45.5t45.5 -16.5h113v-60h-113q-68 0 -91 44q-11 -22 -32.5 -33
t-56.5 -11v60q33 0 46 16.5t13 45.5v213h-58v37z" />
    <glyph glyph-name="Euro" unicode="&#x20ac;" horiz-adv-x="374" 
d="M79 427v160q0 27 5.5 49.5t19 39t36 25.5t57.5 9q66 0 91.5 -34.5t25.5 -88.5v-77h-62v77q0 28 -11.5 47t-43.5 19t-43.5 -18.5t-11.5 -47.5v-160h111q-2 -10 -4 -19l-4 -18h-103v-72h87q-2 -10 -4 -19l-4 -18h-79v-169q0 -28 11.5 -47t43.5 -19t43.5 18.5t11.5 47.5v88
h62v-88q0 -54 -25.5 -88t-91.5 -34q-35 0 -57.5 9t-36 25t-19 38.5t-5.5 49.5v169h-50v37h50v72h-50v37h50z" />
    <glyph glyph-name="yen" unicode="&#xa5;" horiz-adv-x="337" 
d="M136 268v21q-25 103 -49 205.5t-48 205.5h66l62 -325l63 325h66l-97 -411v-21h82v-37h-82v-70h82v-37h-82v-124h-63v124h-80v37h80v70h-80v37h80z" />
    <glyph glyph-name="numbersign" unicode="#" horiz-adv-x="350" 
d="M310 517h-56l-10 -184h56v-36h-58l-8 -147h-39l8 147h-70l-8 -147h-39l8 147h-54v36h56l10 184h-56v36h58l8 147h39l-8 -147h70l8 147h39l-8 -147h54v-36zM135 333h70l10 184h-70z" />
    <glyph glyph-name="percent" unicode="%" horiz-adv-x="451" 
d="M101 0h-44l293 700h44zM130 435q-47 0 -63.5 25.5t-16.5 78.5v67q0 53 16.5 78.5t63.5 25.5t63.5 -25.5t16.5 -78.5v-67q0 -53 -16.5 -78.5t-63.5 -25.5zM321 -10q-47 0 -63.5 25.5t-16.5 78.5v67q0 53 16.5 78.5t63.5 25.5t63.5 -25.5t16.5 -78.5v-67q0 -53 -16.5 -78.5
t-63.5 -25.5zM130 671q-22 0 -29.5 -13.5t-7.5 -50.5v-69q0 -37 7.5 -50.5t29.5 -13.5t29.5 13.5t7.5 50.5v69q0 37 -7.5 50.5t-29.5 13.5zM321 226q-22 0 -29.5 -13.5t-7.5 -50.5v-69q0 -37 7.5 -50.5t29.5 -13.5t29.5 13.5t7.5 50.5v69q0 37 -7.5 50.5t-29.5 13.5z" />
    <glyph glyph-name="perthousand" unicode="&#x2030;" horiz-adv-x="573" 
d="M130 435q-47 0 -63.5 25.5t-16.5 78.5v67q0 53 16.5 78.5t63.5 25.5t63.5 -25.5t16.5 -78.5v-67q0 -53 -16.5 -78.5t-63.5 -25.5zM320 -10q-47 0 -63 25.5t-16 78.5v67q0 53 16 78.5t63 25.5q45 0 63 -31q16 31 63 31t63 -25.5t16 -78.5v-67q0 -53 -16 -78.5t-63 -25.5
t-63 31q-18 -31 -63 -31zM130 671q-22 0 -29.5 -13.5t-7.5 -50.5v-69q0 -37 7.5 -50.5t29.5 -13.5t29.5 13.5t7.5 50.5v69q0 37 -7.5 50.5t-29.5 13.5zM321 226q-22 0 -29.5 -13.5t-7.5 -50.5v-69q0 -37 7.5 -50.5t29.5 -13.5t29.5 13.5t7.5 50.5v69q0 37 -7.5 50.5
t-29.5 13.5zM445 226q-22 0 -29.5 -13.5t-7.5 -50.5v-69q0 -37 7.5 -50.5t29.5 -13.5t29.5 13.5t7.5 50.5v69q0 37 -7.5 50.5t-29.5 13.5zM101 0h-44l293 700h44z" />
    <glyph glyph-name="florin" unicode="&#x192;" horiz-adv-x="229" 
d="M68 449h-45v51h45v101q0 30 4.5 52t16.5 37t33 22.5t53 7.5q22 0 39 -6v-53q-14 7 -38 7q-28 0 -38 -14t-10 -46v-108h73v-51h-73v-461q0 -30 -4.5 -52.5t-16.5 -37.5t-32.5 -22.5t-52.5 -7.5q-22 0 -38 6v52q15 -6 36 -6q28 0 38 13.5t10 45.5v470z" />
    <glyph glyph-name="currency" unicode="&#xa4;" horiz-adv-x="314" 
d="M167 538q-29 0 -40 -16.5t-11 -48.5v-227q0 -31 11 -47.5t40 -16.5t40.5 16.5t11.5 47.5v227q0 32 -11.5 48.5t-40.5 16.5zM130 585q18 5 37 5q20 0 37 -5l32 115h59l-41 -140q14 -16 19.5 -38t5.5 -49v-227q0 -27 -5 -49t-19 -37l47 -160h-59l-37 135q-17 -5 -39 -5
q-21 0 -38 5l-36 -135h-59l46 160q-14 15 -19 37t-5 49v227q0 27 5.5 49t19.5 38l-40 140h59z" />
    <glyph glyph-name="plus" unicode="+" horiz-adv-x="382" 
d="M49 303h118v122h47v-122h118v-46h-118v-122h-47v122h-118v46z" />
    <glyph glyph-name="minus" unicode="&#x2212;" horiz-adv-x="360" 
d="M309 303v-46h-260v46h260z" />
    <glyph glyph-name="equal" unicode="=" horiz-adv-x="360" 
d="M49 181v46h260v-46h-260zM49 333v46h260v-46h-260z" />
    <glyph glyph-name="notequal" unicode="&#x2260;" horiz-adv-x="360" 
d="M215 333l-32 -106h126v-46h-140l-41 -135h-40l40 135h-79v46h93l33 106h-126v46h140q10 34 20.5 67.5t20.5 67.5h41l-42 -135h80v-46h-94z" />
    <glyph glyph-name="approxequal" unicode="&#x2248;" horiz-adv-x="360" 
d="M49 371q11 11 28.5 18.5t36.5 7.5q24 0 38 -6t26.5 -13t27 -13t38.5 -6q19 0 36.5 8.5t28.5 19.5v-46q-11 -11 -28.5 -19.5t-36.5 -8.5q-24 0 -38.5 6t-27 13t-26.5 13t-38 6q-19 0 -36.5 -7.5t-28.5 -18.5v46zM49 219q11 11 28.5 18.5t36.5 7.5q24 0 38 -6t26.5 -13
t27 -13t38.5 -6q19 0 36.5 8.5t28.5 19.5v-46q-11 -11 -28.5 -19.5t-36.5 -8.5q-24 0 -38.5 6t-27 13t-26.5 13t-38 6q-19 0 -36.5 -7.5t-28.5 -18.5v46z" />
    <glyph glyph-name="multiply" unicode="&#xd7;" horiz-adv-x="359" 
d="M308 377l-98 -97l98 -98l-32 -32l-97 98l-98 -98l-32 32l98 98l-98 97l32 32l98 -98l97 98z" />
    <glyph glyph-name="divide" unicode="&#xf7;" horiz-adv-x="390" 
d="M339 303v-46h-290v46h290zM228 193v-77h-67v77h67zM228 443v-77h-67v77h67z" />
    <glyph glyph-name="degree" unicode="&#xb0;" horiz-adv-x="246" 
d="M122 494q-50 0 -66.5 30t-16.5 78t16.5 78t66.5 30t66.5 -30t16.5 -78t-16.5 -78t-66.5 -30zM122 532q26 0 34.5 19t8.5 51q0 31 -8.5 50t-34.5 19t-34 -19t-8 -50q0 -32 8 -51t34 -19z" />
    <glyph glyph-name="plusminus" unicode="&#xb1;" horiz-adv-x="382" 
d="M332 136v-46h-283v46h283zM49 361h118v122h47v-122h118v-46h-118v-122h-47v122h-118v46z" />
    <glyph glyph-name="logicalnot" unicode="&#xac;" horiz-adv-x="360" 
d="M309 364v-168h-46v122h-214v46h260z" />
    <glyph glyph-name="lessequal" unicode="&#x2264;" horiz-adv-x="268" 
d="M218 136v-46h-171v46h171zM159 483h57l-120 -145l120 -145h-57l-120 145z" />
    <glyph glyph-name="greaterequal" unicode="&#x2265;" horiz-adv-x="268" 
d="M220 136v-46h-171v46h171zM228 338l-120 -145h-57l120 145l-120 145h57z" />
    <glyph glyph-name="integral" unicode="&#x222b;" horiz-adv-x="230" 
d="M124 1q0 -27 -4.5 -47.5t-16.5 -35t-32.5 -21.5t-52.5 -7q-10 0 -20.5 1.5t-18.5 4.5v52q15 -6 37 -6q28 0 38 13.5t10 45.5v607q0 27 4.5 48t16.5 35t33 21.5t53 7.5q22 0 39 -6v-53q-14 7 -38 7q-28 0 -38 -13.5t-10 -46.5v-607z" />
    <glyph glyph-name="pi" unicode="&#x3c0;" horiz-adv-x="342" 
d="M317 448h-42v-448h-60v448h-89v-448h-60v448h-42v52h293v-52z" />
    <glyph glyph-name="partialdiff" unicode="&#x2202;" 
d="M216 479q-4 64 -30 123.5t-74 107.5h67q46 -51 71 -117.5t25 -138.5v-342q0 -56 -23.5 -89t-87.5 -33q-63 0 -87.5 32.5t-24.5 89.5v281q0 57 22 87t75 30q17 0 35.5 -7.5t31.5 -23.5zM163 457q-33 0 -42 -24t-9 -59v-263q0 -31 12 -49t40 -18q29 0 40 18.5t11 48.5v297
q-4 20 -18 34.5t-34 14.5z" />
    <glyph glyph-name="acute" unicode="&#xb4;" horiz-adv-x="177" 
d="M136 677l-54 -127h-43l38 127h59z" />
    <glyph glyph-name="grave" unicode="`" horiz-adv-x="177" 
d="M99 677l37 -127h-42l-55 127h60z" />
    <glyph glyph-name="circumflex" unicode="&#x2c6;" horiz-adv-x="242" 
d="M146 677l56 -127h-44l-38 74l-37 -74h-44l55 127h52z" />
    <glyph glyph-name="dieresis" unicode="&#xa8;" horiz-adv-x="249" 
d="M100 659v-74h-61v74h61zM208 659v-74h-61v74h61z" />
    <glyph glyph-name="tilde" unicode="&#x2dc;" horiz-adv-x="301" 
d="M198 560q-19 0 -31 6.5t-21 14.5t-18.5 14.5t-22.5 6.5q-16 0 -22 -8t-6 -24h-38q0 40 13 60.5t50 20.5q19 0 30.5 -6.5t21 -14.5t18.5 -14.5t23 -6.5q16 0 22 8t6 24h38q0 -41 -14 -61t-49 -20z" />
    <glyph glyph-name="caron" unicode="&#x2c7;" horiz-adv-x="242" 
d="M94 550l-55 127h44l37 -74l38 74h44l-56 -127h-52z" />
    <glyph glyph-name="caron.salt" horiz-adv-x="133" 
d="M96 710l-24 -194h-33v194h57z" />
    <glyph glyph-name="ring" unicode="&#x2da;" horiz-adv-x="215" 
d="M175 622q0 -35 -16 -55t-52 -20t-52 20t-16 55t16 56t52 21t52 -21t16 -56zM136 622q0 20 -7 31.5t-22 11.5t-22 -11.5t-7 -31.5q0 -19 7 -30t22 -11t22 11t7 30z" />
    <glyph glyph-name="breve" unicode="&#x2d8;" horiz-adv-x="236" 
d="M196 658q0 -50 -18.5 -75.5t-60.5 -25.5t-60 25.5t-18 75.5h38q0 -28 9 -41.5t31 -13.5t31 13.5t9 41.5h39z" />
    <glyph glyph-name="macron" unicode="&#xaf;" horiz-adv-x="250" 
d="M39 639h170v-46h-170v46z" />
    <glyph glyph-name="dotaccent" unicode="&#x2d9;" horiz-adv-x="144" 
d="M101 659v-74h-61v74h61z" />
    <glyph glyph-name="hungarumlaut" unicode="&#x2dd;" horiz-adv-x="267" 
d="M121 677l-39 -127h-43l23 127h59zM226 677l-49 -127h-43l33 127h59z" />
    <glyph glyph-name="cedilla" unicode="&#xb8;" horiz-adv-x="214" 
d="M85 0h34l-10 -40q64 -9 64 -64q0 -30 -20 -48t-68 -18h-46l10 38h33q23 0 32 8t9 22q0 15 -9.5 23t-33.5 8h-14z" />
    <glyph glyph-name="ogonek" unicode="&#x2db;" horiz-adv-x="181" 
d="M138 -115v-55h-12q-43 0 -63.5 18t-20.5 50q0 31 16.5 57.5t41.5 44.5h38q-23 -18 -35 -39.5t-12 -43.5q0 -32 35 -32h12z" />
    <glyph glyph-name="commaaccent" horiz-adv-x="143" 
d="M102 -58l-26 -122h-37v122h63z" />
    <glyph glyph-name="acute.case" horiz-adv-x="177" 
d="M136 877l-54 -127h-43l38 127h59z" />
    <glyph glyph-name="grave.case" horiz-adv-x="177" 
d="M99 877l37 -127h-42l-55 127h60z" />
    <glyph glyph-name="circumflex.case" horiz-adv-x="242" 
d="M146 877l56 -127h-44l-38 74l-37 -74h-44l55 127h52z" />
    <glyph glyph-name="dieresis.case" horiz-adv-x="249" 
d="M100 824v-74h-61v74h61zM208 824v-74h-61v74h61z" />
    <glyph glyph-name="tilde.case" horiz-adv-x="301" 
d="M198 750q-19 0 -31 6.5t-21 14.5t-18.5 14.5t-22.5 6.5q-16 0 -22 -8t-6 -24h-38q0 40 13 60.5t50 20.5q19 0 30.5 -6.5t21 -14.5t18.5 -14.5t23 -6.5q16 0 22 8t6 24h38q0 -41 -14 -61t-49 -20z" />
    <glyph glyph-name="caron.case" horiz-adv-x="242" 
d="M94 750l-55 127h44l37 -74l38 74h44l-56 -127h-52z" />
    <glyph glyph-name="ring.case" horiz-adv-x="215" 
d="M175 808q0 -35 -16 -55t-52 -20t-52 20t-16 55t16 56t52 21t52 -21t16 -56zM136 808q0 20 -7 31.5t-22 11.5t-22 -11.5t-7 -31.5q0 -19 7 -30t22 -11t22 11t7 30z" />
    <glyph glyph-name="breve.case" horiz-adv-x="236" 
d="M196 836q0 -50 -18.5 -75.5t-60.5 -25.5t-60 25.5t-18 75.5h38q0 -28 9 -41.5t31 -13.5t31 13.5t9 41.5h39z" />
    <glyph glyph-name="macron.case" horiz-adv-x="250" 
d="M39 796h170v-46h-170v46z" />
    <glyph glyph-name="dotaccent.case" horiz-adv-x="144" 
d="M101 824v-74h-61v74h61z" />
    <glyph glyph-name="hungarumlaut.case" horiz-adv-x="267" 
d="M121 877l-39 -127h-43l23 127h59zM226 877l-49 -127h-43l33 127h59z" />
    <glyph glyph-name="Aacute" unicode="&#xc1;" horiz-adv-x="324" 
d="M296 0h-64l-19 160h-103l-19 -160h-64l96 700h78zM116 218h90l-44 386zM232 877l-54 -127h-43l38 127h59z" />
    <glyph glyph-name="Agrave" unicode="&#xc0;" horiz-adv-x="324" 
d="M296 0h-64l-19 160h-103l-19 -160h-64l96 700h78zM116 218h90l-44 386zM148 877l37 -127h-42l-55 127h60z" />
    <glyph glyph-name="Acircumflex" unicode="&#xc2;" horiz-adv-x="324" 
d="M296 0h-64l-19 160h-103l-19 -160h-64l96 700h78zM116 218h90l-44 386zM187 877l56 -127h-44l-38 74l-37 -74h-44l55 127h52z" />
    <glyph glyph-name="Adieresis" unicode="&#xc4;" horiz-adv-x="324" 
d="M296 0h-64l-19 160h-103l-19 -160h-64l96 700h78zM116 218h90l-44 386zM138 824v-74h-61v74h61zM246 824v-74h-61v74h61z" />
    <glyph glyph-name="Atilde" unicode="&#xc3;" horiz-adv-x="324" 
d="M296 0h-64l-19 160h-103l-19 -160h-64l96 700h78zM116 218h90l-44 386zM210 750q-19 0 -31 6.5t-21 14.5t-18.5 14.5t-22.5 6.5q-16 0 -22 -8t-6 -24h-38q0 40 13 60.5t50 20.5q19 0 30.5 -6.5t21 -14.5t18.5 -14.5t23 -6.5q16 0 22 8t6 24h38q0 -41 -14 -61t-49 -20z
" />
    <glyph glyph-name="Aring" unicode="&#xc5;" horiz-adv-x="324" 
d="M296 0h-64l-19 160h-103l-19 -160h-64l96 700h78zM116 218h90l-44 386zM230 808q0 -35 -16 -55t-52 -20t-52 20t-16 55t16 56t52 21t52 -21t16 -56zM191 808q0 20 -7 31.5t-22 11.5t-22 -11.5t-7 -31.5q0 -19 7 -30t22 -11t22 11t7 30z" />
    <glyph glyph-name="Amacron" unicode="&#x100;" horiz-adv-x="324" 
d="M296 0h-64l-19 160h-103l-19 -160h-64l96 700h78zM116 218h90l-44 386zM77 796h170v-46h-170v46z" />
    <glyph glyph-name="Abreve" unicode="&#x102;" horiz-adv-x="324" 
d="M296 0h-64l-19 160h-103l-19 -160h-64l96 700h78zM116 218h90l-44 386zM240 836q0 -50 -18.5 -75.5t-60.5 -25.5t-60 25.5t-18 75.5h38q0 -28 9 -41.5t31 -13.5t31 13.5t9 41.5h39z" />
    <glyph glyph-name="Aogonek" unicode="&#x104;" horiz-adv-x="324" 
d="M296 -115v-55h-12q-43 0 -63.5 18t-20.5 50q0 31 16.5 57.5t41.5 44.5h-26l-19 160h-103l-19 -160h-64l96 700h78l95 -700q-23 -18 -35 -39.5t-12 -43.5q0 -32 35 -32h12zM116 218h90l-44 386z" />
    <glyph glyph-name="AE" unicode="&#xc6;" horiz-adv-x="463" 
d="M288 60h136v-60h-199v160h-101l-36 -160h-64l165 700h235v-61h-136v-257h117v-58h-117v-264zM225 218v404l-89 -404h89z" />
    <glyph glyph-name="Bdotaccent" unicode="&#x1e02;" horiz-adv-x="353" 
d="M62 700h114q36 0 59 -7t36.5 -20.5t18.5 -34t5 -47.5v-147q0 -35 -12.5 -57t-41.5 -33q32 -11 45.5 -34t13.5 -58v-146q0 -27 -5 -48.5t-18 -36.5t-36 -23t-59 -8h-120v700zM178 60q35 0 47 14.5t12 43.5v146q0 27 -12.5 43.5t-46.5 16.5h-53v-264h53zM125 639v-257h49
q34 0 46.5 16.5t12.5 43.5v140q0 29 -12.5 43t-45.5 14h-50zM207 824v-74h-61v74h61z" />
    <glyph glyph-name="Cacute" unicode="&#x106;" horiz-adv-x="329" 
d="M226 200h61v-88q0 -54 -25.5 -88t-91.5 -34q-35 0 -57.5 9t-36 25t-19 38.5t-5.5 49.5v475q0 27 5.5 49.5t19 39t36 25.5t57.5 9q66 0 91.5 -34.5t25.5 -88.5v-77h-61v77q0 27 -13 46.5t-43 19.5q-32 0 -43.5 -18.5t-11.5 -47.5v-475q0 -27 12 -46.5t43 -19.5q32 0 44 19
t12 47v88zM213 877l-54 -127h-43l38 127h59z" />
    <glyph glyph-name="Ccircumflex" unicode="&#x108;" horiz-adv-x="329" 
d="M226 200h61v-88q0 -54 -25.5 -88t-91.5 -34q-35 0 -57.5 9t-36 25t-19 38.5t-5.5 49.5v475q0 27 5.5 49.5t19 39t36 25.5t57.5 9q66 0 91.5 -34.5t25.5 -88.5v-77h-61v77q0 27 -13 46.5t-43 19.5q-32 0 -43.5 -18.5t-11.5 -47.5v-475q0 -27 12 -46.5t43 -19.5q32 0 44 19
t12 47v88zM190 877l56 -127h-44l-38 74l-37 -74h-44l55 127h52z" />
    <glyph glyph-name="Ccaron" unicode="&#x10c;" horiz-adv-x="329" 
d="M226 200h61v-88q0 -54 -25.5 -88t-91.5 -34q-35 0 -57.5 9t-36 25t-19 38.5t-5.5 49.5v475q0 27 5.5 49.5t19 39t36 25.5t57.5 9q66 0 91.5 -34.5t25.5 -88.5v-77h-61v77q0 27 -13 46.5t-43 19.5q-32 0 -43.5 -18.5t-11.5 -47.5v-475q0 -27 12 -46.5t43 -19.5q32 0 44 19
t12 47v88zM138 750l-55 127h44l37 -74l38 74h44l-56 -127h-52z" />
    <glyph glyph-name="Ccedilla" unicode="&#xc7;" horiz-adv-x="330" 
d="M151 -9q-57 5 -78 37.5t-21 83.5v475q0 27 5.5 49.5t19 39t36 25.5t57.5 9q66 0 91.5 -34.5t25.5 -88.5v-77h-61v77q0 28 -12 47t-44 19t-43.5 -18.5t-11.5 -47.5v-475q0 -29 11.5 -47.5t43.5 -18.5t44 19t12 47v88h61v-88q0 -51 -22.5 -84t-79.5 -37l-7 -31
q64 -9 64 -64q0 -30 -20 -48t-68 -18h-46l10 38h33q23 0 32 8t9 22q0 15 -9.5 23t-33.5 8h-14z" />
    <glyph glyph-name="Cdotaccent" unicode="&#x10a;" horiz-adv-x="329" 
d="M226 200h61v-88q0 -54 -25.5 -88t-91.5 -34q-35 0 -57.5 9t-36 25t-19 38.5t-5.5 49.5v475q0 27 5.5 49.5t19 39t36 25.5t57.5 9q66 0 91.5 -34.5t25.5 -88.5v-77h-61v77q0 27 -13 46.5t-43 19.5q-32 0 -43.5 -18.5t-11.5 -47.5v-475q0 -27 12 -46.5t43 -19.5q32 0 44 19
t12 47v88zM195 824v-74h-61v74h61z" />
    <glyph glyph-name="Dcaron" unicode="&#x10e;" horiz-adv-x="358" 
d="M177 60q35 0 47.5 16t12.5 45v458q0 29 -12.5 44.5t-47.5 15.5h-52v-579h52zM62 700h116q36 0 59.5 -9t37.5 -24.5t19.5 -38t5.5 -49.5v-458q0 -27 -5.5 -49.5t-19 -38t-36.5 -24.5t-59 -9h-118v700zM152 750l-55 127h44l37 -74l38 74h44l-56 -127h-52z" />
    <glyph glyph-name="Ddotaccent" unicode="&#x1e0a;" horiz-adv-x="358" 
d="M177 60q35 0 47.5 16t12.5 45v458q0 29 -12.5 44.5t-47.5 15.5h-52v-579h52zM62 700h116q36 0 59.5 -9t37.5 -24.5t19.5 -38t5.5 -49.5v-458q0 -27 -5.5 -49.5t-19 -38t-36.5 -24.5t-59 -9h-118v700zM209 824v-74h-61v74h61z" />
    <glyph glyph-name="Dcroat" unicode="&#x110;" horiz-adv-x="357" 
d="M12 376h49v324h116q36 0 59.5 -9t37.5 -24.5t19.5 -38t5.5 -49.5v-458q0 -27 -5.5 -49.5t-19 -38t-36.5 -24.5t-59 -9h-118v331h-49v45zM176 60q24 0 36 7.5t17.5 21t6 32t0.5 40.5v386q0 21 -1.5 38t-7.5 29t-18 18.5t-33 6.5h-52v-263h51v-45h-51v-271h52z" />
    <glyph glyph-name="Eth" unicode="&#xd0;" horiz-adv-x="357" 
d="M12 376h49v324h116q36 0 59.5 -9t37.5 -24.5t19.5 -38t5.5 -49.5v-458q0 -27 -5.5 -49.5t-19 -38t-36.5 -24.5t-59 -9h-118v331h-49v45zM176 60q24 0 36 7.5t17.5 21t6 32t0.5 40.5v386q0 21 -1.5 38t-7.5 29t-18 18.5t-33 6.5h-52v-263h51v-45h-51v-271h52z" />
    <glyph glyph-name="Eacute" unicode="&#xc9;" horiz-adv-x="301" 
d="M125 60h136v-60h-199v700h199v-61h-136v-257h117v-58h-117v-264zM237 877l-54 -127h-43l38 127h59z" />
    <glyph glyph-name="Egrave" unicode="&#xc8;" horiz-adv-x="301" 
d="M125 60h136v-60h-199v700h199v-61h-136v-257h117v-58h-117v-264zM162 877l37 -127h-42l-55 127h60z" />
    <glyph glyph-name="Ecircumflex" unicode="&#xca;" horiz-adv-x="301" 
d="M125 60h136v-60h-199v700h199v-61h-136v-257h117v-58h-117v-264zM190 877l56 -127h-44l-38 74l-37 -74h-44l55 127h52z" />
    <glyph glyph-name="Edieresis" unicode="&#xcb;" horiz-adv-x="301" 
d="M125 60h136v-60h-199v700h199v-61h-136v-257h117v-58h-117v-264zM143 824v-74h-61v74h61zM251 824v-74h-61v74h61z" />
    <glyph glyph-name="Ecaron" unicode="&#x11a;" horiz-adv-x="301" 
d="M125 60h136v-60h-199v700h199v-61h-136v-257h117v-58h-117v-264zM139 750l-55 127h44l37 -74l38 74h44l-56 -127h-52z" />
    <glyph glyph-name="Emacron" unicode="&#x112;" horiz-adv-x="301" 
d="M125 60h136v-60h-199v700h199v-61h-136v-257h117v-58h-117v-264zM76 796h170v-46h-170v46z" />
    <glyph glyph-name="Ebreve" unicode="&#x114;" horiz-adv-x="301" 
d="M125 60h136v-60h-199v700h199v-61h-136v-257h117v-58h-117v-264zM241 836q0 -50 -18.5 -75.5t-60.5 -25.5t-60 25.5t-18 75.5h38q0 -28 9 -41.5t31 -13.5t31 13.5t9 41.5h39z" />
    <glyph glyph-name="Eogonek" unicode="&#x118;" horiz-adv-x="301" 
d="M261 -115v-55h-12q-43 0 -63.5 18t-20.5 50q0 31 16.5 57.5t41.5 44.5h-161v700h199v-61h-136v-257h117v-58h-117v-264h136v-60q-23 -18 -35 -39.5t-12 -43.5q0 -32 35 -32h12z" />
    <glyph glyph-name="Edotaccent" unicode="&#x116;" horiz-adv-x="301" 
d="M125 60h136v-60h-199v700h199v-61h-136v-257h117v-58h-117v-264zM197 824v-74h-61v74h61z" />
    <glyph glyph-name="Fdotaccent" unicode="&#x1e1e;" horiz-adv-x="288" 
d="M62 0v700h193v-61h-130v-257h112v-58h-112v-324h-63zM192 824v-74h-61v74h61z" />
    <glyph glyph-name="Gcircumflex" unicode="&#x11c;" horiz-adv-x="346" 
d="M175 382h118v-270q0 -27 -5.5 -49.5t-19 -38.5t-36.5 -25t-57 -9q-35 0 -57.5 9t-36 25t-19 38.5t-5.5 49.5v476q0 27 5.5 49.5t19 38.5t36 25t57.5 9q34 0 56.5 -9t36 -25t19 -38.5t5.5 -49.5v-78h-62v78q0 26 -12 45.5t-43 19.5q-32 0 -43.5 -18t-11.5 -47v-476
q0 -27 12 -46.5t43 -19.5q32 0 43.5 18.5t11.5 47.5v212h-55v58zM198 877l56 -127h-44l-38 74l-37 -74h-44l55 127h52z" />
    <glyph glyph-name="Gbreve" unicode="&#x11e;" horiz-adv-x="346" 
d="M175 382h118v-270q0 -27 -5.5 -49.5t-19 -38.5t-36.5 -25t-57 -9q-35 0 -57.5 9t-36 25t-19 38.5t-5.5 49.5v476q0 27 5.5 49.5t19 38.5t36 25t57.5 9q34 0 56.5 -9t36 -25t19 -38.5t5.5 -49.5v-78h-62v78q0 26 -12 45.5t-43 19.5q-32 0 -43.5 -18t-11.5 -47v-476
q0 -27 12 -46.5t43 -19.5q32 0 43.5 18.5t11.5 47.5v212h-55v58zM251 836q0 -50 -18.5 -75.5t-60.5 -25.5t-60 25.5t-18 75.5h38q0 -28 9 -41.5t31 -13.5t31 13.5t9 41.5h39z" />
    <glyph glyph-name="Gdotaccent" unicode="&#x120;" horiz-adv-x="346" 
d="M175 382h118v-270q0 -27 -5.5 -49.5t-19 -38.5t-36.5 -25t-57 -9q-35 0 -57.5 9t-36 25t-19 38.5t-5.5 49.5v476q0 27 5.5 49.5t19 38.5t36 25t57.5 9q34 0 56.5 -9t36 -25t19 -38.5t5.5 -49.5v-78h-62v78q0 26 -12 45.5t-43 19.5q-32 0 -43.5 -18t-11.5 -47v-476
q0 -27 12 -46.5t43 -19.5q32 0 43.5 18.5t11.5 47.5v212h-55v58zM206 824v-74h-61v74h61z" />
    <glyph glyph-name="Gcommaaccent" unicode="&#x122;" horiz-adv-x="346" 
d="M175 382h118v-270q0 -27 -5.5 -49.5t-19 -38.5t-36.5 -25t-57 -9q-35 0 -57.5 9t-36 25t-19 38.5t-5.5 49.5v476q0 27 5.5 49.5t19 38.5t36 25t57.5 9q34 0 56.5 -9t36 -25t19 -38.5t5.5 -49.5v-78h-62v78q0 26 -12 45.5t-43 19.5q-32 0 -43.5 -18t-11.5 -47v-476
q0 -27 12 -46.5t43 -19.5q32 0 43.5 18.5t11.5 47.5v212h-55v58zM203 -58l-26 -122h-37v122h63z" />
    <glyph glyph-name="Hcircumflex" unicode="&#x124;" horiz-adv-x="364" 
d="M125 0h-63v700h63v-318h113v318h63v-700h-63v324h-113v-324zM207 877l56 -127h-44l-38 74l-37 -74h-44l55 127h52z" />
    <glyph glyph-name="Hbar" unicode="&#x126;" horiz-adv-x="364" 
d="M26 556h36v144h63v-144h113v144h63v-144h36v-34h-36v-522h-63v324h-113v-324h-63v522h-36v34zM238 382v140h-113v-140h113z" />
    <glyph glyph-name="Iacute" unicode="&#xcd;" horiz-adv-x="188" 
d="M62 700h63v-700h-63v700zM170 877l-54 -127h-43l38 127h59z" />
    <glyph glyph-name="Igrave" unicode="&#xcc;" horiz-adv-x="188" 
d="M62 700h63v-700h-63v700zM75 877l37 -127h-42l-55 127h60z" />
    <glyph glyph-name="Icircumflex" unicode="&#xce;" horiz-adv-x="188" 
d="M62 700h63v-700h-63v700zM121 877l56 -127h-44l-38 74l-37 -74h-44l55 127h52z" />
    <glyph glyph-name="Idieresis" unicode="&#xcf;" horiz-adv-x="188" 
d="M62 700h63v-700h-63v700zM72 824v-74h-61v74h61zM180 824v-74h-61v74h61z" />
    <glyph glyph-name="Itilde" unicode="&#x128;" horiz-adv-x="188" 
d="M62 700h63v-700h-63v700zM143 750q-19 0 -31 6.5t-21 14.5t-18.5 14.5t-22.5 6.5q-16 0 -22 -8t-6 -24h-38q0 40 13 60.5t50 20.5q19 0 30.5 -6.5t21 -14.5t18.5 -14.5t23 -6.5q16 0 22 8t6 24h38q0 -41 -14 -61t-49 -20z" />
    <glyph glyph-name="Imacron" unicode="&#x12a;" horiz-adv-x="188" 
d="M62 700h63v-700h-63v700zM10 796h170v-46h-170v46z" />
    <glyph glyph-name="Ibreve" unicode="&#x12c;" horiz-adv-x="188" 
d="M62 700h63v-700h-63v700zM174 836q0 -50 -18.5 -75.5t-60.5 -25.5t-60 25.5t-18 75.5h38q0 -28 9 -41.5t31 -13.5t31 13.5t9 41.5h39z" />
    <glyph glyph-name="Idotaccent" unicode="&#x130;" horiz-adv-x="188" 
d="M62 700h63v-700h-63v700zM124 824v-74h-61v74h61z" />
    <glyph glyph-name="Iogonek" unicode="&#x12e;" horiz-adv-x="188" 
d="M62 700h63v-700q-23 -18 -35 -39.5t-12 -43.5q0 -32 35 -32h12v-55h-12q-43 0 -63.5 18t-20.5 50q0 31 16.5 57.5t41.5 44.5h-25v700z" />
    <glyph glyph-name="Jcircumflex" unicode="&#x134;" horiz-adv-x="322" 
d="M95 111q0 -27 10.5 -46t40.5 -19q31 0 40.5 18t9.5 47v589h63v-589q0 -27 -5 -49.5t-18 -38.5t-34.5 -24.5t-55.5 -8.5q-65 0 -89.5 33.5t-24.5 87.5v89h63v-89zM252 877l56 -127h-44l-38 74l-37 -74h-44l55 127h52z" />
    <glyph glyph-name="Kcommaaccent" unicode="&#x136;" horiz-adv-x="330" 
d="M125 380l116 320h70l-135 -347l141 -353h-69l-123 326v-326h-63v700h63v-320zM211 -58l-26 -122h-37v122h63z" />
    <glyph glyph-name="Lacute" unicode="&#x139;" horiz-adv-x="258" 
d="M62 700h63v-640h110v-60h-173v700zM166 877l-54 -127h-43l38 127h59z" />
    <glyph glyph-name="Lcaron" unicode="&#x13d;" horiz-adv-x="252" 
d="M62 700h63v-640h110v-60h-173v700zM212 710l-24 -194h-33v194h57z" />
    <glyph glyph-name="Lcommaaccent" unicode="&#x13b;" horiz-adv-x="252" 
d="M62 700h63v-640h110v-60h-173v700zM174 -58l-26 -122h-37v122h63z" />
    <glyph glyph-name="Ldot" unicode="&#x13f;" horiz-adv-x="252" 
d="M62 700h63v-640h110v-60h-173v700zM215 318v-77h-67v77h67z" />
    <glyph glyph-name="Lslash" unicode="&#x141;" horiz-adv-x="258" 
d="M9 286l53 20v394h63v-371l65 25v-46l-65 -25v-223h110v-60h-173v261l-53 -21v46z" />
    <glyph glyph-name="Mdotaccent" unicode="&#x1e40;" horiz-adv-x="480" 
d="M142 700l97 -595l98 595h80v-700h-60v239q0 27 1 71.5t2.5 95t2.5 99t2 83.5l-95 -588h-61l-95 588q1 -35 2 -83.5t2.5 -98.5t2.5 -95t1 -72v-239h-60v700h80zM270 824v-74h-61v74h61z" />
    <glyph glyph-name="Nacute" unicode="&#x143;" horiz-adv-x="386" 
d="M117 546q2 -81 4 -158t2 -162v-226h-61v700h62l147 -547q-2 83 -4 160t-2 160v227h61v-700h-62l-147 546v0zM270 877l-54 -127h-43l38 127h59z" />
    <glyph glyph-name="Ntilde" unicode="&#xd1;" horiz-adv-x="386" 
d="M117 546q2 -81 4 -158t2 -162v-226h-61v700h62l147 -547q-2 83 -4 160t-2 160v227h61v-700h-62l-147 546v0zM241 750q-19 0 -31 6.5t-21 14.5t-18.5 14.5t-22.5 6.5q-16 0 -22 -8t-6 -24h-38q0 40 13 60.5t50 20.5q19 0 30.5 -6.5t21 -14.5t18.5 -14.5t23 -6.5q16 0 22 8
t6 24h38q0 -41 -14 -61t-49 -20z" />
    <glyph glyph-name="Ncaron" unicode="&#x147;" horiz-adv-x="386" 
d="M117 546q2 -81 4 -158t2 -162v-226h-61v700h62l147 -547q-2 83 -4 160t-2 160v227h61v-700h-62l-147 546v0zM166 750l-55 127h44l37 -74l38 74h44l-56 -127h-52z" />
    <glyph glyph-name="Ncommaaccent" unicode="&#x145;" horiz-adv-x="386" 
d="M117 546q2 -81 4 -158t2 -162v-226h-61v700h62l147 -547q-2 83 -4 160t-2 160v227h61v-700h-62l-147 546v0zM225 -58l-26 -122h-37v122h63z" />
    <glyph glyph-name="Eng" unicode="&#x14a;" horiz-adv-x="386" 
d="M266 0q-38 137 -75 272.5t-74 272.5q2 -78 4 -150t2 -153v-242h-61v700h62l147 -545q-3 78 -4.5 151t-1.5 151v243h61v-758q0 -55 -22 -83.5t-85 -28.5q-10 0 -20.5 1.5t-18.5 4.5v53q14 -7 37 -7q28 0 38.5 14t10.5 46v58z" />
    <glyph glyph-name="Oacute" unicode="&#xd3;" horiz-adv-x="341" 
d="M170 46q32 0 43.5 18.5t11.5 47.5v475q0 29 -11.5 47.5t-43.5 18.5t-43.5 -18.5t-11.5 -47.5v-475q0 -29 11.5 -47.5t43.5 -18.5zM170 710q34 0 57 -9t36.5 -25.5t19 -39t5.5 -49.5v-475q0 -27 -5.5 -49.5t-19 -38.5t-36.5 -25t-57 -9q-35 0 -57.5 9t-36 25t-19 38.5
t-5.5 49.5v475q0 27 5.5 49.5t19 39t36 25.5t57.5 9zM245 877l-54 -127h-43l38 127h59z" />
    <glyph glyph-name="Ograve" unicode="&#xd2;" horiz-adv-x="341" 
d="M170 46q32 0 43.5 18.5t11.5 47.5v475q0 29 -11.5 47.5t-43.5 18.5t-43.5 -18.5t-11.5 -47.5v-475q0 -29 11.5 -47.5t43.5 -18.5zM170 710q34 0 57 -9t36.5 -25.5t19 -39t5.5 -49.5v-475q0 -27 -5.5 -49.5t-19 -38.5t-36.5 -25t-57 -9q-35 0 -57.5 9t-36 25t-19 38.5
t-5.5 49.5v475q0 27 5.5 49.5t19 39t36 25.5t57.5 9zM155 877l37 -127h-42l-55 127h60z" />
    <glyph glyph-name="Ocircumflex" unicode="&#xd4;" horiz-adv-x="341" 
d="M170 46q32 0 43.5 18.5t11.5 47.5v475q0 29 -11.5 47.5t-43.5 18.5t-43.5 -18.5t-11.5 -47.5v-475q0 -29 11.5 -47.5t43.5 -18.5zM170 710q34 0 57 -9t36.5 -25.5t19 -39t5.5 -49.5v-475q0 -27 -5.5 -49.5t-19 -38.5t-36.5 -25t-57 -9q-35 0 -57.5 9t-36 25t-19 38.5
t-5.5 49.5v475q0 27 5.5 49.5t19 39t36 25.5t57.5 9zM196 877l56 -127h-44l-38 74l-37 -74h-44l55 127h52z" />
    <glyph glyph-name="Odieresis" unicode="&#xd6;" horiz-adv-x="341" 
d="M170 46q32 0 43.5 18.5t11.5 47.5v475q0 29 -11.5 47.5t-43.5 18.5t-43.5 -18.5t-11.5 -47.5v-475q0 -29 11.5 -47.5t43.5 -18.5zM170 710q34 0 57 -9t36.5 -25.5t19 -39t5.5 -49.5v-475q0 -27 -5.5 -49.5t-19 -38.5t-36.5 -25t-57 -9q-35 0 -57.5 9t-36 25t-19 38.5
t-5.5 49.5v475q0 27 5.5 49.5t19 39t36 25.5t57.5 9zM147 824v-74h-61v74h61zM255 824v-74h-61v74h61z" />
    <glyph glyph-name="Otilde" unicode="&#xd5;" horiz-adv-x="341" 
d="M170 46q32 0 43.5 18.5t11.5 47.5v475q0 29 -11.5 47.5t-43.5 18.5t-43.5 -18.5t-11.5 -47.5v-475q0 -29 11.5 -47.5t43.5 -18.5zM170 710q34 0 57 -9t36.5 -25.5t19 -39t5.5 -49.5v-475q0 -27 -5.5 -49.5t-19 -38.5t-36.5 -25t-57 -9q-35 0 -57.5 9t-36 25t-19 38.5
t-5.5 49.5v475q0 27 5.5 49.5t19 39t36 25.5t57.5 9zM218 750q-19 0 -31 6.5t-21 14.5t-18.5 14.5t-22.5 6.5q-16 0 -22 -8t-6 -24h-38q0 40 13 60.5t50 20.5q19 0 30.5 -6.5t21 -14.5t18.5 -14.5t23 -6.5q16 0 22 8t6 24h38q0 -41 -14 -61t-49 -20z" />
    <glyph glyph-name="Obreve" unicode="&#x14e;" horiz-adv-x="341" 
d="M170 46q32 0 43.5 18.5t11.5 47.5v475q0 29 -11.5 47.5t-43.5 18.5t-43.5 -18.5t-11.5 -47.5v-475q0 -29 11.5 -47.5t43.5 -18.5zM170 710q34 0 57 -9t36.5 -25.5t19 -39t5.5 -49.5v-475q0 -27 -5.5 -49.5t-19 -38.5t-36.5 -25t-57 -9q-35 0 -57.5 9t-36 25t-19 38.5
t-5.5 49.5v475q0 27 5.5 49.5t19 39t36 25.5t57.5 9zM249 836q0 -50 -18.5 -75.5t-60.5 -25.5t-60 25.5t-18 75.5h38q0 -28 9 -41.5t31 -13.5t31 13.5t9 41.5h39z" />
    <glyph glyph-name="Omacron" unicode="&#x14c;" horiz-adv-x="341" 
d="M170 46q32 0 43.5 18.5t11.5 47.5v475q0 29 -11.5 47.5t-43.5 18.5t-43.5 -18.5t-11.5 -47.5v-475q0 -29 11.5 -47.5t43.5 -18.5zM170 710q34 0 57 -9t36.5 -25.5t19 -39t5.5 -49.5v-475q0 -27 -5.5 -49.5t-19 -38.5t-36.5 -25t-57 -9q-35 0 -57.5 9t-36 25t-19 38.5
t-5.5 49.5v475q0 27 5.5 49.5t19 39t36 25.5t57.5 9zM85 796h170v-46h-170v46z" />
    <glyph glyph-name="Ohungarumlaut" unicode="&#x150;" horiz-adv-x="341" 
d="M170 46q32 0 43.5 18.5t11.5 47.5v475q0 29 -11.5 47.5t-43.5 18.5t-43.5 -18.5t-11.5 -47.5v-475q0 -29 11.5 -47.5t43.5 -18.5zM170 710q34 0 57 -9t36.5 -25.5t19 -39t5.5 -49.5v-475q0 -27 -5.5 -49.5t-19 -38.5t-36.5 -25t-57 -9q-35 0 -57.5 9t-36 25t-19 38.5
t-5.5 49.5v475q0 27 5.5 49.5t19 39t36 25.5t57.5 9zM180 877l-39 -127h-43l23 127h59zM285 877l-49 -127h-43l33 127h59z" />
    <glyph glyph-name="Oslash" unicode="&#xd8;" horiz-adv-x="341" 
d="M119 -3q-38 12 -52.5 42t-14.5 73v475q0 27 5.5 49.5t19 39t36 25.5t57.5 9q6 0 12 -0.5t11 -1.5l3 22h28l-3 -27q38 -12 52.5 -43t14.5 -73v-475q0 -27 -5.5 -49.5t-19 -38.5t-36.5 -25t-57 -9q-7 0 -13 0.5t-11 1.5l-2 -22h-28zM170 46q32 0 43.5 18.5t11.5 47.5v475
q0 30 -11 47l-62 -586q5 -2 18 -2zM115 112q0 -14 2.5 -26.5t8.5 -20.5l61 586q-10 2 -17 2q-32 0 -43.5 -18.5t-11.5 -47.5v-475z" />
    <glyph glyph-name="OE" unicode="&#x152;" horiz-adv-x="462" 
d="M283 60h136v-60h-200q-11 -5 -23 -7.5t-31 -2.5q-35 0 -57.5 9t-36 25t-19 38.5t-5.5 49.5v475q0 27 5.5 49.5t19 39t36 25.5t57.5 9q19 0 31 -3t23 -7h200v-61h-136v-257h117v-58h-117v-264zM165 46q30 0 42.5 16t12.5 42v483q0 29 -11.5 47.5t-43.5 18.5t-43.5 -18.5
t-11.5 -47.5v-475q0 -29 11.5 -47.5t43.5 -18.5z" />
    <glyph glyph-name="Thorn" unicode="&#xde;" horiz-adv-x="334" 
d="M62 700h63v-142h51q36 0 59 -9t36.5 -24.5t19 -38t5.5 -49.5v-158q0 -27 -5.5 -49t-19.5 -37.5t-37.5 -24t-59.5 -8.5h-49v-160h-63v700zM173 218q33 0 46.5 16.5t13.5 54.5v145q0 32 -12.5 47.5t-47.5 15.5h-48v-279h48z" />
    <glyph glyph-name="Pdotaccent" unicode="&#x1e56;" horiz-adv-x="334" 
d="M62 700h114q36 0 59 -9t36.5 -24.5t19 -38t5.5 -49.5v-158q0 -52 -27.5 -85.5t-94.5 -33.5h-49v-302h-63v700zM173 360q35 0 47.5 16t12.5 45v158q0 29 -13.5 44.5t-46.5 15.5h-48v-279h48zM197 824v-74h-61v74h61z" />
    <glyph glyph-name="Racute" unicode="&#x154;" horiz-adv-x="348" 
d="M62 700h115q36 0 59 -9t36.5 -24.5t18.5 -38t5 -49.5v-158q0 -45 -17.5 -75.5t-61.5 -39.5l113 -306h-70l-103 302h-32v-302h-63v700zM173 360q35 0 47.5 16t12.5 45v158q0 29 -13.5 44.5t-46.5 15.5h-48v-279h48zM236 877l-54 -127h-43l38 127h59z" />
    <glyph glyph-name="Rcaron" unicode="&#x158;" horiz-adv-x="348" 
d="M62 700h115q36 0 59 -9t36.5 -24.5t18.5 -38t5 -49.5v-158q0 -45 -17.5 -75.5t-61.5 -39.5l113 -306h-70l-103 302h-32v-302h-63v700zM173 360q35 0 47.5 16t12.5 45v158q0 29 -13.5 44.5t-46.5 15.5h-48v-279h48zM137 750l-55 127h44l37 -74l38 74h44l-56 -127h-52z" />
    <glyph glyph-name="Rcommaaccent" unicode="&#x156;" horiz-adv-x="348" 
d="M62 700h115q36 0 59 -9t36.5 -24.5t18.5 -38t5 -49.5v-158q0 -45 -17.5 -75.5t-61.5 -39.5l113 -306h-70l-103 302h-32v-302h-63v700zM173 360q35 0 47.5 16t12.5 45v158q0 29 -13.5 44.5t-46.5 15.5h-48v-279h48zM202 -58l-26 -122h-37v122h63z" />
    <glyph glyph-name="Sacute" unicode="&#x15a;" horiz-adv-x="329" 
d="M218 198q0 51 -12.5 81t-31.5 49.5t-41.5 33.5t-41.5 33.5t-31.5 49.5t-12.5 82v60q0 27 5 49.5t18 39t36 25.5t58 9t58 -9t36 -25.5t18 -39t5 -49.5v-77h-63v77q0 27 -11 46.5t-43 19.5q-33 0 -43.5 -18.5t-10.5 -47.5v-59q0 -43 12.5 -68t31.5 -41.5t41.5 -31t41.5 -37
t31.5 -57.5t12.5 -94v-86q0 -27 -5 -49.5t-18 -39t-36 -25.5t-58 -9t-58 9t-36 25.5t-18 39t-5 49.5v87h63v-87q0 -28 11.5 -47.5t42.5 -19.5q33 0 43.5 19t10.5 48v85zM239 877l-54 -127h-43l38 127h59z" />
    <glyph glyph-name="Scircumflex" unicode="&#x15c;" horiz-adv-x="329" 
d="M218 198q0 51 -12.5 81t-31.5 49.5t-41.5 33.5t-41.5 33.5t-31.5 49.5t-12.5 82v60q0 27 5 49.5t18 39t36 25.5t58 9t58 -9t36 -25.5t18 -39t5 -49.5v-77h-63v77q0 27 -11 46.5t-43 19.5q-33 0 -43.5 -18.5t-10.5 -47.5v-59q0 -43 12.5 -68t31.5 -41.5t41.5 -31t41.5 -37
t31.5 -57.5t12.5 -94v-86q0 -27 -5 -49.5t-18 -39t-36 -25.5t-58 -9t-58 9t-36 25.5t-18 39t-5 49.5v87h63v-87q0 -28 11.5 -47.5t42.5 -19.5q33 0 43.5 19t10.5 48v85zM190 877l56 -127h-44l-38 74l-37 -74h-44l55 127h52z" />
    <glyph glyph-name="Scaron" unicode="&#x160;" horiz-adv-x="329" 
d="M218 198q0 51 -12.5 81t-31.5 49.5t-41.5 33.5t-41.5 33.5t-31.5 49.5t-12.5 82v60q0 27 5 49.5t18 39t36 25.5t58 9t58 -9t36 -25.5t18 -39t5 -49.5v-77h-63v77q0 27 -11 46.5t-43 19.5q-33 0 -43.5 -18.5t-10.5 -47.5v-59q0 -43 12.5 -68t31.5 -41.5t41.5 -31t41.5 -37
t31.5 -57.5t12.5 -94v-86q0 -27 -5 -49.5t-18 -39t-36 -25.5t-58 -9t-58 9t-36 25.5t-18 39t-5 49.5v87h63v-87q0 -28 11.5 -47.5t42.5 -19.5q33 0 43.5 19t10.5 48v85zM138 750l-55 127h44l37 -74l38 74h44l-56 -127h-52z" />
    <glyph glyph-name="Sdotaccent" unicode="&#x1e60;" horiz-adv-x="329" 
d="M218 198q0 51 -12.5 81t-31.5 49.5t-41.5 33.5t-41.5 33.5t-31.5 49.5t-12.5 82v60q0 27 5 49.5t18 39t36 25.5t58 9t58 -9t36 -25.5t18 -39t5 -49.5v-77h-63v77q0 27 -11 46.5t-43 19.5q-33 0 -43.5 -18.5t-10.5 -47.5v-59q0 -43 12.5 -68t31.5 -41.5t41.5 -31t41.5 -37
t31.5 -57.5t12.5 -94v-86q0 -27 -5 -49.5t-18 -39t-36 -25.5t-58 -9t-58 9t-36 25.5t-18 39t-5 49.5v87h63v-87q0 -28 11.5 -47.5t42.5 -19.5q33 0 43.5 19t10.5 48v85zM195 824v-74h-61v74h61z" />
    <glyph glyph-name="Scedilla" unicode="&#x15e;" horiz-adv-x="329" 
d="M145 -9q-29 2 -48 12t-30 26t-15.5 37t-4.5 47v87h63v-87q0 -29 11 -48t43 -19q33 0 43.5 19t10.5 48v85q0 51 -12.5 81t-31.5 49.5t-41.5 33.5t-41.5 33.5t-31.5 49.5t-12.5 82v60q0 27 5 49.5t18 39t36 25.5t58 9t58 -9t36 -25.5t18 -39t5 -49.5v-77h-63v77
q0 28 -11 47t-43 19q-33 0 -43.5 -18.5t-10.5 -47.5v-59q0 -43 12.5 -68t31.5 -41.5t41.5 -31t41.5 -37t31.5 -57.5t12.5 -94v-86q0 -26 -4.5 -47.5t-16 -37.5t-31.5 -25.5t-50 -11.5l-7 -31q64 -9 64 -64q0 -30 -20 -48t-68 -18h-46l10 38h33q23 0 32 8t9 22q0 15 -9.5 23
t-33.5 8h-14z" />
    <glyph glyph-name="Scommaaccent" unicode="&#x218;" horiz-adv-x="329" 
d="M218 198q0 51 -12.5 81t-31.5 49.5t-41.5 33.5t-41.5 33.5t-31.5 49.5t-12.5 82v60q0 27 5 49.5t18 39t36 25.5t58 9t58 -9t36 -25.5t18 -39t5 -49.5v-77h-63v77q0 27 -11 46.5t-43 19.5q-33 0 -43.5 -18.5t-10.5 -47.5v-59q0 -43 12.5 -68t31.5 -41.5t41.5 -31t41.5 -37
t31.5 -57.5t12.5 -94v-86q0 -27 -5 -49.5t-18 -39t-36 -25.5t-58 -9t-58 9t-36 25.5t-18 39t-5 49.5v87h63v-87q0 -28 11.5 -47.5t42.5 -19.5q33 0 43.5 19t10.5 48v85zM191 -58l-26 -122h-37v122h63z" />
    <glyph glyph-name="Tcaron" unicode="&#x164;" horiz-adv-x="275" 
d="M169 0h-63v639h-84v61h230v-61h-83v-639zM111 750l-55 127h44l37 -74l38 74h44l-56 -127h-52z" />
    <glyph glyph-name="Tdotaccent" unicode="&#x1e6a;" horiz-adv-x="275" 
d="M169 0h-63v639h-84v61h230v-61h-83v-639zM168 824v-74h-61v74h61z" />
    <glyph glyph-name="Tcommaaccent" unicode="&#x21a;" horiz-adv-x="275" 
d="M169 0h-63v639h-84v61h230v-61h-83v-639zM168 -58l-26 -122h-37v122h63z" />
    <glyph glyph-name="Tbar" unicode="&#x166;" horiz-adv-x="275" 
d="M50 376h56v263h-84v61h230v-61h-83v-263h56v-45h-56v-331h-63v331h-56v45z" />
    <glyph glyph-name="Uacute" unicode="&#xda;" horiz-adv-x="350" 
d="M120 113q0 -29 11 -48t44 -19t43.5 19t10.5 48v587h63v-587q0 -26 -5.5 -48.5t-19 -39t-36 -26t-56.5 -9.5q-35 0 -58 9t-36.5 25.5t-18.5 39t-5 49.5v587h63v-587zM249 877l-54 -127h-43l38 127h59z" />
    <glyph glyph-name="Ugrave" unicode="&#xd9;" horiz-adv-x="350" 
d="M120 113q0 -29 11 -48t44 -19t43.5 19t10.5 48v587h63v-587q0 -26 -5.5 -48.5t-19 -39t-36 -26t-56.5 -9.5q-35 0 -58 9t-36.5 25.5t-18.5 39t-5 49.5v587h63v-587zM162 877l37 -127h-42l-55 127h60z" />
    <glyph glyph-name="Ucircumflex" unicode="&#xdb;" horiz-adv-x="350" 
d="M120 113q0 -29 11 -48t44 -19t43.5 19t10.5 48v587h63v-587q0 -26 -5.5 -48.5t-19 -39t-36 -26t-56.5 -9.5q-35 0 -58 9t-36.5 25.5t-18.5 39t-5 49.5v587h63v-587zM200 877l56 -127h-44l-38 74l-37 -74h-44l55 127h52z" />
    <glyph glyph-name="Udieresis" unicode="&#xdc;" horiz-adv-x="350" 
d="M120 113q0 -29 11 -48t44 -19t43.5 19t10.5 48v587h63v-587q0 -26 -5.5 -48.5t-19 -39t-36 -26t-56.5 -9.5q-35 0 -58 9t-36.5 25.5t-18.5 39t-5 49.5v587h63v-587zM151 824v-74h-61v74h61zM259 824v-74h-61v74h61z" />
    <glyph glyph-name="Utilde" unicode="&#x168;" horiz-adv-x="350" 
d="M120 113q0 -29 11 -48t44 -19t43.5 19t10.5 48v587h63v-587q0 -26 -5.5 -48.5t-19 -39t-36 -26t-56.5 -9.5q-35 0 -58 9t-36.5 25.5t-18.5 39t-5 49.5v587h63v-587zM223 750q-19 0 -31 6.5t-21 14.5t-18.5 14.5t-22.5 6.5q-16 0 -22 -8t-6 -24h-38q0 40 13 60.5t50 20.5
q19 0 30.5 -6.5t21 -14.5t18.5 -14.5t23 -6.5q16 0 22 8t6 24h38q0 -41 -14 -61t-49 -20z" />
    <glyph glyph-name="Uring" unicode="&#x16e;" horiz-adv-x="350" 
d="M120 113q0 -29 11 -48t44 -19t43.5 19t10.5 48v587h63v-587q0 -26 -5.5 -48.5t-19 -39t-36 -26t-56.5 -9.5q-35 0 -58 9t-36.5 25.5t-18.5 39t-5 49.5v587h63v-587zM243 808q0 -35 -16 -55t-52 -20t-52 20t-16 55t16 56t52 21t52 -21t16 -56zM204 808q0 20 -7 31.5
t-22 11.5t-22 -11.5t-7 -31.5q0 -19 7 -30t22 -11t22 11t7 30z" />
    <glyph glyph-name="Ubreve" unicode="&#x16c;" horiz-adv-x="350" 
d="M120 113q0 -29 11 -48t44 -19t43.5 19t10.5 48v587h63v-587q0 -26 -5.5 -48.5t-19 -39t-36 -26t-56.5 -9.5q-35 0 -58 9t-36.5 25.5t-18.5 39t-5 49.5v587h63v-587zM253 836q0 -50 -18.5 -75.5t-60.5 -25.5t-60 25.5t-18 75.5h38q0 -28 9 -41.5t31 -13.5t31 13.5t9 41.5
h39z" />
    <glyph glyph-name="Umacron" unicode="&#x16a;" horiz-adv-x="350" 
d="M120 113q0 -29 11 -48t44 -19t43.5 19t10.5 48v587h63v-587q0 -26 -5.5 -48.5t-19 -39t-36 -26t-56.5 -9.5q-35 0 -58 9t-36.5 25.5t-18.5 39t-5 49.5v587h63v-587zM90 796h170v-46h-170v46z" />
    <glyph glyph-name="Uhungarumlaut" unicode="&#x170;" horiz-adv-x="350" 
d="M120 113q0 -29 11 -48t44 -19t43.5 19t10.5 48v587h63v-587q0 -26 -5.5 -48.5t-19 -39t-36 -26t-56.5 -9.5q-35 0 -58 9t-36.5 25.5t-18.5 39t-5 49.5v587h63v-587zM186 877l-39 -127h-43l23 127h59zM291 877l-49 -127h-43l33 127h59z" />
    <glyph glyph-name="Uogonek" unicode="&#x172;" horiz-adv-x="350" 
d="M230 -115v-55h-12q-43 0 -63.5 18t-20.5 50q0 27 12.5 51t32.5 41h-4q-35 0 -58 9t-36.5 25.5t-18.5 39t-5 49.5v587h63v-587q0 -29 11 -48t44 -19t43.5 19t10.5 48v587h63v-587q0 -41 -14 -72t-51 -43q-22 -18 -33 -39t-11 -42q0 -32 35 -32h12z" />
    <glyph glyph-name="Wacute" unicode="&#x1e82;" horiz-adv-x="536" 
d="M267 574l-73 -574h-73l-89 700h64l62 -579l76 579h66l76 -579l62 579h64l-89 -700h-72zM339 877l-54 -127h-43l38 127h59z" />
    <glyph glyph-name="Wgrave" unicode="&#x1e80;" horiz-adv-x="536" 
d="M267 574l-73 -574h-73l-89 700h64l62 -579l76 579h66l76 -579l62 579h64l-89 -700h-72zM249 877l37 -127h-42l-55 127h60z" />
    <glyph glyph-name="Wcircumflex" unicode="&#x174;" horiz-adv-x="536" 
d="M267 574l-73 -574h-73l-89 700h64l62 -579l76 579h66l76 -579l62 579h64l-89 -700h-72zM293 877l56 -127h-44l-38 74l-37 -74h-44l55 127h52z" />
    <glyph glyph-name="Wdieresis" unicode="&#x1e84;" horiz-adv-x="536" 
d="M267 574l-73 -574h-73l-89 700h64l62 -579l76 579h66l76 -579l62 579h64l-89 -700h-72zM244 824v-74h-61v74h61zM352 824v-74h-61v74h61z" />
    <glyph glyph-name="Yacute" unicode="&#xdd;" horiz-adv-x="302" 
d="M119 0v291l-97 409h66l62 -318l63 318h66l-97 -409v-291h-63zM225 877l-54 -127h-43l38 127h59z" />
    <glyph glyph-name="Ygrave" unicode="&#x1ef2;" horiz-adv-x="302" 
d="M119 0v291l-97 409h66l62 -318l63 318h66l-97 -409v-291h-63zM137 877l37 -127h-42l-55 127h60z" />
    <glyph glyph-name="Ycircumflex" unicode="&#x176;" horiz-adv-x="302" 
d="M119 0v291l-97 409h66l62 -318l63 318h66l-97 -409v-291h-63zM176 877l56 -127h-44l-38 74l-37 -74h-44l55 127h52z" />
    <glyph glyph-name="Ydieresis" unicode="&#x178;" horiz-adv-x="302" 
d="M119 0v291l-97 409h66l62 -318l63 318h66l-97 -409v-291h-63zM127 824v-74h-61v74h61zM235 824v-74h-61v74h61z" />
    <glyph glyph-name="Zacute" unicode="&#x179;" horiz-adv-x="277" 
d="M32 0v40l141 599h-141v61h209v-40l-141 -600h144v-60h-212zM208 877l-54 -127h-43l38 127h59z" />
    <glyph glyph-name="Zcaron" unicode="&#x17d;" horiz-adv-x="277" 
d="M32 0v40l141 599h-141v61h209v-40l-141 -600h144v-60h-212zM112 750l-55 127h44l37 -74l38 74h44l-56 -127h-52z" />
    <glyph glyph-name="Zdotaccent" unicode="&#x17b;" horiz-adv-x="277" 
d="M32 0v40l141 599h-141v61h209v-40l-141 -600h144v-60h-212zM169 824v-74h-61v74h61z" />
    <glyph glyph-name="aacute" unicode="&#xe1;" horiz-adv-x="308" 
d="M42 168q0 29 7.5 51.5t26.5 40.5t50.5 33.5t78.5 29.5v73q0 28 -11.5 45t-37.5 17q-30 0 -40 -17t-10 -46v-23h-59v24q0 25 5 46t17.5 36t33.5 23.5t53 8.5t53 -8.5t33.5 -23.5t17.5 -36t5 -46v-396h-35l-16 30q-10 -20 -26.5 -30t-44.5 -10q-54 0 -77.5 28.5t-23.5 85.5
v64zM205 278q-32 -10 -52 -21t-31.5 -24t-15.5 -29t-4 -35v-65q0 -29 11.5 -45.5t40.5 -16.5q28 0 39.5 17.5t11.5 44.5v174zM226 677l-54 -127h-43l38 127h59z" />
    <glyph glyph-name="agrave" unicode="&#xe0;" horiz-adv-x="308" 
d="M42 168q0 29 7.5 51.5t26.5 40.5t50.5 33.5t78.5 29.5v73q0 28 -11.5 45t-37.5 17q-30 0 -40 -17t-10 -46v-23h-59v24q0 25 5 46t17.5 36t33.5 23.5t53 8.5t53 -8.5t33.5 -23.5t17.5 -36t5 -46v-396h-35l-16 30q-10 -20 -26.5 -30t-44.5 -10q-54 0 -77.5 28.5t-23.5 85.5
v64zM205 278q-32 -10 -52 -21t-31.5 -24t-15.5 -29t-4 -35v-65q0 -29 11.5 -45.5t40.5 -16.5q28 0 39.5 17.5t11.5 44.5v174zM156 677l37 -127h-42l-55 127h60z" />
    <glyph glyph-name="acircumflex" unicode="&#xe2;" horiz-adv-x="308" 
d="M42 168q0 29 7.5 51.5t26.5 40.5t50.5 33.5t78.5 29.5v73q0 28 -11.5 45t-37.5 17q-30 0 -40 -17t-10 -46v-23h-59v24q0 25 5 46t17.5 36t33.5 23.5t53 8.5t53 -8.5t33.5 -23.5t17.5 -36t5 -46v-396h-35l-16 30q-10 -20 -26.5 -30t-44.5 -10q-54 0 -77.5 28.5t-23.5 85.5
v64zM205 278q-32 -10 -52 -21t-31.5 -24t-15.5 -29t-4 -35v-65q0 -29 11.5 -45.5t40.5 -16.5q28 0 39.5 17.5t11.5 44.5v174zM178 677l56 -127h-44l-38 74l-37 -74h-44l55 127h52z" />
    <glyph glyph-name="adieresis" unicode="&#xe4;" horiz-adv-x="308" 
d="M42 168q0 29 7.5 51.5t26.5 40.5t50.5 33.5t78.5 29.5v73q0 28 -11.5 45t-37.5 17q-30 0 -40 -17t-10 -46v-23h-59v24q0 25 5 46t17.5 36t33.5 23.5t53 8.5t53 -8.5t33.5 -23.5t17.5 -36t5 -46v-396h-35l-16 30q-10 -20 -26.5 -30t-44.5 -10q-54 0 -77.5 28.5t-23.5 85.5
v64zM205 278q-32 -10 -52 -21t-31.5 -24t-15.5 -29t-4 -35v-65q0 -29 11.5 -45.5t40.5 -16.5q28 0 39.5 17.5t11.5 44.5v174zM129 659v-74h-61v74h61zM237 659v-74h-61v74h61z" />
    <glyph glyph-name="atilde" unicode="&#xe3;" horiz-adv-x="308" 
d="M42 168q0 29 7.5 51.5t26.5 40.5t50.5 33.5t78.5 29.5v73q0 28 -11.5 45t-37.5 17q-30 0 -40 -17t-10 -46v-23h-59v24q0 25 5 46t17.5 36t33.5 23.5t53 8.5t53 -8.5t33.5 -23.5t17.5 -36t5 -46v-396h-35l-16 30q-10 -20 -26.5 -30t-44.5 -10q-54 0 -77.5 28.5t-23.5 85.5
v64zM205 278q-32 -10 -52 -21t-31.5 -24t-15.5 -29t-4 -35v-65q0 -29 11.5 -45.5t40.5 -16.5q28 0 39.5 17.5t11.5 44.5v174zM201 560q-19 0 -31 6.5t-21 14.5t-18.5 14.5t-22.5 6.5q-16 0 -22 -8t-6 -24h-38q0 40 13 60.5t50 20.5q19 0 30.5 -6.5t21 -14.5t18.5 -14.5
t23 -6.5q16 0 22 8t6 24h38q0 -41 -14 -61t-49 -20z" />
    <glyph glyph-name="aring" unicode="&#xe5;" horiz-adv-x="308" 
d="M42 168q0 29 7.5 51.5t26.5 40.5t50.5 33.5t78.5 29.5v73q0 28 -11.5 45t-37.5 17q-30 0 -40 -17t-10 -46v-23h-59v24q0 25 5 46t17.5 36t33.5 23.5t53 8.5t53 -8.5t33.5 -23.5t17.5 -36t5 -46v-396h-35l-16 30q-10 -20 -26.5 -30t-44.5 -10q-54 0 -77.5 28.5t-23.5 85.5
v64zM205 278q-32 -10 -52 -21t-31.5 -24t-15.5 -29t-4 -35v-65q0 -29 11.5 -45.5t40.5 -16.5q28 0 39.5 17.5t11.5 44.5v174zM220 622q0 -35 -16 -55t-52 -20t-52 20t-16 55t16 56t52 21t52 -21t16 -56zM181 622q0 20 -7 31.5t-22 11.5t-22 -11.5t-7 -31.5q0 -19 7 -30
t22 -11t22 11t7 30z" />
    <glyph glyph-name="amacron" unicode="&#x101;" horiz-adv-x="308" 
d="M42 168q0 29 7.5 51.5t26.5 40.5t50.5 33.5t78.5 29.5v73q0 28 -11.5 45t-37.5 17q-30 0 -40 -17t-10 -46v-23h-59v24q0 25 5 46t17.5 36t33.5 23.5t53 8.5t53 -8.5t33.5 -23.5t17.5 -36t5 -46v-396h-35l-16 30q-10 -20 -26.5 -30t-44.5 -10q-54 0 -77.5 28.5t-23.5 85.5
v64zM205 278q-32 -10 -52 -21t-31.5 -24t-15.5 -29t-4 -35v-65q0 -29 11.5 -45.5t40.5 -16.5q28 0 39.5 17.5t11.5 44.5v174zM67 639h170v-46h-170v46z" />
    <glyph glyph-name="abreve" unicode="&#x103;" horiz-adv-x="308" 
d="M42 168q0 29 7.5 51.5t26.5 40.5t50.5 33.5t78.5 29.5v73q0 28 -11.5 45t-37.5 17q-30 0 -40 -17t-10 -46v-23h-59v24q0 25 5 46t17.5 36t33.5 23.5t53 8.5t53 -8.5t33.5 -23.5t17.5 -36t5 -46v-396h-35l-16 30q-10 -20 -26.5 -30t-44.5 -10q-54 0 -77.5 28.5t-23.5 85.5
v64zM205 278q-32 -10 -52 -21t-31.5 -24t-15.5 -29t-4 -35v-65q0 -29 11.5 -45.5t40.5 -16.5q28 0 39.5 17.5t11.5 44.5v174zM231 658q0 -50 -18.5 -75.5t-60.5 -25.5t-60 25.5t-18 75.5h38q0 -28 9 -41.5t31 -13.5t31 13.5t9 41.5h39z" />
    <glyph glyph-name="aogonek" unicode="&#x105;" horiz-adv-x="313" 
d="M265 -115v-55h-12q-43 0 -63.5 18t-20.5 50q0 31 17 57.5t43 45.5l-15 29q-10 -20 -26.5 -30t-44.5 -10q-54 0 -77.5 28.5t-23.5 85.5v64q0 29 7.5 51.5t26.5 40.5t50.5 33.5t78.5 29.5v73q0 28 -11.5 45t-37.5 17q-30 0 -40 -17t-10 -46v-23h-59v24q0 25 5 46t17.5 36
t33.5 23.5t53 8.5t53 -8.5t33.5 -23.5t17.5 -36t5 -46v-396q-23 -18 -35 -39.5t-12 -43.5q0 -32 35 -32h12zM205 278q-32 -10 -52 -21t-31.5 -24t-15.5 -29t-4 -35v-65q0 -29 11.5 -45.5t40.5 -16.5q28 0 39.5 17.5t11.5 44.5v174z" />
    <glyph glyph-name="ae" unicode="&#xe6;" horiz-adv-x="470" 
d="M427 172v-66q0 -53 -22.5 -84.5t-87.5 -31.5q-33 0 -52.5 8.5t-30.5 25.5q-11 -17 -31 -25.5t-52 -8.5q-33 0 -54.5 8.5t-34.5 23.5t-18 36.5t-5 47.5v62q0 29 7.5 51.5t26.5 40.5t50.5 33.5t78.5 29.5v73q0 29 -10.5 45.5t-39.5 16.5t-39 -17t-10 -46v-23h-59v24
q0 25 5 46t17.5 36t33 23.5t51.5 8.5q33 0 52.5 -9.5t30.5 -24.5q11 16 31 25t53 9t54 -8.5t33 -24t17 -37t5 -47.5v-144h-162v-143q0 -64 52 -64q29 0 40.5 16.5t11.5 47.5v66h58zM202 278q-32 -10 -52 -21t-31.5 -24t-15.5 -29t-4 -35v-63q0 -31 11.5 -47.5t40.5 -16.5
t40 16.5t11 47.5v172zM368 393q0 30 -13.5 47.5t-37.5 17.5q-29 0 -40.5 -16.5t-11.5 -48.5v-98h103v98z" />
    <glyph glyph-name="bdotaccent" unicode="&#x1e03;" horiz-adv-x="323" 
d="M52 0v710h60v-236q10 16 27.5 26t40.5 10q53 0 74 -28.5t21 -87.5v-289q0 -58 -21.5 -86.5t-75.5 -28.5q-52 0 -74 41l-16 -31h-36zM112 106q0 -29 12 -46.5t41 -17.5q28 0 39 17.5t11 46.5v288q0 29 -11 46.5t-39 17.5q-29 0 -41 -18.5t-12 -47.5v-286zM215 659v-74h-61
v74h61z" />
    <glyph glyph-name="cacute" unicode="&#x107;" horiz-adv-x="312" 
d="M269 172v-66q0 -53 -22.5 -84.5t-87.5 -31.5q-33 0 -54.5 8.5t-34.5 23.5t-18 36.5t-5 47.5v287q0 26 5.5 47.5t18.5 37t34.5 24t53.5 8.5q33 0 54 -8.5t33.5 -24t17.5 -37t5 -47.5v-55h-59v55q0 32 -11 48.5t-40 16.5t-40.5 -16.5t-11.5 -48.5v-287q0 -31 11.5 -47.5
t40.5 -16.5t40 16.5t11 47.5v66h59zM235 677l-54 -127h-43l38 127h59z" />
    <glyph glyph-name="ccircumflex" unicode="&#x109;" horiz-adv-x="312" 
d="M269 172v-66q0 -53 -22.5 -84.5t-87.5 -31.5q-33 0 -54.5 8.5t-34.5 23.5t-18 36.5t-5 47.5v287q0 26 5.5 47.5t18.5 37t34.5 24t53.5 8.5q33 0 54 -8.5t33.5 -24t17.5 -37t5 -47.5v-55h-59v55q0 32 -11 48.5t-40 16.5t-40.5 -16.5t-11.5 -48.5v-287q0 -31 11.5 -47.5
t40.5 -16.5t40 16.5t11 47.5v66h59zM181 677l56 -127h-44l-38 74l-37 -74h-44l55 127h52z" />
    <glyph glyph-name="ccaron" unicode="&#x10d;" horiz-adv-x="312" 
d="M269 172v-66q0 -53 -22.5 -84.5t-87.5 -31.5q-33 0 -54.5 8.5t-34.5 23.5t-18 36.5t-5 47.5v287q0 26 5.5 47.5t18.5 37t34.5 24t53.5 8.5q33 0 54 -8.5t33.5 -24t17.5 -37t5 -47.5v-55h-59v55q0 32 -11 48.5t-40 16.5t-40.5 -16.5t-11.5 -48.5v-287q0 -31 11.5 -47.5
t40.5 -16.5t40 16.5t11 47.5v66h59zM129 550l-55 127h44l37 -74l38 74h44l-56 -127h-52z" />
    <glyph glyph-name="ccedilla" unicode="&#xe7;" horiz-adv-x="312" 
d="M138 -9q-53 5 -72 36t-19 79v287q0 26 5.5 47.5t18.5 37t34.5 24t53.5 8.5q33 0 54 -8.5t33.5 -24t17.5 -37t5 -47.5v-55h-59v55q0 32 -11 48.5t-40 16.5t-40.5 -16.5t-11.5 -48.5v-287q0 -31 11.5 -47.5t40.5 -16.5t40 16.5t11 47.5v66h59v-66q0 -50 -20 -81t-77 -34
l-7 -31q64 -9 64 -64q0 -30 -20 -48t-68 -18h-46l10 38h33q23 0 32 8t9 22q0 15 -9.5 23t-33.5 8h-14z" />
    <glyph glyph-name="cdotaccent" unicode="&#x10b;" horiz-adv-x="312" 
d="M269 172v-66q0 -53 -22.5 -84.5t-87.5 -31.5q-33 0 -54.5 8.5t-34.5 23.5t-18 36.5t-5 47.5v287q0 26 5.5 47.5t18.5 37t34.5 24t53.5 8.5q33 0 54 -8.5t33.5 -24t17.5 -37t5 -47.5v-55h-59v55q0 32 -11 48.5t-40 16.5t-40.5 -16.5t-11.5 -48.5v-287q0 -31 11.5 -47.5
t40.5 -16.5t40 16.5t11 47.5v66h59zM185 659v-74h-61v74h61z" />
    <glyph glyph-name="dcaron" unicode="&#x10f;" horiz-adv-x="357" 
d="M239 0l-16 31q-22 -41 -74 -41q-54 0 -75.5 28.5t-21.5 86.5v289q0 59 21 87.5t74 28.5q23 0 40.5 -10t27.5 -26v236h60v-710h-36zM215 392q0 29 -12 47.5t-41 18.5q-28 0 -39 -17.5t-11 -46.5v-288q0 -29 11 -46.5t39 -17.5q29 0 41 17.5t12 46.5v286zM372 710l-24 -194
h-33v194h57z" />
    <glyph glyph-name="ddotaccent" unicode="&#x1e0b;" 
d="M239 0l-16 31q-22 -41 -74 -41q-54 0 -75.5 28.5t-21.5 86.5v289q0 59 21 87.5t74 28.5q23 0 40.5 -10t27.5 -26v236h60v-710h-36zM215 392q0 29 -12 47.5t-41 18.5q-28 0 -39 -17.5t-11 -46.5v-288q0 -29 11 -46.5t39 -17.5q29 0 41 17.5t12 46.5v286zM165 659v-74h-61
v74h61z" />
    <glyph glyph-name="dcroat" unicode="&#x111;" 
d="M140 629h75v81h60v-710h-35l-16 31q-22 -41 -75 -41t-75 28.5t-22 86.5v289q0 59 21.5 87.5t74.5 28.5q23 0 40 -10t27 -26v109h-75v46zM215 392q0 29 -11.5 47.5t-40.5 18.5t-40 -19.5t-11 -51.5v-281q0 -29 12 -46.5t39 -17.5q32 0 42 23t10 59v268z" />
    <glyph glyph-name="eth" unicode="&#xf0;" 
d="M112 628l52 16q-24 36 -52 66h67q11 -11 20 -23.5t17 -26.5l59 19l12 -40l-50 -16q18 -39 28 -82t10 -87v-342q0 -56 -23.5 -89t-87.5 -33q-63 0 -87.5 32.5t-24.5 89.5v281q0 57 22 87t75 30q17 0 35.5 -7.5t31.5 -23.5q-4 66 -32 127l-59 -18zM163 457q-33 0 -42 -24
t-9 -59v-263q0 -31 12 -49t40 -18q29 0 40 18.5t11 48.5v297q-4 20 -18 34.5t-34 14.5z" />
    <glyph glyph-name="eacute" unicode="&#xe9;" horiz-adv-x="317" 
d="M269 172v-66q0 -53 -22.5 -84.5t-87.5 -31.5q-33 0 -54.5 8.5t-34.5 23.5t-18 36.5t-5 47.5v287q0 26 5.5 47.5t18 37t34 24t54.5 8.5t54 -8.5t33.5 -24t17.5 -37t5 -47.5v-145h-162v-142q0 -64 52 -64q29 0 40 16.5t11 47.5v66h59zM210 392q0 32 -11 49t-40 17
t-40.5 -16.5t-11.5 -48.5v-98h103v97zM230 677l-54 -127h-43l38 127h59z" />
    <glyph glyph-name="egrave" unicode="&#xe8;" horiz-adv-x="317" 
d="M269 172v-66q0 -53 -22.5 -84.5t-87.5 -31.5q-33 0 -54.5 8.5t-34.5 23.5t-18 36.5t-5 47.5v287q0 26 5.5 47.5t18 37t34 24t54.5 8.5t54 -8.5t33.5 -24t17.5 -37t5 -47.5v-145h-162v-142q0 -64 52 -64q29 0 40 16.5t11 47.5v66h59zM210 392q0 32 -11 49t-40 17
t-40.5 -16.5t-11.5 -48.5v-98h103v97zM165 677l37 -127h-42l-55 127h60z" />
    <glyph glyph-name="ecircumflex" unicode="&#xea;" horiz-adv-x="317" 
d="M269 172v-66q0 -53 -22.5 -84.5t-87.5 -31.5q-33 0 -54.5 8.5t-34.5 23.5t-18 36.5t-5 47.5v287q0 26 5.5 47.5t18 37t34 24t54.5 8.5t54 -8.5t33.5 -24t17.5 -37t5 -47.5v-145h-162v-142q0 -64 52 -64q29 0 40 16.5t11 47.5v66h59zM210 392q0 32 -11 49t-40 17
t-40.5 -16.5t-11.5 -48.5v-98h103v97zM179 677l56 -127h-44l-38 74l-37 -74h-44l55 127h52z" />
    <glyph glyph-name="edieresis" unicode="&#xeb;" horiz-adv-x="317" 
d="M269 172v-66q0 -53 -22.5 -84.5t-87.5 -31.5q-33 0 -54.5 8.5t-34.5 23.5t-18 36.5t-5 47.5v287q0 26 5.5 47.5t18 37t34 24t54.5 8.5t54 -8.5t33.5 -24t17.5 -37t5 -47.5v-145h-162v-142q0 -64 52 -64q29 0 40 16.5t11 47.5v66h59zM210 392q0 32 -11 49t-40 17
t-40.5 -16.5t-11.5 -48.5v-98h103v97zM130 659v-74h-61v74h61zM238 659v-74h-61v74h61z" />
    <glyph glyph-name="ecaron" unicode="&#x11b;" horiz-adv-x="317" 
d="M269 172v-66q0 -53 -22.5 -84.5t-87.5 -31.5q-33 0 -54.5 8.5t-34.5 23.5t-18 36.5t-5 47.5v287q0 26 5.5 47.5t18 37t34 24t54.5 8.5t54 -8.5t33.5 -24t17.5 -37t5 -47.5v-145h-162v-142q0 -64 52 -64q29 0 40 16.5t11 47.5v66h59zM210 392q0 32 -11 49t-40 17
t-40.5 -16.5t-11.5 -48.5v-98h103v97zM127 550l-55 127h44l37 -74l38 74h44l-56 -127h-52z" />
    <glyph glyph-name="emacron" unicode="&#x113;" horiz-adv-x="317" 
d="M269 172v-66q0 -53 -22.5 -84.5t-87.5 -31.5q-33 0 -54.5 8.5t-34.5 23.5t-18 36.5t-5 47.5v287q0 26 5.5 47.5t18 37t34 24t54.5 8.5t54 -8.5t33.5 -24t17.5 -37t5 -47.5v-145h-162v-142q0 -64 52 -64q29 0 40 16.5t11 47.5v66h59zM210 392q0 32 -11 49t-40 17
t-40.5 -16.5t-11.5 -48.5v-98h103v97zM69 639h170v-46h-170v46z" />
    <glyph glyph-name="ebreve" unicode="&#x115;" horiz-adv-x="317" 
d="M269 172v-66q0 -53 -22.5 -84.5t-87.5 -31.5q-33 0 -54.5 8.5t-34.5 23.5t-18 36.5t-5 47.5v287q0 26 5.5 47.5t18 37t34 24t54.5 8.5t54 -8.5t33.5 -24t17.5 -37t5 -47.5v-145h-162v-142q0 -64 52 -64q29 0 40 16.5t11 47.5v66h59zM210 392q0 32 -11 49t-40 17
t-40.5 -16.5t-11.5 -48.5v-98h103v97zM232 658q0 -50 -18.5 -75.5t-60.5 -25.5t-60 25.5t-18 75.5h38q0 -28 9 -41.5t31 -13.5t31 13.5t9 41.5h39z" />
    <glyph glyph-name="eogonek" unicode="&#x119;" horiz-adv-x="317" 
d="M225 -109v-54h-12q-42 0 -62.5 18t-20.5 50q0 25 10.5 47t27.5 39q-2 0 -5 -0.5t-5 -0.5q-65 0 -88 31.5t-23 84.5v287q0 26 5 47.5t18 37t34.5 24t53.5 8.5q33 0 54 -8.5t34 -24t18 -37t5 -47.5v-145h-162v-142q0 -32 11.5 -48t39.5 -16q29 0 40.5 16.5t11.5 47.5v66h59
v-66q0 -37 -10.5 -63.5t-38.5 -40.5q-20 -17 -30.5 -37.5t-10.5 -41.5q0 -32 35 -32h11zM210 372q0 42 -9 64t-43 22q-29 0 -40 -16.5t-11 -48.5v-98h103v77z" />
    <glyph glyph-name="edotaccent" unicode="&#x117;" horiz-adv-x="317" 
d="M269 172v-66q0 -53 -22.5 -84.5t-87.5 -31.5q-33 0 -54.5 8.5t-34.5 23.5t-18 36.5t-5 47.5v287q0 26 5.5 47.5t18 37t34 24t54.5 8.5t54 -8.5t33.5 -24t17.5 -37t5 -47.5v-145h-162v-142q0 -64 52 -64q29 0 40 16.5t11 47.5v66h59zM210 392q0 32 -11 49t-40 17
t-40.5 -16.5t-11.5 -48.5v-98h103v97zM184 659v-74h-61v74h61z" />
    <glyph glyph-name="fdotaccent" unicode="&#x1e1f;" horiz-adv-x="231" 
d="M174 720q22 0 39 -6v-53q-14 7 -37 7q-28 0 -38 -13.5t-10 -46.5v-108h73v-53h-73v-447h-60v447h-46v53h46v108q0 55 21.5 83.5t84.5 28.5zM169 843v-74h-61v74h61z" />
    <glyph glyph-name="gcircumflex" unicode="&#x11d;" horiz-adv-x="318" 
d="M155 113q-41 0 -41 -28t41 -28q70 0 97.5 -30t27.5 -80v-9q0 -46 -27.5 -77t-96.5 -31q-68 0 -96 30t-28 78v9q0 35 14 61t49 39q-26 12 -26 38t28 38q-31 13 -42 40.5t-11 66.5v162q0 26 5 48t18 37.5t34 24t54 8.5q14 0 25.5 -2t21.5 -5q10 29 28 43.5t42 14.5
q17 0 29 -4v-47q-8 2 -14.5 3.5t-17.5 1.5q-28 0 -41 -24q22 -15 30.5 -40.5t8.5 -58.5v-162q0 -53 -23.5 -85t-88.5 -32zM155 458q-31 0 -41 -17.5t-10 -52.5v-160q0 -32 11 -49t40 -17t40.5 16t11.5 54v160q0 31 -11.5 48.5t-40.5 17.5zM156 14q-35 0 -50 -16t-15 -46v-9
q0 -61 65 -61q35 0 50 15.5t15 45.5v9q0 31 -15 46.5t-50 15.5zM178 692l56 -127h-44l-38 74l-37 -74h-44l55 127h52z" />
    <glyph glyph-name="gbreve" unicode="&#x11f;" horiz-adv-x="318" 
d="M155 113q-41 0 -41 -28t41 -28q70 0 97.5 -30t27.5 -80v-9q0 -46 -27.5 -77t-96.5 -31q-68 0 -96 30t-28 78v9q0 35 14 61t49 39q-26 12 -26 38t28 38q-31 13 -42 40.5t-11 66.5v162q0 26 5 48t18 37.5t34 24t54 8.5q14 0 25.5 -2t21.5 -5q10 29 28 43.5t42 14.5
q17 0 29 -4v-47q-8 2 -14.5 3.5t-17.5 1.5q-28 0 -41 -24q22 -15 30.5 -40.5t8.5 -58.5v-162q0 -53 -23.5 -85t-88.5 -32zM155 458q-31 0 -41 -17.5t-10 -52.5v-160q0 -32 11 -49t40 -17t40.5 16t11.5 54v160q0 31 -11.5 48.5t-40.5 17.5zM156 14q-35 0 -50 -16t-15 -46v-9
q0 -61 65 -61q35 0 50 15.5t15 45.5v9q0 31 -15 46.5t-50 15.5zM233 658q0 -50 -18.5 -75.5t-60.5 -25.5t-60 25.5t-18 75.5h38q0 -28 9 -41.5t31 -13.5t31 13.5t9 41.5h39z" />
    <glyph glyph-name="gdotaccent" unicode="&#x121;" horiz-adv-x="318" 
d="M155 113q-41 0 -41 -28t41 -28q70 0 97.5 -30t27.5 -80v-9q0 -46 -27.5 -77t-96.5 -31q-68 0 -96 30t-28 78v9q0 35 14 61t49 39q-26 12 -26 38t28 38q-31 13 -42 40.5t-11 66.5v162q0 26 5 48t18 37.5t34 24t54 8.5q14 0 25.5 -2t21.5 -5q10 29 28 43.5t42 14.5
q17 0 29 -4v-47q-8 2 -14.5 3.5t-17.5 1.5q-28 0 -41 -24q22 -15 30.5 -40.5t8.5 -58.5v-162q0 -53 -23.5 -85t-88.5 -32zM155 458q-31 0 -41 -17.5t-10 -52.5v-160q0 -32 11 -49t40 -17t40.5 16t11.5 54v160q0 31 -11.5 48.5t-40.5 17.5zM156 14q-35 0 -50 -16t-15 -46v-9
q0 -61 65 -61q35 0 50 15.5t15 45.5v9q0 31 -15 46.5t-50 15.5zM181 659v-74h-61v74h61z" />
    <glyph glyph-name="gcommaaccent" unicode="&#x123;" horiz-adv-x="318" 
d="M155 113q-41 0 -41 -28t41 -28q70 0 97.5 -30t27.5 -80v-9q0 -46 -27.5 -77t-96.5 -31q-68 0 -96 30t-28 78v9q0 35 14 61t49 39q-26 12 -26 38t28 38q-31 13 -42 40.5t-11 66.5v162q0 26 5 48t18 37.5t34 24t54 8.5q14 0 25.5 -2t21.5 -5q10 29 28 43.5t42 14.5
q17 0 29 -4v-47q-8 2 -14.5 3.5t-17.5 1.5q-28 0 -41 -24q22 -15 30.5 -40.5t8.5 -58.5v-162q0 -53 -23.5 -85t-88.5 -32zM155 458q-31 0 -41 -17.5t-10 -52.5v-160q0 -32 11 -49t40 -17t40.5 16t11.5 54v160q0 31 -11.5 48.5t-40.5 17.5zM156 14q-35 0 -50 -16t-15 -46v-9
q0 -61 65 -61q35 0 50 15.5t15 45.5v9q0 31 -15 46.5t-50 15.5zM121.006 555.996l25.999 121.993h36.9971v-121.993h-62.9961z" />
    <glyph glyph-name="hcircumflex" unicode="&#x125;" 
d="M52 0v710h60v-237q10 17 27.5 27t39.5 10q53 0 74.5 -28.5t21.5 -86.5v-395h-60v395q0 29 -11 46t-39 17q-29 0 -41 -17.5t-12 -46.5v-394h-60zM109 878l56 -127h-44l-38 74l-37 -74h-44l55 127h52z" />
    <glyph glyph-name="hbar" unicode="&#x127;" horiz-adv-x="323" 
d="M49 0v710h60v-81h150v-43h-150v-113q10 17 27.5 27t39.5 10q53 0 74.5 -28.5t21.5 -86.5v-395h-60v395q0 28 -11.5 45.5t-39.5 17.5q-20 0 -30.5 -9.5t-15.5 -24.5t-5.5 -34t-0.5 -38v-352h-60z" />
    <glyph glyph-name="dotlessi" unicode="&#x131;" horiz-adv-x="161" 
d="M110 500v-500h-60v500h60z" />
    <glyph glyph-name="iacute" unicode="&#xed;" horiz-adv-x="161" 
d="M152 677l-54 -127h-43l38 127h59zM110 500v-500h-60v500h60z" />
    <glyph glyph-name="igrave" unicode="&#xec;" horiz-adv-x="161" 
d="M68 677l37 -127h-42l-55 127h60zM110 500v-500h-60v500h60z" />
    <glyph glyph-name="icircumflex" unicode="&#xee;" horiz-adv-x="161" 
d="M110 500v-500h-60v500h60zM107 677l56 -127h-44l-38 74l-37 -74h-44l55 127h52z" />
    <glyph glyph-name="idieresis" unicode="&#xef;" horiz-adv-x="161" 
d="M58 659v-74h-61v74h61zM166 659v-74h-61v74h61zM110 500v-500h-60v500h60z" />
    <glyph glyph-name="itilde" unicode="&#x129;" horiz-adv-x="161" 
d="M130 560q-19 0 -31 6.5t-21 14.5t-18.5 14.5t-22.5 6.5q-16 0 -22 -8t-6 -24h-38q0 40 13 60.5t50 20.5q19 0 30.5 -6.5t21 -14.5t18.5 -14.5t23 -6.5q16 0 22 8t6 24h38q0 -41 -14 -61t-49 -20zM110 500v-500h-60v500h60z" />
    <glyph glyph-name="imacron" unicode="&#x12b;" horiz-adv-x="161" 
d="M-4 639h170v-46h-170v46zM110 500v-500h-60v500h60z" />
    <glyph glyph-name="ibreve" unicode="&#x12d;" horiz-adv-x="161" 
d="M160 658q0 -50 -18.5 -75.5t-60.5 -25.5t-60 25.5t-18 75.5h38q0 -28 9 -41.5t31 -13.5t31 13.5t9 41.5h39zM110 500v-500h-60v500h60z" />
    <glyph glyph-name="iogonek" unicode="&#x12f;" horiz-adv-x="161" 
d="M110 -115v-55h-12q-43 0 -63.5 18t-20.5 50q0 31 16.5 57.5t41.5 44.5h-22v500h60v-500q-23 -18 -35 -39.5t-12 -43.5q0 -32 35 -32h12zM110 658v-74h-61v74h61z" />
    <glyph glyph-name="jcircumflex" unicode="&#x135;" horiz-adv-x="164" 
d="M50 500h60v-558q0 -55 -22 -83.5t-85 -28.5q-9 0 -19.5 1.5t-18.5 4.5v53q14 -7 36 -7q28 0 38.5 14t10.5 46v558zM106 677l56 -127h-44l-38 74l-37 -74h-44l55 127h52z" />
    <glyph glyph-name="kcommaaccent" unicode="&#x137;" horiz-adv-x="298" 
d="M112 282l97 218h66l-113 -241l123 -259h-67l-106 234v-234h-60v710h60v-428zM177 -58l-26 -122h-37v122h63z" />
    <glyph glyph-name="kgreenlandic" unicode="&#x138;" horiz-adv-x="298" 
d="M112 282l97 218h66l-113 -241l123 -259h-67l-106 234v-234h-60v500h60v-218z" />
    <glyph glyph-name="lacute" unicode="&#x13a;" horiz-adv-x="160" 
d="M112 710v-710h-60v710h60zM155 877l-54 -127h-43l38 127h59z" />
    <glyph glyph-name="lcaron" unicode="&#x13e;" horiz-adv-x="189" 
d="M112 710v-710h-60v710h60zM204 710l-24 -194h-33v194h57z" />
    <glyph glyph-name="lcommaaccent" unicode="&#x13c;" horiz-adv-x="160" 
d="M112 710v-710h-60v710h60zM110 -58l-26 -122h-37v122h63z" />
    <glyph glyph-name="ldot" unicode="&#x140;" horiz-adv-x="227" 
d="M112 710v-710h-60v710h60zM217 318v-77h-67v77h67z" />
    <glyph glyph-name="lslash" unicode="&#x142;" horiz-adv-x="160" 
d="M109 710v-381l51 19v-46l-51 -19v-283h-60v261l-49 -18v46l49 18v403h60z" />
    <glyph glyph-name="mdotaccent" unicode="&#x1e41;" horiz-adv-x="487" 
d="M214 395q0 26 -10 44.5t-39 18.5q-28 0 -40.5 -17t-12.5 -46v-395h-60v500h36l16 -32q25 42 76 42q31 0 50 -11t29 -31q11 18 32 30t51 12q52 0 73 -29t21 -83v-398h-60v395q0 27 -10 45t-39 18q-27 0 -40 -16.5t-13 -45.5v-396h-60v395zM273 659v-74h-61v74h61z" />
    <glyph glyph-name="nacute" unicode="&#x144;" 
d="M52 0v500h36l16 -32q11 20 29.5 31t44.5 11q54 0 75.5 -28.5t21.5 -86.5v-395h-60v395q0 29 -11 46t-39 17q-29 0 -41 -17t-12 -47v-394h-60zM241 677l-54 -127h-43l38 127h59z" />
    <glyph glyph-name="ntilde" unicode="&#xf1;" 
d="M52 0v500h36l16 -32q11 20 29.5 31t44.5 11q54 0 75.5 -28.5t21.5 -86.5v-395h-60v395q0 29 -11 46t-39 17q-29 0 -41 -17t-12 -47v-394h-60zM211 560q-19 0 -31 6.5t-21 14.5t-18.5 14.5t-22.5 6.5q-16 0 -22 -8t-6 -24h-38q0 40 13 60.5t50 20.5q19 0 30.5 -6.5
t21 -14.5t18.5 -14.5t23 -6.5q16 0 22 8t6 24h38q0 -41 -14 -61t-49 -20z" />
    <glyph glyph-name="ncaron" unicode="&#x148;" 
d="M52 0v500h36l16 -32q11 20 29.5 31t44.5 11q54 0 75.5 -28.5t21.5 -86.5v-395h-60v395q0 29 -11 46t-39 17q-29 0 -41 -17t-12 -47v-394h-60zM137 550l-55 127h44l37 -74l38 74h44l-56 -127h-52z" />
    <glyph glyph-name="ncommaaccent" unicode="&#x146;" 
d="M52 0v500h36l16 -32q11 20 29.5 31t44.5 11q54 0 75.5 -28.5t21.5 -86.5v-395h-60v395q0 29 -11 46t-39 17q-29 0 -41 -17t-12 -47v-394h-60zM195 -58l-26 -122h-37v122h63z" />
    <glyph glyph-name="eng" unicode="&#x14b;" 
d="M215 395q0 28 -11.5 45.5t-39.5 17.5t-40 -18t-12 -46v-394h-60v500h36l16 -32q11 20 29.5 31t44.5 11q54 0 75.5 -28.5t21.5 -86.5v-453q0 -55 -21.5 -83.5t-84.5 -28.5q-10 0 -20.5 1.5t-18.5 4.5v53q14 -7 36 -7q28 0 38.5 14t10.5 46v453z" />
    <glyph glyph-name="oacute" unicode="&#xf3;" horiz-adv-x="318" 
d="M159 510q32 0 53.5 -8.5t34 -24t18 -37t5.5 -47.5v-287q0 -53 -23 -84.5t-88 -31.5q-33 0 -54.5 8.5t-34.5 23.5t-18 36.5t-5 47.5v287q0 26 5.5 47.5t18.5 37t34.5 24t53.5 8.5zM159 42q29 0 40 16.5t11 47.5v287q0 32 -11 48.5t-40 16.5t-40.5 -16.5t-11.5 -48.5v-287
q0 -31 11.5 -47.5t40.5 -16.5zM231 677l-54 -127h-43l38 127h59z" />
    <glyph glyph-name="ograve" unicode="&#xf2;" horiz-adv-x="318" 
d="M159 510q32 0 53.5 -8.5t34 -24t18 -37t5.5 -47.5v-287q0 -53 -23 -84.5t-88 -31.5q-33 0 -54.5 8.5t-34.5 23.5t-18 36.5t-5 47.5v287q0 26 5.5 47.5t18.5 37t34.5 24t53.5 8.5zM159 42q29 0 40 16.5t11 47.5v287q0 32 -11 48.5t-40 16.5t-40.5 -16.5t-11.5 -48.5v-287
q0 -31 11.5 -47.5t40.5 -16.5zM146 677l37 -127h-42l-55 127h60z" />
    <glyph glyph-name="ocircumflex" unicode="&#xf4;" horiz-adv-x="318" 
d="M159 510q32 0 53.5 -8.5t34 -24t18 -37t5.5 -47.5v-287q0 -53 -23 -84.5t-88 -31.5q-33 0 -54.5 8.5t-34.5 23.5t-18 36.5t-5 47.5v287q0 26 5.5 47.5t18.5 37t34.5 24t53.5 8.5zM159 42q29 0 40 16.5t11 47.5v287q0 32 -11 48.5t-40 16.5t-40.5 -16.5t-11.5 -48.5v-287
q0 -31 11.5 -47.5t40.5 -16.5zM184 677l56 -127h-44l-38 74l-37 -74h-44l55 127h52z" />
    <glyph glyph-name="odieresis" unicode="&#xf6;" horiz-adv-x="318" 
d="M159 510q32 0 53.5 -8.5t34 -24t18 -37t5.5 -47.5v-287q0 -53 -23 -84.5t-88 -31.5q-33 0 -54.5 8.5t-34.5 23.5t-18 36.5t-5 47.5v287q0 26 5.5 47.5t18.5 37t34.5 24t53.5 8.5zM159 42q29 0 40 16.5t11 47.5v287q0 32 -11 48.5t-40 16.5t-40.5 -16.5t-11.5 -48.5v-287
q0 -31 11.5 -47.5t40.5 -16.5zM135 659v-74h-61v74h61zM243 659v-74h-61v74h61z" />
    <glyph glyph-name="otilde" unicode="&#xf5;" horiz-adv-x="318" 
d="M159 510q32 0 53.5 -8.5t34 -24t18 -37t5.5 -47.5v-287q0 -53 -23 -84.5t-88 -31.5q-33 0 -54.5 8.5t-34.5 23.5t-18 36.5t-5 47.5v287q0 26 5.5 47.5t18.5 37t34.5 24t53.5 8.5zM159 42q29 0 40 16.5t11 47.5v287q0 32 -11 48.5t-40 16.5t-40.5 -16.5t-11.5 -48.5v-287
q0 -31 11.5 -47.5t40.5 -16.5zM206 560q-19 0 -31 6.5t-21 14.5t-18.5 14.5t-22.5 6.5q-16 0 -22 -8t-6 -24h-38q0 40 13 60.5t50 20.5q19 0 30.5 -6.5t21 -14.5t18.5 -14.5t23 -6.5q16 0 22 8t6 24h38q0 -41 -14 -61t-49 -20z" />
    <glyph glyph-name="obreve" unicode="&#x14f;" horiz-adv-x="318" 
d="M159 510q32 0 53.5 -8.5t34 -24t18 -37t5.5 -47.5v-287q0 -53 -23 -84.5t-88 -31.5q-33 0 -54.5 8.5t-34.5 23.5t-18 36.5t-5 47.5v287q0 26 5.5 47.5t18.5 37t34.5 24t53.5 8.5zM159 42q29 0 40 16.5t11 47.5v287q0 32 -11 48.5t-40 16.5t-40.5 -16.5t-11.5 -48.5v-287
q0 -31 11.5 -47.5t40.5 -16.5zM237 658q0 -50 -18.5 -75.5t-60.5 -25.5t-60 25.5t-18 75.5h38q0 -28 9 -41.5t31 -13.5t31 13.5t9 41.5h39z" />
    <glyph glyph-name="omacron" unicode="&#x14d;" horiz-adv-x="318" 
d="M159 510q32 0 53.5 -8.5t34 -24t18 -37t5.5 -47.5v-287q0 -53 -23 -84.5t-88 -31.5q-33 0 -54.5 8.5t-34.5 23.5t-18 36.5t-5 47.5v287q0 26 5.5 47.5t18.5 37t34.5 24t53.5 8.5zM159 42q29 0 40 16.5t11 47.5v287q0 32 -11 48.5t-40 16.5t-40.5 -16.5t-11.5 -48.5v-287
q0 -31 11.5 -47.5t40.5 -16.5zM73 639h170v-46h-170v46z" />
    <glyph glyph-name="ohungarumlaut" unicode="&#x151;" horiz-adv-x="318" 
d="M159 510q32 0 53.5 -8.5t34 -24t18 -37t5.5 -47.5v-287q0 -53 -23 -84.5t-88 -31.5q-33 0 -54.5 8.5t-34.5 23.5t-18 36.5t-5 47.5v287q0 26 5.5 47.5t18.5 37t34.5 24t53.5 8.5zM159 42q29 0 40 16.5t11 47.5v287q0 32 -11 48.5t-40 16.5t-40.5 -16.5t-11.5 -48.5v-287
q0 -31 11.5 -47.5t40.5 -16.5zM169 677l-39 -127h-43l23 127h59zM274 677l-49 -127h-43l33 127h59z" />
    <glyph glyph-name="oslash" unicode="&#xf8;" horiz-adv-x="313" 
d="M156 510q15 0 29 -3l4 23h26l-5 -29q32 -13 44.5 -41t12.5 -67v-287q0 -53 -23 -84.5t-88 -31.5q-8 0 -15.5 0.5t-14.5 1.5l-4 -22h-25l4 28q-32 12 -44.5 40.5t-12.5 67.5v287q0 26 5.5 47.5t18.5 37t34.5 24t53.5 8.5zM99 106q0 -34 12 -50l66 403q-5 2 -10 3t-11 1
q-32 0 -44.5 -18t-12.5 -52v-287zM156 37q32 0 44 17.5t12 51.5v287q0 34 -12 50l-66 -404q5 -1 10 -1.5t12 -0.5z" />
    <glyph glyph-name="oe" unicode="&#x153;" horiz-adv-x="475" 
d="M429 172v-66q0 -53 -22.5 -84.5t-87.5 -31.5q-29 0 -49 8.5t-32 23.5q-12 -15 -32 -23.5t-50 -8.5q-33 0 -54.5 8.5t-34.5 23.5t-18 36.5t-5 47.5v287q0 26 5.5 47.5t18.5 37t34.5 24t53.5 8.5q29 0 49 -9t32 -24q25 33 82 33q33 0 54 -8.5t33.5 -24t17.5 -37t5 -47.5
v-145h-162v-142q0 -64 52 -64q29 0 40 16.5t11 47.5v66h59zM156 458q-34 0 -43 -22.5t-9 -62.5v-267q0 -32 12 -48t40 -16q33 0 42 21.5t9 63.5v266q0 32 -12 48.5t-39 16.5zM370 387q0 35 -10.5 53t-40.5 18q-29 0 -40.5 -16.5t-11.5 -48.5v-98h103v92z" />
    <glyph glyph-name="thorn" unicode="&#xfe;" 
d="M52 710h60v-236q10 16 27.5 26t40.5 10q53 0 74 -28.5t21 -86.5v-290q0 -115 -95 -115q-23 0 -40.5 10t-27.5 26v-186h-60v870zM112 143q0 -20 1 -38.5t6 -32.5t15.5 -22t30.5 -8q29 0 39.5 16.5t10.5 46.5v254q0 20 -1 38t-5.5 31.5t-14.5 21.5t-29 8q-29 0 -41 -17.5
t-12 -46.5v-251z" />
    <glyph glyph-name="pdotaccent" unicode="&#x1e57;" 
d="M88 500l16 -32q22 42 74 42q54 0 75.5 -29.5t21.5 -85.5v-289q0 -59 -21.5 -87.5t-73.5 -28.5q-23 0 -40.5 10t-27.5 26v-186h-60v660h36zM112 132q0 -19 2 -35.5t7.5 -28.5t16 -19t27.5 -7q28 0 39 17.5t11 46.5v288q0 29 -11 46.5t-39 17.5q-29 0 -41 -17.5t-12 -47.5
v-261zM190 659v-74h-61v74h61z" />
    <glyph glyph-name="racute" unicode="&#x155;" horiz-adv-x="212" 
d="M189 451q-42 4 -59.5 -17.5t-17.5 -61.5v-372h-60v500h42l15 -31q11 20 29.5 32t50.5 12v-62zM185 677l-54 -127h-43l38 127h59z" />
    <glyph glyph-name="rcaron" unicode="&#x159;" horiz-adv-x="212" 
d="M189 451q-42 4 -59.5 -17.5t-17.5 -61.5v-372h-60v500h42l15 -31q11 20 29.5 32t50.5 12v-62zM94 550l-55 127h44l37 -74l38 74h44l-56 -127h-52z" />
    <glyph glyph-name="rcommaaccent" unicode="&#x157;" horiz-adv-x="212" 
d="M189 451q-42 4 -59.5 -17.5t-17.5 -61.5v-372h-60v500h42l15 -31q11 20 29.5 32t50.5 12v-62zM115 -58l-26 -122h-37v122h63z" />
    <glyph glyph-name="sacute" unicode="&#x15b;" horiz-adv-x="301" 
d="M42 395q0 26 5 47.5t17.5 36.5t33.5 23t52 8q63 0 85.5 -31t22.5 -84v-57h-59v57q0 34 -11.5 48.5t-37.5 14.5t-37.5 -15t-11.5 -48v-19q0 -31 11.5 -50t29 -32.5t38 -24.5t38 -26t29 -38.5t11.5 -60.5v-40q0 -26 -5 -47t-17 -36t-33 -23t-53 -8t-53 8t-33 23t-17 36
t-5 47v68h59v-68q0 -34 11.5 -48t37.5 -14t37.5 14.5t11.5 47.5v38q0 30 -11.5 48.5t-29 31.5t-38 24t-38 27t-29 40t-11.5 63v19zM227 677l-54 -127h-43l38 127h59z" />
    <glyph glyph-name="scircumflex" unicode="&#x15d;" horiz-adv-x="301" 
d="M42 395q0 26 5 47.5t17.5 36.5t33.5 23t52 8q63 0 85.5 -31t22.5 -84v-57h-59v57q0 34 -11.5 48.5t-37.5 14.5t-37.5 -15t-11.5 -48v-19q0 -31 11.5 -50t29 -32.5t38 -24.5t38 -26t29 -38.5t11.5 -60.5v-40q0 -26 -5 -47t-17 -36t-33 -23t-53 -8t-53 8t-33 23t-17 36
t-5 47v68h59v-68q0 -34 11.5 -48t37.5 -14t37.5 14.5t11.5 47.5v38q0 30 -11.5 48.5t-29 31.5t-38 24t-38 27t-29 40t-11.5 63v19zM175 677l56 -127h-44l-38 74l-37 -74h-44l55 127h52z" />
    <glyph glyph-name="scaron" unicode="&#x161;" horiz-adv-x="301" 
d="M42 395q0 26 5 47.5t17.5 36.5t33.5 23t52 8q63 0 85.5 -31t22.5 -84v-57h-59v57q0 34 -11.5 48.5t-37.5 14.5t-37.5 -15t-11.5 -48v-19q0 -31 11.5 -50t29 -32.5t38 -24.5t38 -26t29 -38.5t11.5 -60.5v-40q0 -26 -5 -47t-17 -36t-33 -23t-53 -8t-53 8t-33 23t-17 36
t-5 47v68h59v-68q0 -34 11.5 -48t37.5 -14t37.5 14.5t11.5 47.5v38q0 30 -11.5 48.5t-29 31.5t-38 24t-38 27t-29 40t-11.5 63v19zM123 550l-55 127h44l37 -74l38 74h44l-56 -127h-52z" />
    <glyph glyph-name="sdotaccent" unicode="&#x1e61;" horiz-adv-x="301" 
d="M42 395q0 26 5 47.5t17.5 36.5t33.5 23t52 8q63 0 85.5 -31t22.5 -84v-57h-59v57q0 34 -11.5 48.5t-37.5 14.5t-37.5 -15t-11.5 -48v-19q0 -31 11.5 -50t29 -32.5t38 -24.5t38 -26t29 -38.5t11.5 -60.5v-40q0 -26 -5 -47t-17 -36t-33 -23t-53 -8t-53 8t-33 23t-17 36
t-5 47v68h59v-68q0 -34 11.5 -48t37.5 -14t37.5 14.5t11.5 47.5v38q0 30 -11.5 48.5t-29 31.5t-38 24t-38 27t-29 40t-11.5 63v19zM180 659v-74h-61v74h61z" />
    <glyph glyph-name="scedilla" unicode="&#x15f;" horiz-adv-x="301" 
d="M126 -9q-49 6 -66.5 35.5t-17.5 77.5v68h59v-68q0 -34 11.5 -48t37.5 -14t37.5 14.5t11.5 47.5v38q0 30 -11.5 48.5t-29 31.5t-38 24t-38 27t-29 40t-11.5 63v19q0 26 5 47.5t17.5 36.5t33.5 23t52 8q63 0 85.5 -31t22.5 -84v-57h-59v57q0 34 -11.5 48.5t-37.5 14.5
t-37.5 -15t-11.5 -48v-19q0 -31 11.5 -50t29 -32.5t38 -24.5t38 -26t29 -38.5t11.5 -60.5v-40q0 -50 -20 -80.5t-78 -33.5l-7 -30q64 -9 64 -64q0 -30 -20 -48t-68 -18h-46l10 38h33q23 0 32 8t9 22q0 15 -9.5 23t-33.5 8h-14z" />
    <glyph glyph-name="scommaaccent" unicode="&#x219;" horiz-adv-x="301" 
d="M42 395q0 26 5 47.5t17.5 36.5t33.5 23t52 8q63 0 85.5 -31t22.5 -84v-57h-59v57q0 34 -11.5 48.5t-37.5 14.5t-37.5 -15t-11.5 -48v-19q0 -31 11.5 -50t29 -32.5t38 -24.5t38 -26t29 -38.5t11.5 -60.5v-40q0 -26 -5 -47t-17 -36t-33 -23t-53 -8t-53 8t-33 23t-17 36
t-5 47v68h59v-68q0 -34 11.5 -48t37.5 -14t37.5 14.5t11.5 47.5v38q0 30 -11.5 48.5t-29 31.5t-38 24t-38 27t-29 40t-11.5 63v19zM181 -58l-26 -122h-37v122h63z" />
    <glyph glyph-name="germandbls" unicode="&#xdf;" horiz-adv-x="319" 
d="M140 44q5 -1 10.5 -1.5t12.5 -0.5q32 0 41.5 14.5t9.5 44.5v180q0 18 -1 34.5t-6.5 28.5t-17 19t-33.5 7h-4v58h2q29 0 40.5 15t11.5 44v121q0 27 -12 43.5t-38 16.5q-28 0 -38.5 -15.5t-10.5 -44.5v-608h-60v607q0 54 24 83.5t85 29.5t85.5 -29.5t24.5 -83.5v-114
q0 -40 -11 -60.5t-37 -32.5q29 -11 42.5 -32.5t13.5 -59.5v-202q0 -27 -4.5 -48.5t-17 -36.5t-34 -23t-54.5 -8q-6 0 -12 1l-12 2v51z" />
    <glyph glyph-name="tcaron" unicode="&#x165;" horiz-adv-x="242" 
d="M229 710l-22 -174h-35v174h57zM22 500h49v131q16 5 30.5 8t29.5 8v-147h79v-53h-79v-346q0 -31 10 -45t36 -14q11 0 19 1.5t18 5.5v-51q-7 -3 -19 -5.5t-21 -2.5q-60 0 -81.5 28t-21.5 83v346h-49v53z" />
    <glyph glyph-name="tdotaccent" unicode="&#x1e6b;" horiz-adv-x="242" 
d="M22 500h49v131q16 5 30.5 8t29.5 8v-147h79v-53h-79v-346q0 -31 10 -45t36 -14q11 0 19 1.5t18 5.5v-51q-7 -3 -19 -5.5t-21 -2.5q-60 0 -81.5 28t-21.5 83v346h-49v53zM131 768v-74h-61v74h61z" />
    <glyph glyph-name="tcommaaccent" unicode="&#x21b;" horiz-adv-x="242" 
d="M22 500h49v131q16 5 30.5 8t29.5 8v-147h79v-53h-79v-346q0 -31 10 -45t36 -14q11 0 19 1.5t18 5.5v-51q-7 -3 -19 -5.5t-21 -2.5q-60 0 -81.5 28t-21.5 83v346h-49v53zM167 -58l-26 -122h-37v122h63z" />
    <glyph glyph-name="tbar" unicode="&#x167;" horiz-adv-x="242" 
d="M32 280h39v167h-49v53h49v131l60 16v-147h79v-53h-79v-167h58v-46h-58v-133q0 -32 9 -45.5t37 -13.5q11 0 19 1.5t18 5.5v-52q-7 -3 -19 -5t-21 -2q-31 0 -51 7t-31.5 21t-16 35t-4.5 48v133h-39v46z" />
    <glyph glyph-name="uacute" unicode="&#xfa;" 
d="M275 500v-500h-35l-16 32q-22 -42 -75 -42t-75 28.5t-22 86.5v395h60v-395q0 -29 11 -46t40 -17t40.5 17t11.5 46v395h60zM241 677l-54 -127h-43l38 127h59z" />
    <glyph glyph-name="ugrave" unicode="&#xf9;" 
d="M275 500v-500h-35l-16 32q-22 -42 -75 -42t-75 28.5t-22 86.5v395h60v-395q0 -29 11 -46t40 -17t40.5 17t11.5 46v395h60zM149 677l37 -127h-42l-55 127h60z" />
    <glyph glyph-name="ucircumflex" unicode="&#xfb;" 
d="M275 500v-500h-35l-16 32q-22 -42 -75 -42t-75 28.5t-22 86.5v395h60v-395q0 -29 11 -46t40 -17t40.5 17t11.5 46v395h60zM189 677l56 -127h-44l-38 74l-37 -74h-44l55 127h52z" />
    <glyph glyph-name="udieresis" unicode="&#xfc;" 
d="M275 500v-500h-35l-16 32q-22 -42 -75 -42t-75 28.5t-22 86.5v395h60v-395q0 -29 11 -46t40 -17t40.5 17t11.5 46v395h60zM140 659v-74h-61v74h61zM248 659v-74h-61v74h61z" />
    <glyph glyph-name="utilde" unicode="&#x169;" 
d="M275 500v-500h-35l-16 32q-22 -42 -75 -42t-75 28.5t-22 86.5v395h60v-395q0 -29 11 -46t40 -17t40.5 17t11.5 46v395h60zM211 560q-19 0 -31 6.5t-21 14.5t-18.5 14.5t-22.5 6.5q-16 0 -22 -8t-6 -24h-38q0 40 13 60.5t50 20.5q19 0 30.5 -6.5t21 -14.5t18.5 -14.5
t23 -6.5q16 0 22 8t6 24h38q0 -41 -14 -61t-49 -20z" />
    <glyph glyph-name="uring" unicode="&#x16f;" 
d="M275 500v-500h-35l-16 32q-22 -42 -75 -42t-75 28.5t-22 86.5v395h60v-395q0 -29 11 -46t40 -17t40.5 17t11.5 46v395h60zM231 622q0 -35 -16 -55t-52 -20t-52 20t-16 55t16 56t52 21t52 -21t16 -56zM192 622q0 20 -7 31.5t-22 11.5t-22 -11.5t-7 -31.5q0 -19 7 -30
t22 -11t22 11t7 30z" />
    <glyph glyph-name="ubreve" unicode="&#x16d;" 
d="M275 500v-500h-35l-16 32q-22 -42 -75 -42t-75 28.5t-22 86.5v395h60v-395q0 -29 11 -46t40 -17t40.5 17t11.5 46v395h60zM242 658q0 -50 -18.5 -75.5t-60.5 -25.5t-60 25.5t-18 75.5h38q0 -28 9 -41.5t31 -13.5t31 13.5t9 41.5h39z" />
    <glyph glyph-name="umacron" unicode="&#x16b;" 
d="M275 500v-500h-35l-16 32q-22 -42 -75 -42t-75 28.5t-22 86.5v395h60v-395q0 -29 11 -46t40 -17t40.5 17t11.5 46v395h60zM78 639h170v-46h-170v46z" />
    <glyph glyph-name="uhungarumlaut" unicode="&#x171;" 
d="M275 500v-500h-35l-16 32q-22 -42 -75 -42t-75 28.5t-22 86.5v395h60v-395q0 -29 11 -46t40 -17t40.5 17t11.5 46v395h60zM174 677l-39 -127h-43l23 127h59zM279 677l-49 -127h-43l33 127h59z" />
    <glyph glyph-name="uogonek" unicode="&#x173;" 
d="M275 -115v-55h-12q-43 0 -63.5 18t-20.5 50q0 31 17 57.5t43 45.5l-15 31q-22 -42 -75 -42t-75 28.5t-22 86.5v395h60v-395q0 -29 11 -46t40 -17t40.5 17t11.5 46v395h60v-500q-23 -18 -35 -39.5t-12 -43.5q0 -32 35 -32h12z" />
    <glyph glyph-name="wacute" unicode="&#x1e83;" horiz-adv-x="469" 
d="M235 400l-61 -400h-68l-80 500h62l54 -413q15 103 30.5 206t31.5 207h62q15 -104 30.5 -207t31.5 -206l54 413h61l-79 -500h-69zM314 677l-54 -127h-43l38 127h59z" />
    <glyph glyph-name="wgrave" unicode="&#x1e81;" horiz-adv-x="469" 
d="M235 400l-61 -400h-68l-80 500h62l54 -413q15 103 30.5 206t31.5 207h62q15 -104 30.5 -207t31.5 -206l54 413h61l-79 -500h-69zM215 677l37 -127h-42l-55 127h60z" />
    <glyph glyph-name="wcircumflex" unicode="&#x175;" horiz-adv-x="469" 
d="M235 400l-61 -400h-68l-80 500h62l54 -413q15 103 30.5 206t31.5 207h62q15 -104 30.5 -207t31.5 -206l54 413h61l-79 -500h-69zM259 677l56 -127h-44l-38 74l-37 -74h-44l55 127h52z" />
    <glyph glyph-name="wdieresis" unicode="&#x1e85;" horiz-adv-x="469" 
d="M235 400l-61 -400h-68l-80 500h62l54 -413q15 103 30.5 206t31.5 207h62q15 -104 30.5 -207t31.5 -206l54 413h61l-79 -500h-69zM210 659v-74h-61v74h61zM318 659v-74h-61v74h61z" />
    <glyph glyph-name="yacute" unicode="&#xfd;" horiz-adv-x="301" 
d="M56 -170q-9 0 -20.5 1.5t-18.5 3.5v54q17 -7 39 -7q44 0 56 58l11 59l-98 501h62l65 -391l64 391h62l-108 -562q-11 -57 -35.5 -82.5t-78.5 -25.5zM233 677l-54 -127h-43l38 127h59z" />
    <glyph glyph-name="ygrave" unicode="&#x1ef3;" horiz-adv-x="301" 
d="M56 -170q-9 0 -20.5 1.5t-18.5 3.5v54q17 -7 39 -7q44 0 56 58l11 59l-98 501h62l65 -391l64 391h62l-108 -562q-11 -57 -35.5 -82.5t-78.5 -25.5zM135 677l37 -127h-42l-55 127h60z" />
    <glyph glyph-name="ycircumflex" unicode="&#x177;" horiz-adv-x="301" 
d="M56 -170q-9 0 -20.5 1.5t-18.5 3.5v54q17 -7 39 -7q44 0 56 58l11 59l-98 501h62l65 -391l64 391h62l-108 -562q-11 -57 -35.5 -82.5t-78.5 -25.5zM175 677l56 -127h-44l-38 74l-37 -74h-44l55 127h52z" />
    <glyph glyph-name="ydieresis" unicode="&#xff;" horiz-adv-x="301" 
d="M56 -170q-9 0 -20.5 1.5t-18.5 3.5v54q17 -7 39 -7q44 0 56 58l11 59l-98 501h62l65 -391l64 391h62l-108 -562q-11 -57 -35.5 -82.5t-78.5 -25.5zM126 659v-74h-61v74h61zM234 659v-74h-61v74h61z" />
    <glyph glyph-name="zacute" unicode="&#x17a;" horiz-adv-x="262" 
d="M32 0v37l128 410h-123v53h187v-38l-127 -409h132v-53h-197zM206 677l-54 -127h-43l38 127h59z" />
    <glyph glyph-name="zcaron" unicode="&#x17e;" horiz-adv-x="262" 
d="M32 0v37l128 410h-123v53h187v-38l-127 -409h132v-53h-197zM104 550l-55 127h44l37 -74l38 74h44l-56 -127h-52z" />
    <glyph glyph-name="zdotaccent" unicode="&#x17c;" horiz-adv-x="262" 
d="M32 0v37l128 410h-123v53h187v-38l-127 -409h132v-53h-197zM160 659v-74h-61v74h61z" />
    <glyph glyph-name="onehalf" unicode="&#xbd;" horiz-adv-x="237" 
d="M189 363v-27h-142v27h142zM132 433h26v-27h-80v27h26v219h-27v19q18 0 25 8t7 21h23v-267zM97 27h72v-27h-100v34q0 37 11 60t24.5 41t24.5 35.5t11 44.5v32q0 10 -5.5 17.5t-16.5 7.5q-12 0 -16.5 -7t-4.5 -18v-36h-29v36q0 23 10.5 37t39.5 14t39.5 -14t10.5 -37v-31
q0 -33 -11 -53.5t-24.5 -38t-24.5 -37t-11 -51.5v-9z" />
    <glyph glyph-name="onethird" unicode="&#x2153;" horiz-adv-x="237" 
d="M103 162h16q12 0 16 6t4 17v59q0 10 -5 19t-16 9t-16 -7t-5 -18v-35h-28v35q0 23 10 37t39 14t39 -14t10 -37v-60q0 -30 -21 -38q22 -10 22 -40v-61q0 -23 -10 -37.5t-39 -14.5q-30 0 -40 14.5t-10 37.5v34h28v-25q0 -14 3.5 -25t18.5 -11q12 0 16.5 8t4.5 19v60
q0 11 -4 19t-17 8h-16v27zM189 363v-27h-142v27h142zM132 433h26v-27h-80v27h26v219h-27v19q18 0 25 8t7 21h23v-267z" />
    <glyph glyph-name="twothirds" unicode="&#x2154;" horiz-adv-x="237" 
d="M189 363v-27h-142v27h142zM97 433h72v-27h-100v34q0 37 11 60t24.5 41t24.5 35.5t11 44.5v32q0 10 -5 17.5t-17 7.5t-16.5 -7t-4.5 -18v-36h-29v36q0 23 10.5 37t39.5 14t39.5 -14.5t10.5 -36.5v-31q0 -33 -11 -53.5t-24.5 -38t-24.5 -37t-11 -51.5v-9zM103 162h16
q12 0 16 6t4 17v59q0 10 -5 19t-16 9t-16 -7t-5 -18v-35h-28v35q0 23 10 37t39 14t39 -14t10 -37v-60q0 -30 -21 -38q22 -10 22 -40v-61q0 -23 -10 -37.5t-39 -14.5q-30 0 -40 14.5t-10 37.5v34h28v-25q0 -14 3.5 -25t18.5 -11q12 0 16.5 8t4.5 19v60q0 11 -4 19t-17 8h-16
v27z" />
    <glyph glyph-name="onequarter" unicode="&#xbc;" horiz-adv-x="237" 
d="M189 363v-27h-142v27h142zM129 63h-69v29q15 51 30.5 101t29.5 101h37v-205h19v-26h-19v-63h-28v63zM129 89v66v48t1 50q-12 -42 -23 -82t-23 -82h45zM132 433h26v-27h-80v27h26v219h-27v19q18 0 25 8t7 21h23v-267z" />
    <glyph glyph-name="threequarters" unicode="&#xbe;" horiz-adv-x="237" 
d="M189 363v-27h-142v27h142zM129 63h-69v29q15 51 30.5 101t29.5 101h37v-205h19v-26h-19v-63h-28v63zM129 89v66v48t1 50q-12 -42 -23 -82t-23 -82h45zM103 568h16q12 0 16 6t4 17v59q0 10 -5 19t-16 9t-16 -7t-5 -18v-35h-28v35q0 23 10 37t39 14t39 -14t10 -37v-60
q0 -30 -21 -38q22 -10 22 -40v-61q0 -23 -10 -37.5t-39 -14.5q-30 0 -40 14.5t-10 37.5v34h28v-31q0 -12 4 -21t18 -9q12 0 16.5 8t4.5 19v60q0 11 -3 19t-8 8h-26v27z" />
    <glyph glyph-name="oneeighth" unicode="&#x215b;" horiz-adv-x="237" 
d="M189 363v-27h-142v27h142zM118 -4q-29 0 -40 14t-11 37v63q0 27 23 39q-21 9 -21 38v60q0 23 10 37t39 14t39 -14t10 -37v-60q0 -29 -20 -38q22 -11 22 -39v-63q0 -23 -10.5 -37t-40.5 -14zM118 272q-12 0 -16.5 -8t-4.5 -19v-58q0 -12 4.5 -19.5t16.5 -7.5
q11 0 15.5 5.5t5.5 14.5v65q0 11 -4 19t-17 8zM118 136q-14 0 -18 -8.5t-4 -19.5v-58q0 -12 4 -20.5t18 -8.5t18.5 8.5t4.5 20.5v58q0 11 -4.5 19.5t-18.5 8.5zM132 433h26v-27h-80v27h26v219h-27v19q18 0 25 8t7 21h23v-267z" />
    <glyph glyph-name="threeeighths" unicode="&#x215c;" horiz-adv-x="237" 
d="M103 568h16q12 0 16 6t4 17v59q0 10 -5 19t-16 9t-16 -7t-5 -18v-35h-28v35q0 23 10 37t39 14t39 -14t10 -37v-60q0 -30 -21 -38q22 -10 22 -40v-61q0 -23 -10 -37.5t-39 -14.5q-30 0 -40 14.5t-10 37.5v34h28v-31q0 -12 4 -21t18 -9q12 0 16.5 8t4.5 19v60q0 11 -4 19
t-17 8h-16v27zM189 363v-27h-142v27h142zM118 -4q-29 0 -40 14t-11 37v63q0 27 23 39q-21 9 -21 38v60q0 23 10 37t39 14t39 -14t10 -37v-60q0 -29 -20 -38q22 -11 22 -39v-63q0 -23 -10.5 -37t-40.5 -14zM118 272q-12 0 -16.5 -8t-4.5 -19v-58q0 -12 4.5 -19.5t16.5 -7.5
q11 0 15.5 5.5t5.5 14.5v65q0 11 -4 19t-17 8zM118 136q-14 0 -18 -8.5t-4 -19.5v-58q0 -12 4 -20.5t18 -8.5t18.5 8.5t4.5 20.5v58q0 11 -4.5 19.5t-18.5 8.5z" />
    <glyph glyph-name="fiveeighths" unicode="&#x215d;" horiz-adv-x="237" 
d="M189 363v-27h-142v27h142zM103 672q0 -6 -0.5 -19.5t-1.5 -28t-1.5 -28t-0.5 -19.5q5 4 11.5 7t14.5 3q44 0 44 -50v-82q0 -24 -11 -38.5t-40 -14.5q-30 0 -40.5 14.5t-10.5 38.5v36h28v-36q0 -13 4.5 -20.5t18.5 -7.5q13 0 17.5 7.5t4.5 20.5v82q0 11 -4.5 17.5
t-16.5 6.5q-17 0 -26 -14h-23l8 153h86v-28h-61zM118 -4q-29 0 -40 14t-11 37v63q0 27 23 39q-21 9 -21 38v60q0 23 10 37t39 14t39 -14t10 -37v-60q0 -29 -20 -38q22 -11 22 -39v-63q0 -23 -10.5 -37t-40.5 -14zM118 272q-12 0 -16.5 -8t-4.5 -19v-58q0 -12 4.5 -19.5
t16.5 -7.5q11 0 15.5 5.5t5.5 14.5v65q0 11 -4 19t-17 8zM118 136q-14 0 -18 -8.5t-4 -19.5v-58q0 -12 4 -20.5t18 -8.5t18.5 8.5t4.5 20.5v58q0 11 -4.5 19.5t-18.5 8.5z" />
    <glyph glyph-name="seveneighths" unicode="&#x215e;" horiz-adv-x="237" 
d="M189 363v-27h-142v27h142zM98 406q0 38 2 72t7 66t12.5 63.5t19.5 64.5h-70v28h98v-23q-12 -37 -19 -66t-11 -58t-5.5 -63.5t-1.5 -83.5h-32zM118 -4q-29 0 -40 14t-11 37v63q0 27 23 39q-21 9 -21 38v60q0 23 10 37t39 14t39 -14t10 -37v-60q0 -29 -20 -38
q22 -11 22 -39v-63q0 -23 -10.5 -37t-40.5 -14zM118 272q-12 0 -16.5 -8t-4.5 -19v-58q0 -12 4.5 -19.5t16.5 -7.5q11 0 15.5 5.5t5.5 14.5v65q0 11 -4 19t-17 8zM118 136q-14 0 -18 -8.5t-4 -19.5v-58q0 -12 4 -20.5t18 -8.5t18.5 8.5t4.5 20.5v58q0 11 -4.5 19.5
t-18.5 8.5z" />
    <glyph glyph-name="one.tnum" horiz-adv-x="350" 
d="M205 60h61v-60h-185v60h61v530h-63v43q42 0 58.5 19t16.5 48h51v-640z" />
    <glyph glyph-name="two.tnum" horiz-adv-x="350" 
d="M119 60h172v-60h-235v100q0 59 12.5 101t31.5 73.5t40.5 56.5t40.5 51t31.5 57t12.5 75v76q0 26 -11.5 44.5t-41.5 18.5q-31 0 -42 -18t-11 -45v-80h-63v80q0 26 5.5 48t18.5 38t35.5 25t56.5 9t56.5 -9t35.5 -25t18.5 -38t5.5 -48v-75q0 -52 -12.5 -88t-31.5 -64.5
t-40.5 -53t-40.5 -53t-31.5 -65t-12.5 -88.5v-43z" />
    <glyph glyph-name="three.tnum" horiz-adv-x="350" 
d="M138 382h34q30 0 40.5 16.5t10.5 42.5v150q0 22 -12 42t-40 20q-29 0 -40 -17.5t-11 -44.5v-81h-61v81q0 26 5 48t18 37.5t34.5 24.5t54.5 9t55 -9t35 -24.5t18.5 -37.5t5.5 -48v-144q0 -35 -12 -58.5t-41 -34.5q30 -11 43.5 -34.5t13.5 -58.5v-149q0 -27 -5.5 -49.5
t-18.5 -38.5t-36 -25t-57 -9q-35 0 -57 9t-35 25.5t-18 38.5t-5 49v88h62v-88q0 -24 12 -45t41 -21q32 0 43 18.5t11 47.5v151q0 23 -12.5 42t-41.5 19h-34v58z" />
    <glyph glyph-name="four.tnum" horiz-adv-x="350" 
d="M198 154h-162v65l141 481h84v-488h45v-58h-45v-154h-63v154zM198 212v133q0 70 1 133.5t-1 138.5l-110 -405h110z" />
    <glyph glyph-name="five.tnum" horiz-adv-x="350" 
d="M178 369q-40 0 -63 -35h-51l18 366h201v-61h-145l-11 -241q14 11 30 18t36 7q55 0 77.5 -28t22.5 -87v-196q0 -27 -5.5 -49.5t-19 -38.5t-36.5 -25t-57 -9q-35 0 -57.5 9t-36 25t-19 38.5t-5.5 49.5v88h63v-88q0 -29 11.5 -47.5t43.5 -18.5t43.5 18.5t11.5 47.5v196
q0 28 -11 44.5t-41 16.5z" />
    <glyph glyph-name="six.tnum" horiz-adv-x="350" 
d="M179 653q-30 0 -42.5 -17t-12.5 -49v-209q14 14 32.5 22.5t39.5 8.5q56 0 78.5 -30t22.5 -87v-180q0 -56 -25.5 -89t-92.5 -33t-92.5 33t-25.5 89v475q0 28 6 50.5t19.5 38.5t36.5 25t56 9t56 -9t36.5 -25t19.5 -38.5t6 -50.5v-77h-63v77q0 32 -12.5 49t-42.5 17z
M180 354q-20 0 -34 -9.5t-22 -22.5v-210q0 -30 11.5 -48t43.5 -18t43.5 18t11.5 48v180q0 29 -12.5 45.5t-41.5 16.5z" />
    <glyph glyph-name="seven.tnum" horiz-adv-x="350" 
d="M121 0q0 91 5.5 172t17.5 158.5t32 153t49 155.5h-179v61h239v-50q-19 -60 -33 -109.5t-25 -96t-18 -93t-11 -98.5t-6 -114t-2 -139h-69z" />
    <glyph glyph-name="eight.tnum" horiz-adv-x="350" 
d="M179 710q33 0 55 -9t35 -24.5t18.5 -37.5t5.5 -48v-144q0 -35 -12.5 -58.5t-41.5 -34.5q33 -12 45.5 -38t12.5 -65v-139q0 -27 -5.5 -49.5t-19 -38.5t-36.5 -25t-57 -9q-35 0 -57.5 9t-36 25t-19 38.5t-5.5 49.5v139q0 39 12.5 65t45.5 38q-29 11 -41 34.5t-12 58.5v144
q0 26 5.5 48t18 37.5t34.5 24.5t55 9zM179 46q34 0 44.5 21t10.5 52v137q0 15 -2 27.5t-7.5 22.5t-16.5 15.5t-29 5.5t-28.5 -5.5t-16.5 -15.5t-8 -22.5t-2 -27.5v-137q0 -15 2 -28.5t8 -23.5t17 -15.5t28 -5.5zM179 653q-32 0 -41.5 -19.5t-9.5 -48.5v-139q0 -28 9.5 -47
t41.5 -19q33 0 42.5 19t9.5 47v139q0 29 -10 48.5t-42 19.5z" />
    <glyph glyph-name="nine.tnum" horiz-adv-x="350" 
d="M175 47q30 0 42.5 17t12.5 49v219q-14 -14 -32.5 -22.5t-39.5 -8.5q-56 0 -78.5 30t-22.5 87v170q0 56 25.5 89t92.5 33t92.5 -33t25.5 -89v-475q0 -28 -6 -50.5t-19.5 -38.5t-36.5 -25t-56 -9t-56 9t-36.5 25t-19.5 38.5t-6 50.5v87h63v-87q0 -32 12.5 -49t42.5 -17z
M174 356q20 0 34 9.5t22 22.5v200q0 30 -11.5 48t-43.5 18t-43.5 -18t-11.5 -48v-170q0 -29 12.5 -45.5t41.5 -16.5z" />
    <glyph glyph-name="zero.tnum" horiz-adv-x="350" 
d="M175 46q32 0 43.5 18.5t11.5 47.5v475q0 29 -11.5 47.5t-43.5 18.5t-43.5 -18.5t-11.5 -47.5v-475q0 -29 11.5 -47.5t43.5 -18.5zM175 710q34 0 57 -9t36.5 -25.5t19 -39t5.5 -49.5v-475q0 -27 -5.5 -49.5t-19 -38.5t-36.5 -25t-57 -9q-35 0 -57.5 9t-36 25t-19 38.5
t-5.5 49.5v475q0 27 5.5 49.5t19 39t36 25.5t57.5 9z" />
    <glyph glyph-name="a.smcp" horiz-adv-x="303" 
d="M114 595h75l92 -595h-62l-18 131h-99l-18 -131h-62zM151 516l-43 -331h87z" />
    <glyph glyph-name="b.smcp" horiz-adv-x="344" 
d="M62 595h110q34 0 56 -7t35 -19.5t18 -31t5 -41.5v-115q0 -29 -11.5 -50t-40.5 -30q32 -9 44.5 -30.5t12.5 -51.5v-114q0 -23 -4.5 -42.5t-17.5 -33.5t-35 -21.5t-56 -7.5h-116v595zM174 57q33 0 44.5 12.5t11.5 36.5v116q0 23 -12 37t-44 14h-51v-216h51zM123 537v-210
h47q32 0 44.5 14t12.5 37v111q0 24 -12 36t-44 12h-48z" />
    <glyph glyph-name="c.smcp" horiz-adv-x="320" 
d="M219 170h58v-67q0 -23 -5.5 -43.5t-18.5 -35.5t-34.5 -24t-53.5 -9q-33 0 -55 9t-34.5 24t-18 35.5t-5.5 43.5v388q0 23 5.5 43.5t18 35.5t34.5 24t55 9q32 0 53.5 -9t34.5 -24t18.5 -35.5t5.5 -43.5v-58h-58v58q0 23 -12.5 40.5t-41.5 17.5q-31 0 -42 -17t-11 -41v-388
q0 -23 12 -40.5t41 -17.5q30 0 42 17.5t12 40.5v67z" />
    <glyph glyph-name="d.smcp" horiz-adv-x="349" 
d="M173 57q34 0 45.5 15.5t11.5 39.5v371q0 24 -11.5 39t-45.5 15h-50v-480h50zM62 595h112q34 0 57 -9t36 -24t18.5 -35.5t5.5 -43.5v-371q0 -23 -5 -43.5t-18 -35.5t-35.5 -24t-56.5 -9h-114v595z" />
    <glyph glyph-name="e.smcp" horiz-adv-x="296" 
d="M123 57h130v-57h-191v595h191v-58h-130v-210h112v-54h-112v-216z" />
    <glyph glyph-name="f.smcp" horiz-adv-x="281" 
d="M62 0v595h186v-58h-125v-210h107v-54h-107v-273h-61z" />
    <glyph glyph-name="g.smcp" horiz-adv-x="341" 
d="M170 327h113v-223q0 -23 -5.5 -43.5t-18 -36t-34.5 -24.5t-55 -9t-55 9t-34.5 24.5t-18 36t-5.5 43.5v387q0 23 5.5 43.5t18 35.5t34.5 24t55 9q32 0 53.5 -9t34.5 -24t18.5 -35.5t5.5 -43.5v-58h-59v58q0 22 -12 40t-41 18q-31 0 -42 -17t-11 -41v-387q0 -23 12 -41
t41 -18q31 0 42 17t11 42v169h-53v54z" />
    <glyph glyph-name="h.smcp" horiz-adv-x="355" 
d="M123 0h-61v595h61v-268h108v268h61v-595h-61v273h-108v-273z" />
    <glyph glyph-name="i.smcp" horiz-adv-x="186" 
d="M62 595h61v-595h-61v595z" />
    <glyph glyph-name="j.smcp" horiz-adv-x="313" 
d="M98 103q0 -23 10 -40.5t39 -17.5t38.5 16.5t9.5 41.5v492h60v-492q0 -23 -5 -43.5t-17 -35.5t-33 -24t-53 -9t-53 9t-33.5 24t-18 35.5t-5.5 43.5v67h61v-67z" />
    <glyph glyph-name="k.smcp" horiz-adv-x="325" 
d="M123 325l111 270h67l-129 -295l135 -300h-66l-118 275v-275h-61v595h61v-270z" />
    <glyph glyph-name="l.smcp" horiz-adv-x="251" 
d="M62 595h61v-538h105v-57h-166v595z" />
    <glyph glyph-name="m.smcp" horiz-adv-x="466" 
d="M139 595l93 -506l94 506h77v-595h-57v203q0 22 1 60.5t2 81t2 84.5t2 71l-91 -500h-58l-92 500q1 -30 2 -71.5t2.5 -84t2.5 -80.5t1 -61v-203h-58v595h77z" />
    <glyph glyph-name="n.smcp" horiz-adv-x="379" 
d="M115 464q2 -69 4 -134.5t2 -137.5v-192h-59v595h60l141 -465q-2 71 -4 136.5t-2 135.5v193h59v-595h-60l-141 464v0z" />
    <glyph glyph-name="o.smcp" horiz-adv-x="331" 
d="M165 45q31 0 42 17.5t11 41.5v386q0 24 -11 41.5t-42 17.5t-42 -17.5t-11 -41.5v-386q0 -24 11 -41.5t42 -17.5zM165 603q33 0 55 -9t34.5 -24.5t18 -36t5.5 -43.5v-386q0 -23 -5.5 -43.5t-18 -36t-34.5 -24.5t-55 -9t-55 9t-34.5 24.5t-18 36t-5.5 43.5v386
q0 23 5.5 43.5t18 36t34.5 24.5t55 9z" />
    <glyph glyph-name="p.smcp" horiz-adv-x="325" 
d="M62 595h110q34 0 56.5 -9t35.5 -24t18 -35.5t5 -43.5v-125q0 -22 -6.5 -42t-20.5 -35t-36 -24t-54 -9h-47v-248h-61v595zM169 301q34 0 46 16.5t12 40.5v125q0 24 -13 39t-45 15h-46v-236h46z" />
    <glyph glyph-name="q.smcp" horiz-adv-x="331" 
d="M237 -83q-51 0 -73.5 20.5t-24.5 55.5q-26 3 -42.5 12.5t-26.5 24.5t-14 33.5t-4 39.5v387q0 23 5.5 43.5t18 36t34.5 24.5t55 9t55 -9t34.5 -24.5t18 -36t5.5 -43.5v-387q0 -21 -4 -39.5t-14 -33.5t-27 -24.5t-42 -12.5q1 -20 11 -28t35 -8h21l-9 -40h-12zM165 44
q31 0 42 17.5t11 41.5v387q0 24 -11 41.5t-42 17.5t-42 -17.5t-11 -41.5v-387q0 -24 11 -41.5t42 -17.5z" />
    <glyph glyph-name="r.smcp" horiz-adv-x="338" 
d="M62 595h111q34 0 56.5 -9t35 -24t17.5 -35t5 -43v-122q0 -38 -16 -67t-58 -37l106 -258h-67l-98 255h-31v-255h-61v595zM169 308q34 0 46 15t12 39v122q0 24 -13 38.5t-45 14.5h-46v-229h46z" />
    <glyph glyph-name="s.smcp" horiz-adv-x="320" 
d="M211 168q0 41 -12 65.5t-30.5 41t-39.5 29.5t-39.5 30.5t-30.5 43.5t-12 70v42q0 23 5 43.5t17.5 36t34 24.5t55.5 9t56 -9t34.5 -24.5t17.5 -36t5 -43.5v-57h-61v57q0 23 -10.5 41t-41.5 18q-32 0 -42 -17.5t-10 -41.5v-41q0 -35 12 -55.5t30.5 -35t40 -27t40 -32
t30.5 -50t12 -80.5v-64q0 -23 -5 -43.5t-17.5 -36.5t-34.5 -25t-56 -9t-55.5 9t-34 25t-17.5 36.5t-5 43.5v65h60v-65q0 -23 11.5 -41.5t40.5 -18.5q32 0 42 17.5t10 42.5v63z" />
    <glyph glyph-name="t.smcp" horiz-adv-x="266" 
d="M163 0h-60v537h-81v58h221v-58h-80v-537z" />
    <glyph glyph-name="u.smcp" horiz-adv-x="340" 
d="M117 105q0 -24 10.5 -42t42.5 -18t42 18t10 42v490h60v-490q0 -22 -5.5 -42.5t-18.5 -36.5t-34.5 -25.5t-53.5 -9.5q-34 0 -56 9t-34.5 25t-17.5 36.5t-5 43.5v490h60v-490z" />
    <glyph glyph-name="v.smcp" horiz-adv-x="313" 
d="M191 0h-70l-94 595h62l67 -489l67 489h62z" />
    <glyph glyph-name="w.smcp" horiz-adv-x="516" 
d="M257 486l-70 -486h-70l-85 595h61l60 -490l73 490h63l73 -490l59 490h62l-86 -595h-69z" />
    <glyph glyph-name="x.smcp" horiz-adv-x="306" 
d="M153 379l59 216h64l-93 -286l100 -309h-64l-66 237l-67 -237h-64l99 309l-92 286h64z" />
    <glyph glyph-name="y.smcp" horiz-adv-x="292" 
d="M115 0v247l-93 348h63l60 -268l60 268h64l-93 -348v-247h-61z" />
    <glyph glyph-name="z.smcp" horiz-adv-x="274" 
d="M37 0v40l136 497h-136v58h201v-40l-135 -498h138v-57h-204z" />
    <glyph glyph-name="ampersand.smcp" horiz-adv-x="380" 
d="M340 274h-55v-171q0 -21 14.5 -34.5t39.5 -13.5v-55q-61 0 -83 34q-10 -20 -31 -31.5t-56 -11.5q-32 0 -53 8.5t-34 23.5t-18 35t-5 44v110q0 32 11.5 55t41.5 34q-30 10 -41.5 32.5t-11.5 55.5v101q0 23 5 43.5t18 36t35 24.5t55 9q31 0 52.5 -9t35 -24.5t19 -36
t5.5 -43.5v-57h-59v57q0 23 -12 41t-41 18q-31 0 -42 -17.5t-11 -41.5v-113q0 -23 12.5 -36.5t43.5 -13.5h165v-53zM172 45q31 0 42 17t11 49v163h-50q-33 0 -44.5 -16.5t-11.5 -50.5v-96q0 -33 12 -49.5t41 -16.5z" />
    <glyph glyph-name="one.smcp" horiz-adv-x="255" 
d="M158 57h59v-57h-178v57h59v437h-61v40q41 0 56.5 18t15.5 43h49v-538z" />
    <glyph glyph-name="two.smcp" horiz-adv-x="311" 
d="M107 57h166v-57h-226v85q0 50 12 86t30 62.5t39 48t39 44t30 48.5t12 63v55q0 23 -11 40t-40 17t-40 -17t-11 -40v-59h-60v59q0 22 5 42.5t18 35.5t34 24t54 9t54.5 -9t34.5 -24t18 -35.5t5 -42.5v-54q0 -44 -12 -74.5t-30 -55t-39.5 -45.5t-39.5 -45t-30 -55t-12 -75
v-31z" />
    <glyph glyph-name="three.smcp" 
d="M125 327h32q29 0 39 13.5t10 36.5v118q0 23 -11.5 38.5t-38.5 15.5q-28 0 -38.5 -15.5t-10.5 -38.5v-62h-58v62q0 47 23 77.5t84 30.5q32 0 53.5 -8.5t34 -23t17.5 -34.5t5 -42v-113q0 -29 -12 -50t-39 -31q29 -9 42 -30.5t13 -50.5v-119q0 -23 -5 -43t-18 -35t-35 -23.5
t-55 -8.5t-54.5 8.5t-33.5 23.5t-17 35t-5 43v69h60v-69q0 -25 11 -40.5t39 -15.5q32 0 42 16t10 40v121q0 20 -12 35.5t-40 15.5h-32v54z" />
    <glyph glyph-name="four.smcp" horiz-adv-x="314" 
d="M182 129h-155v59l135 407h81v-413h43v-53h-43v-129h-61v129zM182 182v111q0 59 0.5 113t-0.5 118l-105 -342h105z" />
    <glyph glyph-name="five.smcp" horiz-adv-x="331" 
d="M168 314q-37 0 -61 -30h-48l17 311h193v-58h-139l-11 -199q13 10 28 17t35 7q53 0 74.5 -25t21.5 -75v-158q0 -23 -5.5 -43.5t-18 -36t-34.5 -24.5t-55 -9t-55 9t-34.5 24.5t-18 36t-5.5 43.5v66h60v-66q0 -24 11 -41.5t42 -17.5t42 17.5t11 41.5v158q0 23 -10.5 37.5
t-39.5 14.5z" />
    <glyph glyph-name="six.smcp" horiz-adv-x="336" 
d="M170 549q-29 0 -41 -16t-12 -43v-166q14 12 31.5 19.5t37.5 7.5q54 0 75.5 -27.5t21.5 -75.5v-144q0 -24 -5.5 -44.5t-19 -35.5t-35 -24t-53.5 -9t-54 9t-35 24t-18.5 35.5t-5.5 44.5v386q0 24 5.5 44.5t18.5 35.5t35 24t54 9t53.5 -9t35 -24t19 -35.5t5.5 -44.5v-57h-60
v57q0 27 -12 43t-41 16zM171 301q-19 0 -32.5 -8t-21.5 -19v-170q0 -26 11.5 -42.5t41.5 -16.5t41.5 16.5t11.5 42.5v144q0 24 -12.5 38.5t-39.5 14.5z" />
    <glyph glyph-name="seven.smcp" horiz-adv-x="265" 
d="M89 0q0 77 4.5 145t15.5 132.5t29 128t46 131.5h-162v58h220v-49q-18 -51 -31.5 -92.5t-23 -80.5t-16 -77.5t-10 -82t-5 -95.5t-1.5 -118h-66z" />
    <glyph glyph-name="eight.smcp" horiz-adv-x="331" 
d="M165 603q32 0 53.5 -8.5t34 -23.5t17.5 -35t5 -42v-110q0 -29 -12.5 -51t-39.5 -32q32 -11 43.5 -34.5t11.5 -57.5v-105q0 -23 -5.5 -43.5t-18 -36t-34.5 -24.5t-55 -9t-55 9t-34.5 24.5t-18 36t-5.5 43.5v105q0 34 11.5 57.5t43.5 34.5q-27 10 -38.5 32t-11.5 51v110
q0 22 5 42t17.5 35t33 23.5t52.5 8.5zM165 45q33 0 43 19.5t10 45.5v104q0 25 -9.5 44.5t-43.5 19.5q-17 0 -27.5 -5.5t-16 -14.5t-7.5 -20.5t-2 -23.5v-104q0 -26 10 -45.5t43 -19.5zM165 549q-30 0 -39.5 -17.5t-9.5 -42.5v-106q0 -23 9 -41.5t40 -18.5t40.5 18.5
t9.5 41.5v106q0 25 -9.5 42.5t-40.5 17.5z" />
    <glyph glyph-name="nine.smcp" horiz-adv-x="331" 
d="M165 46q29 0 41 15t12 43v178q-14 -11 -31.5 -18.5t-37.5 -7.5q-54 0 -75.5 26.5t-21.5 74.5v134q0 24 5.5 44.5t19 35.5t35 23.5t53.5 8.5t54 -8.5t35 -23.5t18.5 -35.5t5.5 -44.5v-387q0 -24 -5.5 -44.5t-18.5 -35.5t-35 -24t-54 -9t-53.5 9t-35 24t-19 35.5t-5.5 44.5
v66h60v-66q0 -28 12 -43t41 -15zM164 305q19 0 32.5 8t21.5 19v159q0 26 -11.5 42.5t-41.5 16.5t-41.5 -16.5t-11.5 -42.5v-134q0 -24 12.5 -38t39.5 -14z" />
    <glyph glyph-name="zero.smcp" horiz-adv-x="331" 
d="M165 45q31 0 42 17.5t11 41.5v386q0 24 -11 41.5t-42 17.5t-42 -17.5t-11 -41.5v-386q0 -24 11 -41.5t42 -17.5zM165 603q33 0 55 -9t34.5 -24.5t18 -36t5.5 -43.5v-386q0 -23 -5.5 -43.5t-18 -36t-34.5 -24.5t-55 -9t-55 9t-34.5 24.5t-18 36t-5.5 43.5v386
q0 23 5.5 43.5t18 36t34.5 24.5t55 9z" />
    <glyph glyph-name="exclam.smcp" horiz-adv-x="178" 
d="M125 77v-77h-72v77h72zM126 595l-15 -400h-43l-16 400h74z" />
    <glyph glyph-name="exclamdown.smcp" horiz-adv-x="178" 
d="M53 518v77h72v-77h-72zM52 0l16 400h43l15 -400h-74z" />
    <glyph glyph-name="question.smcp" horiz-adv-x="323" 
d="M139 195v17q0 43 5.5 69.5t13.5 42.5t17 26t17 21.5t13.5 28t5.5 45.5v44q0 27 -11 43t-39 16q-32 0 -41 -15t-9 -44v-51h-60v51q0 24 4.5 45t16.5 36t33.5 24t55.5 9t55.5 -9t33.5 -24t16.5 -36t4.5 -45v-43q0 -38 -6 -59.5t-15.5 -35.5t-20.5 -25t-21 -26t-17 -39.5
t-8 -65.5h-44zM199 77v-77h-72v77h72z" />
    <glyph glyph-name="questiondown.smcp" horiz-adv-x="327" 
d="M187 400v-17q0 -44 -5.5 -70t-13.5 -42t-17 -26t-17 -21.5t-13.5 -28t-5.5 -45.5v-44q0 -27 11 -43t39 -16q32 0 41 15t9 44v51h60v-51q0 -24 -4.5 -45t-16.5 -36t-33.5 -24t-55.5 -9t-55.5 9t-33.5 24t-16.5 36t-4.5 45v43q0 37 6 59t15.5 36t20.5 25t21 26t17 39.5
t8 65.5h44zM127 518v77h72v-77h-72z" />
    <glyph glyph-name="slash.smcp" horiz-adv-x="256" 
d="M181 620h47l-154 -646h-46z" />
    <glyph glyph-name="backslash.smcp" horiz-adv-x="256" 
d="M228 -26h-47l-153 646h46z" />
    <glyph glyph-name="dollar.smcp" horiz-adv-x="326" 
d="M59 428q0 42 18 70t66 33v64h39v-64q49 -5 66 -33t17 -70v-43h-56v44q0 29 -12 41.5t-35 12.5q-24 0 -35.5 -12.5t-11.5 -41.5v-17q0 -25 11 -40.5t28 -26t36 -19.5t36 -22.5t28 -33t11 -51.5v-35q0 -42 -17 -70t-66 -33v-81h-39v81q-50 5 -67 33t-17 70v52h56v-45
q0 -34 9 -48t38 -14q25 0 36 12.5t11 41.5v35q0 24 -11 38.5t-28 25t-36 20t-36 23t-28 34t-11 53.5v16z" />
    <glyph glyph-name="cent.smcp" horiz-adv-x="332" 
d="M272 240v-56q0 -42 -18.5 -71.5t-68.5 -33.5v-79h-39v79q-51 5 -69 34t-18 71v244q0 41 18 69.5t69 33.5v64h39v-64q25 -2 42 -11t27 -22.5t14 -31.5t4 -38v-47h-57v47q0 26 -10.5 40.5t-38.5 14.5t-39 -14.5t-11 -40.5v-244q0 -26 11 -40.5t39 -14.5t38.5 14.5
t10.5 40.5v56h57z" />
    <glyph glyph-name="sterling.smcp" horiz-adv-x="371" 
d="M40 320h56v170q0 23 5 43.5t17.5 36t34.5 24.5t56 9q32 0 53.5 -9t34 -24.5t18 -36t5.5 -43.5v-57h-59v57q0 24 -10 41.5t-42 17.5t-42.5 -17.5t-10.5 -41.5v-170h74v-35h-74v-175q0 -25 12 -39t44 -14h109v-57h-109q-34 0 -55 11t-32 29q-11 -18 -32 -29t-54 -11v57
q32 0 44.5 14t12.5 39v175h-56v35z" />
    <glyph glyph-name="Euro.smcp" horiz-adv-x="362" 
d="M77 363v127q0 23 5.5 43.5t18 36t34.5 24.5t55 9q31 0 52.5 -9t35 -24.5t19 -36t5.5 -43.5v-57h-59v57q0 23 -11.5 41t-41.5 18q-31 0 -42 -17.5t-11 -41.5v-127h107l-4 -16l-4 -16h-99v-61h84q-2 -8 -4 -15.5t-4 -15.5h-76v-135q0 -23 11.5 -41t41.5 -18q31 0 42 17.5
t11 41.5v66h59v-66q0 -23 -5.5 -43.5t-19 -36t-35 -24.5t-52.5 -9q-33 0 -55 9t-34.5 24.5t-18 36t-5.5 43.5v135h-48v31h48v61h-48v32h48z" />
    <glyph glyph-name="yen.smcp" horiz-adv-x="327" 
d="M132 228v18q-23 88 -46.5 174.5t-46.5 174.5h64l59 -272l61 272h63l-93 -349v-18h79v-36h-79v-55h79v-36h-79v-101h-61v101h-76v36h76v55h-76v36h76z" />
    <glyph glyph-name="numbersign.smcp" horiz-adv-x="347" 
d="M258 432h62v-37h-64q-2 -49 -4.5 -97.5t-5.5 -97.5h62v-38h-65l-8 -162h-37l8 162h-76l-8 -162h-37l8 162h-62v38h65q2 49 4.5 97.5t5.5 97.5h-63v37h65l9 163h37l-9 -163h76l9 163h37zM143 395q-3 -49 -5.5 -97.5t-4.5 -97.5h76q3 49 5.5 97.5t4.5 97.5h-76z" />
    <glyph glyph-name="percent.smcp" horiz-adv-x="434" 
d="M96 0h-38l279 595h39zM128 350q-45 0 -60.5 22.5t-15.5 66.5v74q0 45 15.5 67.5t60.5 22.5q44 0 59.5 -22.5t15.5 -67.5v-74q0 -44 -15.5 -66.5t-59.5 -22.5zM306 -9q-45 0 -60.5 22.5t-15.5 67.5v74q0 44 15.5 66.5t60.5 22.5q44 0 59.5 -22.5t15.5 -66.5v-74
q0 -45 -15.5 -67.5t-59.5 -22.5zM128 572q-23 0 -31.5 -13t-8.5 -45v-75q0 -32 8.5 -45.5t31.5 -13.5t31 13.5t8 45.5v75q0 32 -8 45t-31 13zM306 214q-23 0 -31 -13.5t-8 -45.5v-75q0 -32 8 -45t31 -13t31 13t8 45v75q0 32 -8 45.5t-31 13.5z" />
    <glyph glyph-name="acute.smcp" horiz-adv-x="177" 
d="M136 767l-54 -127h-43l38 127h59z" />
    <glyph glyph-name="grave.smcp" horiz-adv-x="177" 
d="M99 767l37 -127h-42l-55 127h60z" />
    <glyph glyph-name="circumflex.smcp" horiz-adv-x="242" 
d="M146 767l56 -127h-44l-38 74l-37 -74h-44l55 127h52z" />
    <glyph glyph-name="dieresis.smcp" horiz-adv-x="249" 
d="M100 734v-74h-61v74h61zM208 734v-74h-61v74h61z" />
    <glyph glyph-name="tilde.smcp" horiz-adv-x="301" 
d="M198 655q-19 0 -31 6.5t-21 14.5t-18.5 14.5t-22.5 6.5q-16 0 -22 -8t-6 -24h-38q0 40 13 60.5t50 20.5q19 0 30.5 -6.5t21 -14.5t18.5 -14.5t23 -6.5q16 0 22 8t6 24h38q0 -41 -14 -61t-49 -20z" />
    <glyph glyph-name="caron.smcp" horiz-adv-x="242" 
d="M94 640l-55 127h44l37 -74l38 74h44l-56 -127h-52z" />
    <glyph glyph-name="ring.smcp" horiz-adv-x="215" 
d="M175 715q0 -35 -16 -55t-52 -20t-52 20t-16 55t16 56t52 21t52 -21t16 -56zM136 715q0 20 -7 31.5t-22 11.5t-22 -11.5t-7 -31.5q0 -19 7 -30t22 -11t22 11t7 30z" />
    <glyph glyph-name="breve.smcp" horiz-adv-x="236" 
d="M196 741q0 -50 -18.5 -75.5t-60.5 -25.5t-60 25.5t-18 75.5h38q0 -28 9 -41.5t31 -13.5t31 13.5t9 41.5h39z" />
    <glyph glyph-name="macron.smcp" horiz-adv-x="250" 
d="M39 711h170v-46h-170v46z" />
    <glyph glyph-name="dotaccent.smcp" horiz-adv-x="144" 
d="M101 714v-74h-61v74h61z" />
    <glyph glyph-name="hungarumlaut.smcp" horiz-adv-x="267" 
d="M121 767l-39 -127h-43l23 127h59zM226 767l-49 -127h-43l33 127h59z" />
    <glyph glyph-name="aacute.smcp" horiz-adv-x="303" 
d="M114 595h75l92 -595h-62l-18 131h-99l-18 -131h-62zM151 516l-43 -331h87zM225 767l-54 -127h-43l38 127h59z" />
    <glyph glyph-name="agrave.smcp" horiz-adv-x="303" 
d="M114 595h75l92 -595h-62l-18 131h-99l-18 -131h-62zM151 516l-43 -331h87zM135 767l37 -127h-42l-55 127h60z" />
    <glyph glyph-name="acircumflex.smcp" horiz-adv-x="303" 
d="M114 595h75l92 -595h-62l-18 131h-99l-18 -131h-62zM151 516l-43 -331h87zM176 767l56 -127h-44l-38 74l-37 -74h-44l55 127h52z" />
    <glyph glyph-name="adieresis.smcp" horiz-adv-x="303" 
d="M114 595h75l92 -595h-62l-18 131h-99l-18 -131h-62zM151 516l-43 -331h87zM127 734v-74h-61v74h61zM235 734v-74h-61v74h61z" />
    <glyph glyph-name="atilde.smcp" horiz-adv-x="303" 
d="M114 595h75l92 -595h-62l-18 131h-99l-18 -131h-62zM151 516l-43 -331h87zM199 655q-19 0 -31 6.5t-21 14.5t-18.5 14.5t-22.5 6.5q-16 0 -22 -8t-6 -24h-38q0 40 13 60.5t50 20.5q19 0 30.5 -6.5t21 -14.5t18.5 -14.5t23 -6.5q16 0 22 8t6 24h38q0 -41 -14 -61t-49 -20z
" />
    <glyph glyph-name="aring.smcp" horiz-adv-x="303" 
d="M114 595h75l92 -595h-62l-18 131h-99l-18 -131h-62zM151 516l-43 -331h87zM219 715q0 -35 -16 -55t-52 -20t-52 20t-16 55t16 56t52 21t52 -21t16 -56zM180 715q0 20 -7 31.5t-22 11.5t-22 -11.5t-7 -31.5q0 -19 7 -30t22 -11t22 11t7 30z" />
    <glyph glyph-name="amacron.smcp" horiz-adv-x="303" 
d="M114 595h75l92 -595h-62l-18 131h-99l-18 -131h-62zM151 516l-43 -331h87zM66 711h170v-46h-170v46z" />
    <glyph glyph-name="abreve.smcp" horiz-adv-x="303" 
d="M114 595h75l92 -595h-62l-18 131h-99l-18 -131h-62zM151 516l-43 -331h87zM229 741q0 -50 -18.5 -75.5t-60.5 -25.5t-60 25.5t-18 75.5h38q0 -28 9 -41.5t31 -13.5t31 13.5t9 41.5h39z" />
    <glyph glyph-name="aogonek.smcp" horiz-adv-x="303" 
d="M281 -115v-55h-12q-43 0 -63.5 18t-20.5 50q0 31 16.5 57.5t41.5 44.5h-24l-18 131h-99l-18 -131h-62l92 595h75l92 -595q-23 -18 -35 -39.5t-12 -43.5q0 -32 35 -32h12zM151 516l-43 -331h87z" />
    <glyph glyph-name="ae.smcp" horiz-adv-x="447" 
d="M277 57h131v-57h-191v132h-96l-33 -132h-64l157 595h227v-58h-131v-210h113v-54h-113v-216zM217 185v347l-85 -347h85z" />
    <glyph glyph-name="bdotaccent.smcp" horiz-adv-x="344" 
d="M62 595h110q34 0 56 -7t35 -19.5t18 -31t5 -41.5v-115q0 -29 -11.5 -50t-40.5 -30q32 -9 44.5 -30.5t12.5 -51.5v-114q0 -23 -4.5 -42.5t-17.5 -33.5t-35 -21.5t-56 -7.5h-116v595zM174 57q33 0 44.5 12.5t11.5 36.5v116q0 23 -12 37t-44 14h-51v-216h51zM123 537v-210
h47q32 0 44.5 14t12.5 37v111q0 24 -12 36t-44 12h-48zM198 714v-74h-61v74h61z" />
    <glyph glyph-name="cacute.smcp" horiz-adv-x="320" 
d="M219 170h58v-67q0 -23 -5.5 -43.5t-18.5 -35.5t-34.5 -24t-53.5 -9q-33 0 -55 9t-34.5 24t-18 35.5t-5.5 43.5v388q0 23 5.5 43.5t18 35.5t34.5 24t55 9q32 0 53.5 -9t34.5 -24t18.5 -35.5t5.5 -43.5v-58h-58v58q0 23 -12.5 40.5t-41.5 17.5q-31 0 -42 -17t-11 -41v-388
q0 -23 12 -40.5t41 -17.5q30 0 42 17.5t12 40.5v67zM240 767l-54 -127h-43l38 127h59z" />
    <glyph glyph-name="ccircumflex.smcp" horiz-adv-x="320" 
d="M219 170h58v-67q0 -23 -5.5 -43.5t-18.5 -35.5t-34.5 -24t-53.5 -9q-33 0 -55 9t-34.5 24t-18 35.5t-5.5 43.5v388q0 23 5.5 43.5t18 35.5t34.5 24t55 9q32 0 53.5 -9t34.5 -24t18.5 -35.5t5.5 -43.5v-58h-58v58q0 23 -12.5 40.5t-41.5 17.5q-31 0 -42 -17t-11 -41v-388
q0 -23 12 -40.5t41 -17.5q30 0 42 17.5t12 40.5v67zM191 767l56 -127h-44l-38 74l-37 -74h-44l55 127h52z" />
    <glyph glyph-name="ccaron.smcp" horiz-adv-x="320" 
d="M219 170h58v-67q0 -23 -5.5 -43.5t-18.5 -35.5t-34.5 -24t-53.5 -9q-33 0 -55 9t-34.5 24t-18 35.5t-5.5 43.5v388q0 23 5.5 43.5t18 35.5t34.5 24t55 9q32 0 53.5 -9t34.5 -24t18.5 -35.5t5.5 -43.5v-58h-58v58q0 23 -12.5 40.5t-41.5 17.5q-31 0 -42 -17t-11 -41v-388
q0 -23 12 -40.5t41 -17.5q30 0 42 17.5t12 40.5v67zM139 640l-55 127h44l37 -74l38 74h44l-56 -127h-52z" />
    <glyph glyph-name="ccedilla.smcp" horiz-adv-x="320" 
d="M142 -7q-26 3 -43.5 12.5t-28 24.5t-14.5 33.5t-4 39.5v388q0 23 5.5 43.5t18 35.5t34.5 24t55 9q32 0 53.5 -9t34.5 -24t18.5 -35.5t5.5 -43.5v-58h-58v58q0 23 -12.5 40.5t-41.5 17.5q-31 0 -42 -17t-11 -41v-388q0 -23 12 -40.5t41 -17.5q30 0 42 17.5t12 40.5v67h58
v-67q0 -22 -5 -41.5t-17 -34.5t-31.5 -24.5t-47.5 -10.5l-8 -32q64 -9 64 -64q0 -30 -20 -48t-68 -18h-46l10 38h33q23 0 32 8t9 22q0 15 -9.5 23t-33.5 8h-14z" />
    <glyph glyph-name="cdotaccent.smcp" horiz-adv-x="320" 
d="M219 170h58v-67q0 -23 -5.5 -43.5t-18.5 -35.5t-34.5 -24t-53.5 -9q-33 0 -55 9t-34.5 24t-18 35.5t-5.5 43.5v388q0 23 5.5 43.5t18 35.5t34.5 24t55 9q32 0 53.5 -9t34.5 -24t18.5 -35.5t5.5 -43.5v-58h-58v58q0 23 -12.5 40.5t-41.5 17.5q-31 0 -42 -17t-11 -41v-388
q0 -23 12 -40.5t41 -17.5q30 0 42 17.5t12 40.5v67zM195 714v-74h-61v74h61z" />
    <glyph glyph-name="dcaron.smcp" horiz-adv-x="349" 
d="M173 57q34 0 45.5 15.5t11.5 39.5v371q0 24 -11.5 39t-45.5 15h-50v-480h50zM62 595h112q34 0 57 -9t36 -24t18.5 -35.5t5.5 -43.5v-371q0 -23 -5 -43.5t-18 -35.5t-35.5 -24t-56.5 -9h-114v595zM133 640l-55 127h44l37 -74l38 74h44l-56 -127h-52z" />
    <glyph glyph-name="ddotaccent.smcp" horiz-adv-x="349" 
d="M173 57q34 0 45.5 15.5t11.5 39.5v371q0 24 -11.5 39t-45.5 15h-50v-480h50zM62 595h112q34 0 57 -9t36 -24t18.5 -35.5t5.5 -43.5v-371q0 -23 -5 -43.5t-18 -35.5t-35.5 -24t-56.5 -9h-114v595zM191 714v-74h-61v74h61z" />
    <glyph glyph-name="dcroat.smcp" horiz-adv-x="349" 
d="M19 318h43v277h112q34 0 57 -9t36 -24t18.5 -35.5t5.5 -43.5v-371q0 -23 -5 -43.5t-18 -35.5t-35.5 -24t-56.5 -9h-114v277h-43v41zM173 57q34 0 45.5 15.5t11.5 39.5v371q0 24 -11.5 39t-45.5 15h-50v-219h66v-41h-66v-220h50z" />
    <glyph glyph-name="eth.smcp" horiz-adv-x="349" 
d="M19 318h43v277h112q34 0 57 -9t36 -24t18.5 -35.5t5.5 -43.5v-371q0 -23 -5 -43.5t-18 -35.5t-35.5 -24t-56.5 -9h-114v277h-43v41zM173 57q34 0 45.5 15.5t11.5 39.5v371q0 24 -11.5 39t-45.5 15h-50v-219h66v-41h-66v-220h50z" />
    <glyph glyph-name="eacute.smcp" horiz-adv-x="296" 
d="M123 57h130v-57h-191v595h191v-58h-130v-210h112v-54h-112v-216zM229 767l-54 -127h-43l38 127h59z" />
    <glyph glyph-name="egrave.smcp" horiz-adv-x="296" 
d="M123 57h130v-57h-191v595h191v-58h-130v-210h112v-54h-112v-216zM159 767l37 -127h-42l-55 127h60z" />
    <glyph glyph-name="ecircumflex.smcp" horiz-adv-x="296" 
d="M123 57h130v-57h-191v595h191v-58h-130v-210h112v-54h-112v-216zM183 767l56 -127h-44l-38 74l-37 -74h-44l55 127h52z" />
    <glyph glyph-name="edieresis.smcp" horiz-adv-x="296" 
d="M123 57h130v-57h-191v595h191v-58h-130v-210h112v-54h-112v-216zM133 734v-74h-61v74h61zM241 734v-74h-61v74h61z" />
    <glyph glyph-name="ecaron.smcp" horiz-adv-x="296" 
d="M123 57h130v-57h-191v595h191v-58h-130v-210h112v-54h-112v-216zM133 640l-55 127h44l37 -74l38 74h44l-56 -127h-52z" />
    <glyph glyph-name="emacron.smcp" horiz-adv-x="296" 
d="M123 57h130v-57h-191v595h191v-58h-130v-210h112v-54h-112v-216zM74 711h170v-46h-170v46z" />
    <glyph glyph-name="ebreve.smcp" horiz-adv-x="296" 
d="M123 57h130v-57h-191v595h191v-58h-130v-210h112v-54h-112v-216zM237 741q0 -50 -18.5 -75.5t-60.5 -25.5t-60 25.5t-18 75.5h38q0 -28 9 -41.5t31 -13.5t31 13.5t9 41.5h39z" />
    <glyph glyph-name="eogonek.smcp" horiz-adv-x="296" 
d="M253 -115v-55h-12q-43 0 -63.5 18t-20.5 50q0 31 16.5 57.5t41.5 44.5h-153v595h191v-58h-130v-210h112v-54h-112v-216h130v-57q-23 -18 -35 -39.5t-12 -43.5q0 -32 35 -32h12z" />
    <glyph glyph-name="edotaccent.smcp" horiz-adv-x="296" 
d="M123 57h130v-57h-191v595h191v-58h-130v-210h112v-54h-112v-216zM192 714v-74h-61v74h61z" />
    <glyph glyph-name="fdotaccent.smcp" horiz-adv-x="281" 
d="M62 0v595h186v-58h-125v-210h107v-54h-107v-273h-61zM190 714v-74h-61v74h61z" />
    <glyph glyph-name="gcircumflex.smcp" horiz-adv-x="341" 
d="M170 327h113v-223q0 -23 -5.5 -43.5t-18 -36t-34.5 -24.5t-55 -9t-55 9t-34.5 24.5t-18 36t-5.5 43.5v387q0 23 5.5 43.5t18 35.5t34.5 24t55 9q32 0 53.5 -9t34.5 -24t18.5 -35.5t5.5 -43.5v-58h-59v58q0 22 -12 40t-41 18q-31 0 -42 -17t-11 -41v-387q0 -23 12 -41
t41 -18q31 0 42 17t11 42v169h-53v54zM195 767l56 -127h-44l-38 74l-37 -74h-44l55 127h52z" />
    <glyph glyph-name="gbreve.smcp" horiz-adv-x="341" 
d="M170 327h113v-223q0 -23 -5.5 -43.5t-18 -36t-34.5 -24.5t-55 -9t-55 9t-34.5 24.5t-18 36t-5.5 43.5v387q0 23 5.5 43.5t18 35.5t34.5 24t55 9q32 0 53.5 -9t34.5 -24t18.5 -35.5t5.5 -43.5v-58h-59v58q0 22 -12 40t-41 18q-31 0 -42 -17t-11 -41v-387q0 -23 12 -41
t41 -18q31 0 42 17t11 42v169h-53v54zM248 741q0 -50 -18.5 -75.5t-60.5 -25.5t-60 25.5t-18 75.5h38q0 -28 9 -41.5t31 -13.5t31 13.5t9 41.5h39z" />
    <glyph glyph-name="gdotaccent.smcp" horiz-adv-x="341" 
d="M170 327h113v-223q0 -23 -5.5 -43.5t-18 -36t-34.5 -24.5t-55 -9t-55 9t-34.5 24.5t-18 36t-5.5 43.5v387q0 23 5.5 43.5t18 35.5t34.5 24t55 9q32 0 53.5 -9t34.5 -24t18.5 -35.5t5.5 -43.5v-58h-59v58q0 22 -12 40t-41 18q-31 0 -42 -17t-11 -41v-387q0 -23 12 -41
t41 -18q31 0 42 17t11 42v169h-53v54zM200 714v-74h-61v74h61z" />
    <glyph glyph-name="gcommaaccent.smcp" horiz-adv-x="341" 
d="M170 327h113v-223q0 -23 -5.5 -43.5t-18 -36t-34.5 -24.5t-55 -9t-55 9t-34.5 24.5t-18 36t-5.5 43.5v387q0 23 5.5 43.5t18 35.5t34.5 24t55 9q32 0 53.5 -9t34.5 -24t18.5 -35.5t5.5 -43.5v-58h-59v58q0 22 -12 40t-41 18q-31 0 -42 -17t-11 -41v-387q0 -23 12 -41
t41 -18q31 0 42 17t11 42v169h-53v54zM201 -58l-26 -122h-37v122h63z" />
    <glyph glyph-name="hcircumflex.smcp" horiz-adv-x="355" 
d="M123 0h-61v595h61v-268h108v268h61v-595h-61v273h-108v-273zM202 767l56 -127h-44l-38 74l-37 -74h-44l55 127h52z" />
    <glyph glyph-name="hbar.smcp" horiz-adv-x="355" 
d="M17 483h45v112h61v-112h108v112h61v-112h45v-36h-45v-447h-61v273h-108v-273h-61v447h-45v36zM231 327v120h-108v-120h108z" />
    <glyph glyph-name="iacute.smcp" horiz-adv-x="186" 
d="M62 595h61v-595h-61v595zM167 767l-54 -127h-43l38 127h59z" />
    <glyph glyph-name="igrave.smcp" horiz-adv-x="186" 
d="M62 595h61v-595h-61v595zM74 767l37 -127h-42l-55 127h60z" />
    <glyph glyph-name="icircumflex.smcp" horiz-adv-x="186" 
d="M62 595h61v-595h-61v595zM119 767l56 -127h-44l-38 74l-37 -74h-44l55 127h52z" />
    <glyph glyph-name="idieresis.smcp" horiz-adv-x="186" 
d="M62 595h61v-595h-61v595zM70 734v-74h-61v74h61zM178 734v-74h-61v74h61z" />
    <glyph glyph-name="itilde.smcp" horiz-adv-x="186" 
d="M62 595h61v-595h-61v595zM142 655q-19 0 -31 6.5t-21 14.5t-18.5 14.5t-22.5 6.5q-16 0 -22 -8t-6 -24h-38q0 40 13 60.5t50 20.5q19 0 30.5 -6.5t21 -14.5t18.5 -14.5t23 -6.5q16 0 22 8t6 24h38q0 -41 -14 -61t-49 -20z" />
    <glyph glyph-name="imacron.smcp" horiz-adv-x="186" 
d="M62 595h61v-595h-61v595zM9 711h170v-46h-170v46z" />
    <glyph glyph-name="ibreve.smcp" horiz-adv-x="186" 
d="M62 595h61v-595h-61v595zM172 741q0 -50 -18.5 -75.5t-60.5 -25.5t-60 25.5t-18 75.5h38q0 -28 9 -41.5t31 -13.5t31 13.5t9 41.5h39z" />
    <glyph glyph-name="iogonek.smcp" horiz-adv-x="186" 
d="M62 595h61v-595q-23 -18 -35 -39.5t-12 -43.5q0 -32 35 -32h12v-55h-12q-43 0 -63.5 18t-20.5 50q0 31 16.5 57.5t41.5 44.5h-23v595z" />
    <glyph glyph-name="jcircumflex.smcp" horiz-adv-x="313" 
d="M98 103q0 -23 10 -40.5t39 -17.5t38.5 16.5t9.5 41.5v492h60v-492q0 -23 -5 -43.5t-17 -35.5t-33 -24t-53 -9t-53 9t-33.5 24t-18 35.5t-5.5 43.5v67h61v-67zM251 767l56 -127h-44l-38 74l-37 -74h-44l55 127h52z" />
    <glyph glyph-name="kcommaaccent.smcp" horiz-adv-x="325" 
d="M123 325l111 270h67l-129 -295l135 -300h-66l-118 275v-275h-61v595h61v-270zM203 -58l-26 -122h-37v122h63z" />
    <glyph glyph-name="lacute.smcp" horiz-adv-x="251" 
d="M62 595h61v-538h105v-57h-166v595zM169 767l-54 -127h-43l38 127h59z" />
    <glyph glyph-name="lcaron.smcp" horiz-adv-x="251" 
d="M221 604l-25 -203h-36v203h61zM62 595h61v-538h105v-57h-166v595z" />
    <glyph glyph-name="lcommaaccent.smcp" horiz-adv-x="251" 
d="M62 595h61v-538h105v-57h-166v595zM172 -58l-26 -122h-37v122h63z" />
    <glyph glyph-name="ldot.smcp" horiz-adv-x="251" 
d="M62 595h61v-538h105v-57h-166v595zM213 318v-77h-67v77h67z" />
    <glyph glyph-name="lslash.smcp" horiz-adv-x="251" 
d="M123 264v-207h105v-57h-166v239l-55 -22v43l55 22v313h61v-288l67 27v-43z" />
    <glyph glyph-name="mdotaccent.smcp" horiz-adv-x="466" 
d="M139 595l93 -506l94 506h77v-595h-57v203q0 22 1 60.5t2 81t2 84.5t2 71l-91 -500h-58l-92 500q1 -30 2 -71.5t2.5 -84t2.5 -80.5t1 -61v-203h-58v595h77zM262 714v-74h-61v74h61z" />
    <glyph glyph-name="nacute.smcp" horiz-adv-x="379" 
d="M115 464q2 -69 4 -134.5t2 -137.5v-192h-59v595h60l141 -465q-2 71 -4 136.5t-2 135.5v193h59v-595h-60l-141 464v0zM261 767l-54 -127h-43l38 127h59z" />
    <glyph glyph-name="ntilde.smcp" horiz-adv-x="379" 
d="M115 464q2 -69 4 -134.5t2 -137.5v-192h-59v595h60l141 -465q-2 71 -4 136.5t-2 135.5v193h59v-595h-60l-141 464v0zM237 655q-19 0 -31 6.5t-21 14.5t-18.5 14.5t-22.5 6.5q-16 0 -22 -8t-6 -24h-38q0 40 13 60.5t50 20.5q19 0 30.5 -6.5t21 -14.5t18.5 -14.5t23 -6.5
q16 0 22 8t6 24h38q0 -41 -14 -61t-49 -20z" />
    <glyph glyph-name="ncaron.smcp" horiz-adv-x="379" 
d="M115 464q2 -69 4 -134.5t2 -137.5v-192h-59v595h60l141 -465q-2 71 -4 136.5t-2 135.5v193h59v-595h-60l-141 464v0zM162 640l-55 127h44l37 -74l38 74h44l-56 -127h-52z" />
    <glyph glyph-name="ncommaaccent.smcp" horiz-adv-x="379" 
d="M115 464q2 -69 4 -134.5t2 -137.5v-192h-59v595h60l141 -465q-2 71 -4 136.5t-2 135.5v193h59v-595h-60l-141 464v0zM220 -58l-26 -122h-37v122h63z" />
    <glyph glyph-name="eng.smcp" horiz-adv-x="379" 
d="M258 0q-36 116 -72 231.5t-71 231.5q2 -66 4 -127t2 -130v-206h-59v595h60l141 -463q-3 66 -4.5 128t-1.5 128v207h59v-638q0 -23 -4.5 -42t-16.5 -32.5t-32 -20.5t-50 -7q-9 0 -19 1.5t-18 4.5v51q7 -4 15.5 -5t19.5 -1q27 0 37 11.5t10 39.5v43z" />
    <glyph glyph-name="oacute.smcp" horiz-adv-x="331" 
d="M165 45q31 0 42 17.5t11 41.5v386q0 24 -11 41.5t-42 17.5t-42 -17.5t-11 -41.5v-386q0 -24 11 -41.5t42 -17.5zM165 603q33 0 55 -9t34.5 -24.5t18 -36t5.5 -43.5v-386q0 -23 -5.5 -43.5t-18 -36t-34.5 -24.5t-55 -9t-55 9t-34.5 24.5t-18 36t-5.5 43.5v386
q0 23 5.5 43.5t18 36t34.5 24.5t55 9zM240 767l-54 -127h-43l38 127h59z" />
    <glyph glyph-name="ograve.smcp" horiz-adv-x="331" 
d="M165 45q31 0 42 17.5t11 41.5v386q0 24 -11 41.5t-42 17.5t-42 -17.5t-11 -41.5v-386q0 -24 11 -41.5t42 -17.5zM165 603q33 0 55 -9t34.5 -24.5t18 -36t5.5 -43.5v-386q0 -23 -5.5 -43.5t-18 -36t-34.5 -24.5t-55 -9t-55 9t-34.5 24.5t-18 36t-5.5 43.5v386
q0 23 5.5 43.5t18 36t34.5 24.5t55 9zM150 767l37 -127h-42l-55 127h60z" />
    <glyph glyph-name="ocircumflex.smcp" horiz-adv-x="331" 
d="M165 45q31 0 42 17.5t11 41.5v386q0 24 -11 41.5t-42 17.5t-42 -17.5t-11 -41.5v-386q0 -24 11 -41.5t42 -17.5zM165 603q33 0 55 -9t34.5 -24.5t18 -36t5.5 -43.5v-386q0 -23 -5.5 -43.5t-18 -36t-34.5 -24.5t-55 -9t-55 9t-34.5 24.5t-18 36t-5.5 43.5v386
q0 23 5.5 43.5t18 36t34.5 24.5t55 9zM190 767l56 -127h-44l-38 74l-37 -74h-44l55 127h52z" />
    <glyph glyph-name="odieresis.smcp" horiz-adv-x="331" 
d="M165 45q31 0 42 17.5t11 41.5v386q0 24 -11 41.5t-42 17.5t-42 -17.5t-11 -41.5v-386q0 -24 11 -41.5t42 -17.5zM165 603q33 0 55 -9t34.5 -24.5t18 -36t5.5 -43.5v-386q0 -23 -5.5 -43.5t-18 -36t-34.5 -24.5t-55 -9t-55 9t-34.5 24.5t-18 36t-5.5 43.5v386
q0 23 5.5 43.5t18 36t34.5 24.5t55 9zM141 734v-74h-61v74h61zM249 734v-74h-61v74h61z" />
    <glyph glyph-name="otilde.smcp" horiz-adv-x="331" 
d="M165 45q31 0 42 17.5t11 41.5v386q0 24 -11 41.5t-42 17.5t-42 -17.5t-11 -41.5v-386q0 -24 11 -41.5t42 -17.5zM165 603q33 0 55 -9t34.5 -24.5t18 -36t5.5 -43.5v-386q0 -23 -5.5 -43.5t-18 -36t-34.5 -24.5t-55 -9t-55 9t-34.5 24.5t-18 36t-5.5 43.5v386
q0 23 5.5 43.5t18 36t34.5 24.5t55 9zM213 655q-19 0 -31 6.5t-21 14.5t-18.5 14.5t-22.5 6.5q-16 0 -22 -8t-6 -24h-38q0 40 13 60.5t50 20.5q19 0 30.5 -6.5t21 -14.5t18.5 -14.5t23 -6.5q16 0 22 8t6 24h38q0 -41 -14 -61t-49 -20z" />
    <glyph glyph-name="obreve.smcp" horiz-adv-x="331" 
d="M165 45q31 0 42 17.5t11 41.5v386q0 24 -11 41.5t-42 17.5t-42 -17.5t-11 -41.5v-386q0 -24 11 -41.5t42 -17.5zM165 603q33 0 55 -9t34.5 -24.5t18 -36t5.5 -43.5v-386q0 -23 -5.5 -43.5t-18 -36t-34.5 -24.5t-55 -9t-55 9t-34.5 24.5t-18 36t-5.5 43.5v386
q0 23 5.5 43.5t18 36t34.5 24.5t55 9zM243 741q0 -50 -18.5 -75.5t-60.5 -25.5t-60 25.5t-18 75.5h38q0 -28 9 -41.5t31 -13.5t31 13.5t9 41.5h39z" />
    <glyph glyph-name="omacron.smcp" horiz-adv-x="331" 
d="M165 45q31 0 42 17.5t11 41.5v386q0 24 -11 41.5t-42 17.5t-42 -17.5t-11 -41.5v-386q0 -24 11 -41.5t42 -17.5zM165 603q33 0 55 -9t34.5 -24.5t18 -36t5.5 -43.5v-386q0 -23 -5.5 -43.5t-18 -36t-34.5 -24.5t-55 -9t-55 9t-34.5 24.5t-18 36t-5.5 43.5v386
q0 23 5.5 43.5t18 36t34.5 24.5t55 9zM80 711h170v-46h-170v46z" />
    <glyph glyph-name="ohungarumlaut.smcp" horiz-adv-x="331" 
d="M165 45q31 0 42 17.5t11 41.5v386q0 24 -11 41.5t-42 17.5t-42 -17.5t-11 -41.5v-386q0 -24 11 -41.5t42 -17.5zM165 603q33 0 55 -9t34.5 -24.5t18 -36t5.5 -43.5v-386q0 -23 -5.5 -43.5t-18 -36t-34.5 -24.5t-55 -9t-55 9t-34.5 24.5t-18 36t-5.5 43.5v386
q0 23 5.5 43.5t18 36t34.5 24.5t55 9zM177 767l-39 -127h-43l23 127h59zM282 767l-49 -127h-43l33 127h59z" />
    <glyph glyph-name="oslash.smcp" horiz-adv-x="331" 
d="M111 0q-34 13 -46.5 41t-12.5 63v386q0 23 5.5 43.5t18 36t34.5 24.5t55 9q8 0 15 -0.5t13 -1.5l4 24h28l-5 -32q33 -13 45.5 -41t12.5 -62v-386q0 -23 -5.5 -43.5t-18 -36t-34.5 -24.5t-55 -9q-8 0 -14.5 0.5t-12.5 1.5l-3 -23h-28zM112 104q0 -11 1.5 -20t6.5 -17
l66 479q-9 3 -21 3q-31 0 -42 -17.5t-11 -41.5v-386zM165 45q31 0 42 17.5t11 41.5v386q0 20 -7 34l-66 -477q5 -1 9.5 -1.5t10.5 -0.5z" />
    <glyph glyph-name="oe.smcp" horiz-adv-x="452" 
d="M279 57h130v-57h-195q-21 -9 -49 -9q-33 0 -55 9t-34.5 24.5t-18 36t-5.5 43.5v386q0 23 5.5 43.5t18 36t34.5 24.5t55 9q26 0 45 -8h199v-58h-130v-210h112v-54h-112v-216zM165 45q31 0 42 17.5t11 41.5v386q0 24 -11 41.5t-42 17.5t-42 -17.5t-11 -41.5v-386
q0 -24 11 -41.5t42 -17.5z" />
    <glyph glyph-name="thorn.smcp" horiz-adv-x="325" 
d="M62 595h61v-123h49q34 0 56.5 -9t35.5 -24t18 -35.5t5 -43.5v-125q0 -22 -6.5 -42t-20.5 -35t-36 -24t-54 -9h-47v-125h-61v595zM169 178q34 0 46 16.5t12 40.5v125q0 24 -13 39t-45 15h-46v-236h46z" />
    <glyph glyph-name="pdotaccent.smcp" horiz-adv-x="325" 
d="M62 595h110q34 0 56.5 -9t35.5 -24t18 -35.5t5 -43.5v-125q0 -22 -6.5 -42t-20.5 -35t-36 -24t-54 -9h-47v-248h-61v595zM169 301q34 0 46 16.5t12 40.5v125q0 24 -13 39t-45 15h-46v-236h46zM199 714v-74h-61v74h61z" />
    <glyph glyph-name="racute.smcp" horiz-adv-x="338" 
d="M62 595h111q34 0 56.5 -9t35 -24t17.5 -35t5 -43v-122q0 -38 -16 -67t-58 -37l106 -258h-67l-98 255h-31v-255h-61v595zM169 308q34 0 46 15t12 39v122q0 24 -13 38.5t-45 14.5h-46v-229h46zM236 767l-54 -127h-43l38 127h59z" />
    <glyph glyph-name="rcaron.smcp" horiz-adv-x="338" 
d="M62 595h111q34 0 56.5 -9t35 -24t17.5 -35t5 -43v-122q0 -38 -16 -67t-58 -37l106 -258h-67l-98 255h-31v-255h-61v595zM169 308q34 0 46 15t12 39v122q0 24 -13 38.5t-45 14.5h-46v-229h46zM131 640l-55 127h44l37 -74l38 74h44l-56 -127h-52z" />
    <glyph glyph-name="rcommaaccent.smcp" horiz-adv-x="338" 
d="M62 595h111q34 0 56.5 -9t35 -24t17.5 -35t5 -43v-122q0 -38 -16 -67t-58 -37l106 -258h-67l-98 255h-31v-255h-61v595zM169 308q34 0 46 15t12 39v122q0 24 -13 38.5t-45 14.5h-46v-229h46zM200 -58l-26 -122h-37v122h63z" />
    <glyph glyph-name="sacute.smcp" horiz-adv-x="320" 
d="M211 168q0 41 -12 65.5t-30.5 41t-39.5 29.5t-39.5 30.5t-30.5 43.5t-12 70v42q0 23 5 43.5t17.5 36t34 24.5t55.5 9t56 -9t34.5 -24.5t17.5 -36t5 -43.5v-57h-61v57q0 23 -10.5 41t-41.5 18q-32 0 -42 -17.5t-10 -41.5v-41q0 -35 12 -55.5t30.5 -35t40 -27t40 -32
t30.5 -50t12 -80.5v-64q0 -23 -5 -43.5t-17.5 -36.5t-34.5 -25t-56 -9t-55.5 9t-34 25t-17.5 36.5t-5 43.5v65h60v-65q0 -23 11.5 -41.5t40.5 -18.5q32 0 42 17.5t10 42.5v63zM236 767l-54 -127h-43l38 127h59z" />
    <glyph glyph-name="scircumflex.smcp" horiz-adv-x="320" 
d="M211 168q0 41 -12 65.5t-30.5 41t-39.5 29.5t-39.5 30.5t-30.5 43.5t-12 70v42q0 23 5 43.5t17.5 36t34 24.5t55.5 9t56 -9t34.5 -24.5t17.5 -36t5 -43.5v-57h-61v57q0 23 -10.5 41t-41.5 18q-32 0 -42 -17.5t-10 -41.5v-41q0 -35 12 -55.5t30.5 -35t40 -27t40 -32
t30.5 -50t12 -80.5v-64q0 -23 -5 -43.5t-17.5 -36.5t-34.5 -25t-56 -9t-55.5 9t-34 25t-17.5 36.5t-5 43.5v65h60v-65q0 -23 11.5 -41.5t40.5 -18.5q32 0 42 17.5t10 42.5v63zM185 767l56 -127h-44l-38 74l-37 -74h-44l55 127h52z" />
    <glyph glyph-name="scaron.smcp" horiz-adv-x="320" 
d="M211 168q0 41 -12 65.5t-30.5 41t-39.5 29.5t-39.5 30.5t-30.5 43.5t-12 70v42q0 23 5 43.5t17.5 36t34 24.5t55.5 9t56 -9t34.5 -24.5t17.5 -36t5 -43.5v-57h-61v57q0 23 -10.5 41t-41.5 18q-32 0 -42 -17.5t-10 -41.5v-41q0 -35 12 -55.5t30.5 -35t40 -27t40 -32
t30.5 -50t12 -80.5v-64q0 -23 -5 -43.5t-17.5 -36.5t-34.5 -25t-56 -9t-55.5 9t-34 25t-17.5 36.5t-5 43.5v65h60v-65q0 -23 11.5 -41.5t40.5 -18.5q32 0 42 17.5t10 42.5v63zM133 640l-55 127h44l37 -74l38 74h44l-56 -127h-52z" />
    <glyph glyph-name="sdotaccent.smcp" horiz-adv-x="320" 
d="M211 168q0 41 -12 65.5t-30.5 41t-39.5 29.5t-39.5 30.5t-30.5 43.5t-12 70v42q0 23 5 43.5t17.5 36t34 24.5t55.5 9t56 -9t34.5 -24.5t17.5 -36t5 -43.5v-57h-61v57q0 23 -10.5 41t-41.5 18q-32 0 -42 -17.5t-10 -41.5v-41q0 -35 12 -55.5t30.5 -35t40 -27t40 -32
t30.5 -50t12 -80.5v-64q0 -23 -5 -43.5t-17.5 -36.5t-34.5 -25t-56 -9t-55.5 9t-34 25t-17.5 36.5t-5 43.5v65h60v-65q0 -23 11.5 -41.5t40.5 -18.5q32 0 42 17.5t10 42.5v63zM189 714v-74h-61v74h61z" />
    <glyph glyph-name="scedilla.smcp" horiz-adv-x="320" 
d="M136 -7q-27 3 -44 13t-27 25t-14 34t-4 40v65h60v-65q0 -23 11.5 -41.5t40.5 -18.5q32 0 42 17.5t10 42.5v63q0 41 -12 65.5t-30.5 41t-39.5 29.5t-39.5 30.5t-30.5 43.5t-12 70v42q0 23 5 43.5t17.5 36t34 24.5t55.5 9t56 -9t34.5 -24.5t17.5 -36t5 -43.5v-57h-61v57
q0 23 -10.5 41t-41.5 18q-32 0 -42 -17.5t-10 -41.5v-41q0 -35 12 -55.5t30.5 -35t40 -27t40 -32t30.5 -50t12 -80.5v-64q0 -22 -4.5 -42t-16 -35t-31.5 -25t-50 -11l-8 -32q64 -9 64 -64q0 -30 -20 -48t-68 -18h-46l10 38h33q23 0 32 8t9 22q0 15 -9.5 23t-33.5 8h-14z" />
    <glyph glyph-name="scommaaccent.smcp" horiz-adv-x="320" 
d="M211 168q0 41 -12 65.5t-30.5 41t-39.5 29.5t-39.5 30.5t-30.5 43.5t-12 70v42q0 23 5 43.5t17.5 36t34 24.5t55.5 9t56 -9t34.5 -24.5t17.5 -36t5 -43.5v-57h-61v57q0 23 -10.5 41t-41.5 18q-32 0 -42 -17.5t-10 -41.5v-41q0 -35 12 -55.5t30.5 -35t40 -27t40 -32
t30.5 -50t12 -80.5v-64q0 -23 -5 -43.5t-17.5 -36.5t-34.5 -25t-56 -9t-55.5 9t-34 25t-17.5 36.5t-5 43.5v65h60v-65q0 -23 11.5 -41.5t40.5 -18.5q32 0 42 17.5t10 42.5v63zM191 -58l-26 -122h-37v122h63z" />
    <glyph glyph-name="germandbls.smcp" horiz-adv-x="645" 
d="M211 168q0 41 -12 65.5t-30.5 41t-39.5 29.5t-39.5 30.5t-30.5 43.5t-12 70v42q0 23 5 43.5t17.5 36t34 24.5t55.5 9t56 -9t34.5 -24.5t17.5 -36t5 -43.5v-57h-61v57q0 23 -10.5 41t-41.5 18q-32 0 -42 -17.5t-10 -41.5v-41q0 -35 12 -55.5t30.5 -35t40 -27t40 -32
t30.5 -50t12 -80.5v-64q0 -23 -5 -43.5t-17.5 -36.5t-34.5 -25t-56 -9t-55.5 9t-34 25t-17.5 36.5t-5 43.5v65h60v-65q0 -23 11.5 -41.5t40.5 -18.5q32 0 42 17.5t10 42.5v63zM536 168q0 41 -12 65.5t-30.5 41t-39.5 29.5t-39.5 30.5t-30.5 43.5t-12 70v42q0 23 5 43.5
t17.5 36t34 24.5t55.5 9t56 -9t34.5 -24.5t17.5 -36t5 -43.5v-57h-61v57q0 23 -10.5 41t-41.5 18q-32 0 -42 -17.5t-10 -41.5v-41q0 -35 12 -55.5t30.5 -35t40 -27t40 -32t30.5 -50t12 -80.5v-64q0 -23 -5 -43.5t-17.5 -36.5t-34.5 -25t-56 -9t-55.5 9t-34 25t-17.5 36.5
t-5 43.5v65h60v-65q0 -23 11.5 -41.5t40.5 -18.5q32 0 42 17.5t10 42.5v63z" />
    <glyph glyph-name="tcaron.smcp" horiz-adv-x="266" 
d="M163 0h-60v537h-81v58h221v-58h-80v-537zM106 640l-55 127h44l37 -74l38 74h44l-56 -127h-52z" />
    <glyph glyph-name="tdotaccent.smcp" horiz-adv-x="266" 
d="M163 0h-60v537h-81v58h221v-58h-80v-537zM162 714v-74h-61v74h61z" />
    <glyph glyph-name="tcommaaccent.smcp" horiz-adv-x="266" 
d="M163 0h-60v537h-81v58h221v-58h-80v-537zM164 -58l-26 -122h-37v122h63z" />
    <glyph glyph-name="tbar.smcp" horiz-adv-x="266" 
d="M47 313h56v224h-81v58h221v-58h-80v-224h54v-41h-54v-272h-60v272h-56v41z" />
    <glyph glyph-name="uacute.smcp" horiz-adv-x="340" 
d="M117 105q0 -24 10.5 -42t42.5 -18t42 18t10 42v490h60v-490q0 -22 -5.5 -42.5t-18.5 -36.5t-34.5 -25.5t-53.5 -9.5q-34 0 -56 9t-34.5 25t-17.5 36.5t-5 43.5v490h60v-490zM245 767l-54 -127h-43l38 127h59z" />
    <glyph glyph-name="ugrave.smcp" horiz-adv-x="340" 
d="M117 105q0 -24 10.5 -42t42.5 -18t42 18t10 42v490h60v-490q0 -22 -5.5 -42.5t-18.5 -36.5t-34.5 -25.5t-53.5 -9.5q-34 0 -56 9t-34.5 25t-17.5 36.5t-5 43.5v490h60v-490zM154 767l37 -127h-42l-55 127h60z" />
    <glyph glyph-name="ucircumflex.smcp" horiz-adv-x="340" 
d="M117 105q0 -24 10.5 -42t42.5 -18t42 18t10 42v490h60v-490q0 -22 -5.5 -42.5t-18.5 -36.5t-34.5 -25.5t-53.5 -9.5q-34 0 -56 9t-34.5 25t-17.5 36.5t-5 43.5v490h60v-490zM195 767l56 -127h-44l-38 74l-37 -74h-44l55 127h52z" />
    <glyph glyph-name="udieresis.smcp" horiz-adv-x="340" 
d="M117 105q0 -24 10.5 -42t42.5 -18t42 18t10 42v490h60v-490q0 -22 -5.5 -42.5t-18.5 -36.5t-34.5 -25.5t-53.5 -9.5q-34 0 -56 9t-34.5 25t-17.5 36.5t-5 43.5v490h60v-490zM146 734v-74h-61v74h61zM254 734v-74h-61v74h61z" />
    <glyph glyph-name="utilde.smcp" horiz-adv-x="340" 
d="M117 105q0 -24 10.5 -42t42.5 -18t42 18t10 42v490h60v-490q0 -22 -5.5 -42.5t-18.5 -36.5t-34.5 -25.5t-53.5 -9.5q-34 0 -56 9t-34.5 25t-17.5 36.5t-5 43.5v490h60v-490zM217 655q-19 0 -31 6.5t-21 14.5t-18.5 14.5t-22.5 6.5q-16 0 -22 -8t-6 -24h-38q0 40 13 60.5
t50 20.5q19 0 30.5 -6.5t21 -14.5t18.5 -14.5t23 -6.5q16 0 22 8t6 24h38q0 -41 -14 -61t-49 -20z" />
    <glyph glyph-name="uring.smcp" horiz-adv-x="340" 
d="M117 105q0 -24 10.5 -42t42.5 -18t42 18t10 42v490h60v-490q0 -22 -5.5 -42.5t-18.5 -36.5t-34.5 -25.5t-53.5 -9.5q-34 0 -56 9t-34.5 25t-17.5 36.5t-5 43.5v490h60v-490zM237 715q0 -35 -16 -55t-52 -20t-52 20t-16 55t16 56t52 21t52 -21t16 -56zM198 715
q0 20 -7 31.5t-22 11.5t-22 -11.5t-7 -31.5q0 -19 7 -30t22 -11t22 11t7 30z" />
    <glyph glyph-name="ubreve.smcp" horiz-adv-x="340" 
d="M117 105q0 -24 10.5 -42t42.5 -18t42 18t10 42v490h60v-490q0 -22 -5.5 -42.5t-18.5 -36.5t-34.5 -25.5t-53.5 -9.5q-34 0 -56 9t-34.5 25t-17.5 36.5t-5 43.5v490h60v-490zM248 741q0 -50 -18.5 -75.5t-60.5 -25.5t-60 25.5t-18 75.5h38q0 -28 9 -41.5t31 -13.5t31 13.5
t9 41.5h39z" />
    <glyph glyph-name="umacron.smcp" horiz-adv-x="340" 
d="M117 105q0 -24 10.5 -42t42.5 -18t42 18t10 42v490h60v-490q0 -22 -5.5 -42.5t-18.5 -36.5t-34.5 -25.5t-53.5 -9.5q-34 0 -56 9t-34.5 25t-17.5 36.5t-5 43.5v490h60v-490zM84 711h170v-46h-170v46z" />
    <glyph glyph-name="uhungarumlaut.smcp" horiz-adv-x="340" 
d="M117 105q0 -24 10.5 -42t42.5 -18t42 18t10 42v490h60v-490q0 -22 -5.5 -42.5t-18.5 -36.5t-34.5 -25.5t-53.5 -9.5q-34 0 -56 9t-34.5 25t-17.5 36.5t-5 43.5v490h60v-490zM182 767l-39 -127h-43l23 127h59zM287 767l-49 -127h-43l33 127h59z" />
    <glyph glyph-name="uogonek.smcp" horiz-adv-x="340" 
d="M219 -115v-55h-12q-43 0 -63.5 18t-20.5 50q0 27 13 51t33 42q-33 0 -55 9t-34.5 25t-17.5 36.5t-5 43.5v490h60v-490q0 -24 10.5 -42t42.5 -18t42 18t10 42v490h60v-490q0 -35 -14.5 -65.5t-52.5 -41.5q-43 -37 -43 -81q0 -32 35 -32h12z" />
    <glyph glyph-name="wacute.smcp" horiz-adv-x="516" 
d="M257 486l-70 -486h-70l-85 595h61l60 -490l73 490h63l73 -490l59 490h62l-86 -595h-69zM332 767l-54 -127h-43l38 127h59z" />
    <glyph glyph-name="wgrave.smcp" horiz-adv-x="516" 
d="M257 486l-70 -486h-70l-85 595h61l60 -490l73 490h63l73 -490l59 490h62l-86 -595h-69zM241 767l37 -127h-42l-55 127h60z" />
    <glyph glyph-name="wcircumflex.smcp" horiz-adv-x="516" 
d="M257 486l-70 -486h-70l-85 595h61l60 -490l73 490h63l73 -490l59 490h62l-86 -595h-69zM283 767l56 -127h-44l-38 74l-37 -74h-44l55 127h52z" />
    <glyph glyph-name="wdieresis.smcp" horiz-adv-x="516" 
d="M257 486l-70 -486h-70l-85 595h61l60 -490l73 490h63l73 -490l59 490h62l-86 -595h-69zM234 734v-74h-61v74h61zM342 734v-74h-61v74h61z" />
    <glyph glyph-name="yacute.smcp" horiz-adv-x="292" 
d="M115 0v247l-93 348h63l60 -268l60 268h64l-93 -348v-247h-61zM221 767l-54 -127h-43l38 127h59z" />
    <glyph glyph-name="ygrave.smcp" horiz-adv-x="292" 
d="M115 0v247l-93 348h63l60 -268l60 268h64l-93 -348v-247h-61zM133 767l37 -127h-42l-55 127h60z" />
    <glyph glyph-name="ycircumflex.smcp" horiz-adv-x="292" 
d="M115 0v247l-93 348h63l60 -268l60 268h64l-93 -348v-247h-61zM171 767l56 -127h-44l-38 74l-37 -74h-44l55 127h52z" />
    <glyph glyph-name="ydieresis.smcp" horiz-adv-x="292" 
d="M115 0v247l-93 348h63l60 -268l60 268h64l-93 -348v-247h-61zM122 734v-74h-61v74h61zM230 734v-74h-61v74h61z" />
    <glyph glyph-name="zacute.smcp" horiz-adv-x="274" 
d="M37 0v40l136 497h-136v58h201v-40l-135 -498h138v-57h-204zM212 767l-54 -127h-43l38 127h59z" />
    <glyph glyph-name="zcaron.smcp" horiz-adv-x="274" 
d="M37 0v40l136 497h-136v58h201v-40l-135 -498h138v-57h-204zM110 640l-55 127h44l37 -74l38 74h44l-56 -127h-52z" />
    <glyph glyph-name="zdotaccent.smcp" horiz-adv-x="274" 
d="M37 0v40l136 497h-136v58h201v-40l-135 -498h138v-57h-204zM166 714v-74h-61v74h61z" />
    </font>
</defs>
</svg>
